<svg xmlns="http://www.w3.org/2000/svg" width="16" height="16" viewBox="0 0 16 16">
  <path id="blockchain" d="M17.5,3.525,14.837,2.181a.838.838,0,0,0-.718,0L11.462,3.525a.817.817,0,0,0-.425.726v.457l-.691-.376a.737.737,0,0,0-.744,0l-.691.4V4.278a.793.793,0,0,0-.452-.726L5.8,2.208a.838.838,0,0,0-.718,0L2.425,3.552a.748.748,0,0,0-.425.7V7.344a.793.793,0,0,0,.452.726L4.658,9.2v1.829L2.452,12.157a.73.73,0,0,0-.452.7v3.092a.793.793,0,0,0,.452.726L5.11,18.019a.838.838,0,0,0,.718,0l2.658-1.345a.811.811,0,0,0,.452-.726v-.457l.691.376a.737.737,0,0,0,.744,0l.691-.376v.457a.793.793,0,0,0,.452.726l2.658,1.345a.838.838,0,0,0,.718,0l2.658-1.345A.811.811,0,0,0,18,15.949V12.856a.793.793,0,0,0-.452-.726l-2.259-1.1V9.2L17.5,8.07a.811.811,0,0,0,.452-.726V4.251a.793.793,0,0,0-.452-.726Zm-3.11-.861a.365.365,0,0,1,.239,0L17.1,3.929,14.625,5.192a.365.365,0,0,1-.239,0L11.914,3.929ZM11.568,4.359,14.146,5.65c.027,0,.053.027.08.027V6.4L11.568,4.977Zm-1.728.484a.2.2,0,0,1,.239,0l4.359,2.313L10.08,9.468a.2.2,0,0,1-.239,0L5.482,7.155ZM5.721,6.429V5.7c.027,0,.053-.027.08-.027L8.379,4.386v.645ZM5.349,2.665a.365.365,0,0,1,.239,0L8.06,3.929,5.588,5.192a.365.365,0,0,1-.239,0L2.85,3.929ZM2.691,7.586a.235.235,0,0,1-.159-.242V4.359L5.11,5.65c.027,0,.053.027.08.027V6.7l-.106.054a.849.849,0,0,0-.425.726V8.608Zm3.827,4.948v-.78l1.542.78-2.6,1.318-2.6-1.318L5.322,11.27a.158.158,0,0,1,.106-.027c.053,0,.08,0,.106.027l.452.215v1.049ZM2.691,16.191a.235.235,0,0,1-.159-.242V12.964l2.658,1.345v3.173Zm5.528,0-2.5,1.291V14.308l2.658-1.345v2.985A.235.235,0,0,1,8.219,16.191Zm.691-1.318V12.856a.793.793,0,0,0-.452-.726l-1.94-.968v-.511a.283.283,0,0,1,.133-.242l1.037-.565-.239-.484-1.037.565a.788.788,0,0,0-.425.726v.242L5.8,10.813a.7.7,0,0,0-.611-.027v-3.2L9.6,9.925c.027.027.08.027.106.054V15.3Zm1.329.43V9.979a.2.2,0,0,0,.106-.054l4.412-2.339v3.173a.8.8,0,0,0-.611.027l-.186.108v-.242a.849.849,0,0,0-.425-.726L12.5,9.361l-.239.484,1.037.565a.283.283,0,0,1,.133.242v.511l-1.94.995a.811.811,0,0,0-.452.726V14.9Zm4.252-1.452-2.6-1.318,1.542-.78v.78h.532V11.485l.425-.215a.158.158,0,0,1,.106-.027c.053,0,.08,0,.106.027l2.472,1.264Zm-2.764,2.339a.235.235,0,0,1-.159-.242V12.964l2.658,1.345v3.173Zm5.528,0-2.5,1.291V14.308l2.658-1.345v2.985a.235.235,0,0,1-.159.242Zm0-8.605L15.289,8.608V7.478a.849.849,0,0,0-.425-.726L14.757,6.7V5.676c.027,0,.053-.027.08-.027l2.578-1.291V7.344a.235.235,0,0,1-.159.242Z" transform="translate(-2 -2.1)" fill="#ff6a7e"/>
</svg>
