<svg xmlns="http://www.w3.org/2000/svg" width="21.255" height="16.914" viewBox="0 0 21.255 16.914">
  <g id="envelope" transform="translate(0.5 -54.32)">
    <g id="Group_570" data-name="Group 570" transform="translate(0 54.82)">
      <path id="Path_1949" data-name="Path 1949" d="M1.944,59.727q.384.271,2.317,1.611T7.222,63.4q.113.079.48.345t.61.43q.243.164.588.367a3.41,3.41,0,0,0,.65.3,1.79,1.79,0,0,0,.565.1h.023a1.792,1.792,0,0,0,.565-.1,3.414,3.414,0,0,0,.65-.3q.345-.2.588-.367t.61-.43q.367-.266.48-.345l5.29-3.675A5.371,5.371,0,0,0,19.7,58.336a2.987,2.987,0,0,0,.554-1.707,1.824,1.824,0,0,0-1.808-1.809H1.808a1.614,1.614,0,0,0-1.339.588A2.283,2.283,0,0,0,0,56.878a2.642,2.642,0,0,0,.622,1.544A5.611,5.611,0,0,0,1.944,59.727Z" transform="translate(0 -54.82)" fill="none" stroke="#676f75" stroke-width="1"/>
      <path id="Path_1950" data-name="Path 1950" d="M19.124,185.42q-3.707,2.509-5.629,3.9-.644.474-1.045.74a6.453,6.453,0,0,1-1.068.542,3.253,3.253,0,0,1-1.243.277h-.023a3.254,3.254,0,0,1-1.243-.277,6.456,6.456,0,0,1-1.068-.542q-.4-.265-1.045-.74-1.526-1.119-5.617-3.9A5.986,5.986,0,0,1,0,184.437v8.972a1.741,1.741,0,0,0,.531,1.277,1.741,1.741,0,0,0,1.277.531H18.446a1.814,1.814,0,0,0,1.808-1.808v-8.972A6.232,6.232,0,0,1,19.124,185.42Z" transform="translate(0 -179.304)" fill="none" stroke="#676f75" stroke-width="1"/>
    </g>
  </g>
</svg>
