<svg xmlns="http://www.w3.org/2000/svg" width="36" height="38" viewBox="0 0 36 38">
  <g id="Group_7379" data-name="Group 7379" transform="translate(-358 -292.028)">
    <path id="Path_1807" data-name="Path 1807" d="M114.158,18.1l4.519,4.988V1.1a1,1,0,1,1,2,0V23.089l4.519-4.988a.934.934,0,0,1,1.413,0,1.186,1.186,0,0,1,0,1.56l-6.225,6.872a.934.934,0,0,1-1.413,0l-6.225-6.872a1.186,1.186,0,0,1,0-1.56A.935.935,0,0,1,114.158,18.1Z" transform="translate(255.834 292.028)" fill="#dd3468"/>
    <path id="Union_8" data-name="Union 8" d="M35.1,15H.812A.833.833,0,0,1,0,14.166s0-.008,0-.012,0-.008,0-.012V0H1.715V13.333H34.285V0H36V14.143s0,.008,0,.012,0,.008,0,.012a.833.833,0,0,1-.813.833H35.1Z" transform="translate(358 315.028)" fill="#dd3468"/>
  </g>
</svg>
