<svg xmlns="http://www.w3.org/2000/svg" width="25" height="25" viewBox="0 0 25 25">
  <g id="Group_676" data-name="Group 676" transform="translate(-490.5 -432.5)">
    <g id="Group_630" data-name="Group 630" transform="translate(491 433)">
      <g id="Group_629" data-name="Group 629">
        <path id="Path_1988" data-name="Path 1988" d="M21.188,1.875H20.063V0H18.188V1.875H5.813V0H3.938V1.875H2.813A2.816,2.816,0,0,0,0,4.688v16.5A2.816,2.816,0,0,0,2.813,24H21.188A2.816,2.816,0,0,0,24,21.188V4.688A2.816,2.816,0,0,0,21.188,1.875Zm.938,19.313a.939.939,0,0,1-.937.938H2.813a.939.939,0,0,1-.937-.937V8.813h20.25Zm0-14.25H1.875V4.688a.939.939,0,0,1,.938-.937H3.938V5.625H5.813V3.75H18.188V5.625h1.875V3.75h1.125a.939.939,0,0,1,.938.938Z" fill="none" stroke="#676f75" stroke-width="1"/>
      </g>
    </g>
    <g id="Group_675" data-name="Group 675">
      <g id="Group_660" data-name="Group 660" transform="translate(418 213)">
        <g id="Group_631" data-name="Group 631" transform="translate(76 230)">
          <rect id="Rectangle_3130" data-name="Rectangle 3130" width="2" height="2" fill="#a4a4a4"/>
        </g>
      </g>
      <g id="Group_669" data-name="Group 669" transform="translate(418 217)">
        <g id="Group_631-2" data-name="Group 631" transform="translate(76 230)">
          <rect id="Rectangle_3130-2" data-name="Rectangle 3130" width="2" height="2" fill="#a4a4a4"/>
        </g>
      </g>
      <g id="Group_674" data-name="Group 674" transform="translate(418 221)">
        <g id="Group_631-3" data-name="Group 631" transform="translate(76 230)">
          <rect id="Rectangle_3130-3" data-name="Rectangle 3130" width="2" height="2" fill="#a4a4a4"/>
        </g>
      </g>
      <g id="Group_661" data-name="Group 661" transform="translate(422 213)">
        <g id="Group_631-4" data-name="Group 631" transform="translate(76 230)">
          <rect id="Rectangle_3130-4" data-name="Rectangle 3130" width="2" height="2" fill="#a4a4a4"/>
        </g>
      </g>
      <g id="Group_668" data-name="Group 668" transform="translate(422 217)">
        <g id="Group_631-5" data-name="Group 631" transform="translate(76 230)">
          <rect id="Rectangle_3130-5" data-name="Rectangle 3130" width="2" height="2" fill="#a4a4a4"/>
        </g>
      </g>
      <g id="Group_673" data-name="Group 673" transform="translate(422 221)">
        <g id="Group_631-6" data-name="Group 631" transform="translate(76 230)">
          <rect id="Rectangle_3130-6" data-name="Rectangle 3130" width="2" height="2" fill="#a4a4a4"/>
        </g>
      </g>
      <g id="Group_662" data-name="Group 662" transform="translate(426 213)">
        <g id="Group_631-7" data-name="Group 631" transform="translate(76 230)">
          <rect id="Rectangle_3130-7" data-name="Rectangle 3130" width="2" height="2" fill="#a4a4a4"/>
        </g>
      </g>
      <g id="Group_667" data-name="Group 667" transform="translate(426 217)">
        <g id="Group_631-8" data-name="Group 631" transform="translate(76 230)">
          <rect id="Rectangle_3130-8" data-name="Rectangle 3130" width="2" height="2" fill="#a4a4a4"/>
        </g>
      </g>
      <g id="Group_672" data-name="Group 672" transform="translate(426 221)">
        <g id="Group_631-9" data-name="Group 631" transform="translate(76 230)">
          <rect id="Rectangle_3130-9" data-name="Rectangle 3130" width="2" height="2" fill="#a4a4a4"/>
        </g>
      </g>
      <g id="Group_663" data-name="Group 663" transform="translate(430 213)">
        <g id="Group_631-10" data-name="Group 631" transform="translate(76 230)">
          <rect id="Rectangle_3130-10" data-name="Rectangle 3130" width="2" height="2" fill="#a4a4a4"/>
        </g>
      </g>
      <g id="Group_666" data-name="Group 666" transform="translate(430 217)">
        <g id="Group_631-11" data-name="Group 631" transform="translate(76 230)">
          <rect id="Rectangle_3130-11" data-name="Rectangle 3130" width="2" height="2" fill="#a4a4a4"/>
        </g>
      </g>
      <g id="Group_664" data-name="Group 664" transform="translate(434 213)">
        <g id="Group_631-12" data-name="Group 631" transform="translate(76 230)">
          <rect id="Rectangle_3130-12" data-name="Rectangle 3130" width="2" height="2" fill="#a4a4a4"/>
        </g>
      </g>
      <g id="Group_665" data-name="Group 665" transform="translate(434 217)">
        <g id="Group_631-13" data-name="Group 631" transform="translate(76 230)">
          <rect id="Rectangle_3130-13" data-name="Rectangle 3130" width="2" height="2" fill="#a4a4a4"/>
        </g>
      </g>
    </g>
  </g>
</svg>
