<svg xmlns="http://www.w3.org/2000/svg" width="21" height="21" viewBox="0 0 21 21">
  <g id="Group_599" data-name="Group 599" transform="translate(-478.5 -153.5)">
    <path id="Path_1955" data-name="Path 1955" d="M32.758,9.383a1.748,1.748,0,0,0,1.217-.495l1.734.868a1.725,1.725,0,0,0-.022.213,1.758,1.758,0,1,0,3.515,0,1.739,1.739,0,0,0-.176-.754l2.353-2.355a1.735,1.735,0,0,0,.753.176,1.76,1.76,0,0,0,1.758-1.759,1.734,1.734,0,0,0-.088-.521l2.044-1.534a1.758,1.758,0,1,0-.785-1.463,1.734,1.734,0,0,0,.088.521L43.1,3.815A1.751,1.751,0,0,0,40.55,6.031L38.2,8.386a1.726,1.726,0,0,0-1.97.318l-1.734-.868a1.724,1.724,0,0,0,.022-.213,1.758,1.758,0,1,0-1.758,1.759Zm0,0" transform="translate(449.212 154)" fill="none" stroke="#676f75" stroke-width="1"/>
    <path id="Path_1956" data-name="Path 1956" d="M19.414,162.964h-.625V150.586A.586.586,0,0,0,18.2,150H15.859a.586.586,0,0,0-.586.586v12.379H14.1V154.1a.586.586,0,0,0-.586-.586H11.172a.586.586,0,0,0-.586.586v8.864H9.414v-4.178a.586.586,0,0,0-.586-.586H6.484a.586.586,0,0,0-.586.586v4.178H4.727v-6.521a.586.586,0,0,0-.586-.586H1.8a.586.586,0,0,0-.586.586v6.521H.586a.586.586,0,1,0,0,1.171H19.414a.586.586,0,1,0,0-1.171Zm0,0" transform="translate(479 9.864)" fill="none" stroke="#676f75" stroke-width="1"/>
  </g>
</svg>
