<svg xmlns="http://www.w3.org/2000/svg" width="17" height="17.972" viewBox="0 0 17 17.972">
  <g id="Group_613" data-name="Group 613" transform="translate(-318 -771.911)">
    <path id="Path_1807" data-name="Path 1807" d="M113.273,4.211l2.174-2.4V12.388a.483.483,0,1,0,.962,0V1.812l2.174,2.4a.45.45,0,0,0,.68,0,.57.57,0,0,0,0-.751L116.267.155a.449.449,0,0,0-.68,0l-2.994,3.305a.571.571,0,0,0,0,.751A.45.45,0,0,0,113.273,4.211Z" transform="translate(210.496 771.911)" fill="#676f75"/>
    <path id="Union_8" data-name="Union 8" d="M.389,7A.389.389,0,0,1,0,6.611S0,6.606,0,6.6,0,6.6,0,6.6V0H.809V6.223H16.19V0H17V6.6S17,6.6,17,6.6s0,.005,0,.008A.389.389,0,0,1,16.611,7Z" transform="translate(318 782.883)" fill="#676f75"/>
  </g>
</svg>
