<svg xmlns="http://www.w3.org/2000/svg" xmlns:xlink="http://www.w3.org/1999/xlink" width="254" height="234" viewBox="0 0 254 234">
  <defs>
    <linearGradient id="linear-gradient" x1="0.5" y1="-0.024" x2="0.5" y2="0.981" gradientUnits="objectBoundingBox">
      <stop offset="0.006" stop-color="#fcc77a"/>
      <stop offset="0.525" stop-color="#f9a262"/>
      <stop offset="1" stop-color="#f67e4a"/>
    </linearGradient>
    <linearGradient id="linear-gradient-2" y1="0.5" x2="1" y2="0.5" gradientUnits="objectBoundingBox">
      <stop offset="0" stop-color="#4d38ff"/>
      <stop offset="1" stop-color="#fd5982"/>
    </linearGradient>
  </defs>
  <g id="Group_680" data-name="Group 680" transform="translate(-657 -870)">
    <rect id="Rectangle_3137" data-name="Rectangle 3137" width="254" height="234" transform="translate(657 870)" fill="#251359"/>
    <g id="Group_679" data-name="Group 679" transform="translate(685.878 886.058)">
      <circle id="Ellipse_1" data-name="Ellipse 1" cx="86.658" cy="86.658" r="86.658" transform="translate(14.689 21.621)" stroke-dasharray="4 3" stroke="#959595" stroke-linecap="round" stroke-linejoin="round" stroke-width="1" fill="none"/>
      <g id="Group_416" data-name="Group 416" transform="translate(0 59.739)">
        <g id="Group_411" data-name="Group 411" transform="translate(8.749 39.061)">
          <g id="Group_408" data-name="Group 408">
            <g id="Group_407" data-name="Group 407" transform="translate(0 0.006)">
              <path id="Path_1591" data-name="Path 1591" d="M26.768,97.992s3.308,3.046,1.661,9.632a13.506,13.506,0,0,0-.658-2.306s-.659,7.576-3.294,9.881c0,0-2.964-3.294-2.964-9.552a4.475,4.475,0,0,0-.988,1.976s-1.624-6.009,1.01-9.632Z" transform="translate(-19.629 -97.859)" fill="#fff"/>
              <path id="Path_1592" data-name="Path 1592" d="M26.762,97.99s3.306,3.046,1.66,9.632a13.506,13.506,0,0,0-.658-2.306s-.659,7.576-3.294,9.88c0,0-2.964-3.293-2.964-9.551a4.489,4.489,0,0,0-.988,1.976s-1.624-6.01,1.01-9.632Z" transform="translate(-19.63 -97.86)" fill="#fffefc"/>
              <path id="Path_1593" data-name="Path 1593" d="M26.755,97.988s3.308,3.045,1.66,9.632a13.367,13.367,0,0,0-.658-2.306s-.658,7.575-3.294,9.88c0,0-2.964-3.294-2.964-9.551a4.489,4.489,0,0,0-.988,1.976s-1.624-6.01,1.01-9.632Z" transform="translate(-19.631 -97.86)" fill="#fffdfa"/>
              <path id="Path_1594" data-name="Path 1594" d="M26.748,97.985s3.308,3.046,1.66,9.632a13.363,13.363,0,0,0-.658-2.3s-.658,7.575-3.294,9.88c0,0-2.964-3.294-2.964-9.552a4.5,4.5,0,0,0-.988,1.976s-1.624-6.009,1.011-9.632Z" transform="translate(-19.632 -97.86)" fill="#fffcf7"/>
              <path id="Path_1595" data-name="Path 1595" d="M26.741,97.983s3.308,3.046,1.661,9.632a13.433,13.433,0,0,0-.659-2.306s-.658,7.576-3.293,9.881c0,0-2.964-3.294-2.964-9.552a4.475,4.475,0,0,0-.988,1.976s-1.626-6.01,1.01-9.632Z" transform="translate(-19.633 -97.861)" fill="#fffbf5"/>
              <path id="Path_1596" data-name="Path 1596" d="M26.734,97.981s3.308,3.046,1.661,9.632a13.506,13.506,0,0,0-.658-2.306s-.659,7.576-3.294,9.88c0,0-2.964-3.293-2.964-9.551a4.475,4.475,0,0,0-.988,1.976s-1.624-6.01,1.01-9.632Z" transform="translate(-19.634 -97.861)" fill="#fffaf2"/>
              <path id="Path_1597" data-name="Path 1597" d="M26.728,97.979s3.306,3.045,1.66,9.632a13.477,13.477,0,0,0-.658-2.306s-.659,7.575-3.294,9.88c0,0-2.964-3.294-2.964-9.551a4.489,4.489,0,0,0-.988,1.976s-1.624-6.01,1.01-9.632Z" transform="translate(-19.636 -97.861)" fill="#fff8ef"/>
              <path id="Path_1598" data-name="Path 1598" d="M26.721,97.976s3.308,3.046,1.66,9.632a13.363,13.363,0,0,0-.658-2.3s-.658,7.575-3.294,9.88c0,0-2.964-3.294-2.964-9.552a4.5,4.5,0,0,0-.988,1.976s-1.624-6.009,1.01-9.632Z" transform="translate(-19.637 -97.862)" fill="#fff7ed"/>
              <path id="Path_1599" data-name="Path 1599" d="M26.714,97.974s3.308,3.046,1.661,9.632a13.432,13.432,0,0,0-.659-2.306s-.658,7.576-3.293,9.881c0,0-2.965-3.294-2.965-9.552a4.489,4.489,0,0,0-.988,1.976s-1.624-6.01,1.011-9.632Z" transform="translate(-19.638 -97.862)" fill="#fff6ea"/>
              <path id="Path_1600" data-name="Path 1600" d="M26.707,97.972s3.308,3.046,1.661,9.632a13.432,13.432,0,0,0-.659-2.306s-.658,7.576-3.293,9.88c0,0-2.964-3.293-2.964-9.551a4.475,4.475,0,0,0-.988,1.976s-1.626-6.01,1.01-9.632Z" transform="translate(-19.639 -97.862)" fill="#fef5e8"/>
              <path id="Path_1601" data-name="Path 1601" d="M26.7,97.97s3.308,3.045,1.661,9.632A13.477,13.477,0,0,0,27.7,105.3s-.659,7.575-3.294,9.88c0,0-2.964-3.294-2.964-9.551a4.489,4.489,0,0,0-.988,1.976s-1.624-6.01,1.01-9.632Z" transform="translate(-19.64 -97.863)" fill="#fef4e5"/>
              <path id="Path_1602" data-name="Path 1602" d="M26.694,97.967s3.306,3.046,1.66,9.632a13.473,13.473,0,0,0-.658-2.3s-.659,7.575-3.294,9.88c0,0-2.964-3.294-2.964-9.552a4.5,4.5,0,0,0-.988,1.976s-1.624-6.009,1.01-9.632Z" transform="translate(-19.641 -97.863)" fill="#fef3e2"/>
              <path id="Path_1603" data-name="Path 1603" d="M26.687,97.965s3.308,3.046,1.66,9.632a13.4,13.4,0,0,0-.658-2.306s-.658,7.576-3.294,9.881c0,0-2.964-3.294-2.964-9.552a4.489,4.489,0,0,0-.988,1.976s-1.624-6.01,1.01-9.632Z" transform="translate(-19.642 -97.864)" fill="#fef2e0"/>
              <path id="Path_1604" data-name="Path 1604" d="M26.68,97.963s3.308,3.045,1.661,9.632a13.432,13.432,0,0,0-.659-2.306s-.658,7.576-3.293,9.88c0,0-2.965-3.293-2.965-9.551a4.489,4.489,0,0,0-.988,1.976s-1.624-6.01,1.011-9.632Z" transform="translate(-19.643 -97.864)" fill="#fef1dd"/>
              <path id="Path_1605" data-name="Path 1605" d="M26.673,97.961s3.308,3.045,1.661,9.632a13.4,13.4,0,0,0-.659-2.306s-.658,7.575-3.293,9.88c0,0-2.964-3.294-2.964-9.551a4.475,4.475,0,0,0-.988,1.976s-1.626-6.01,1.01-9.632Z" transform="translate(-19.644 -97.864)" fill="#fef0da"/>
              <path id="Path_1606" data-name="Path 1606" d="M26.666,97.958s3.308,3.046,1.661,9.632a13.473,13.473,0,0,0-.658-2.3s-.659,7.575-3.294,9.88c0,0-2.964-3.294-2.964-9.552a4.5,4.5,0,0,0-.988,1.976s-1.624-6.009,1.01-9.632Z" transform="translate(-19.645 -97.865)" fill="#feefd8"/>
              <path id="Path_1607" data-name="Path 1607" d="M26.66,97.956s3.306,3.046,1.66,9.632a13.506,13.506,0,0,0-.658-2.306s-.659,7.576-3.294,9.881c0,0-2.964-3.294-2.964-9.552a4.489,4.489,0,0,0-.988,1.976s-1.624-6.01,1.01-9.632Z" transform="translate(-19.646 -97.865)" fill="#feedd5"/>
              <path id="Path_1608" data-name="Path 1608" d="M26.653,97.954s3.308,3.045,1.66,9.632a13.4,13.4,0,0,0-.658-2.306s-.658,7.576-3.294,9.88c0,0-2.964-3.293-2.964-9.551a4.489,4.489,0,0,0-.988,1.976s-1.624-6.01,1.01-9.632Z" transform="translate(-19.647 -97.865)" fill="#feecd3"/>
              <path id="Path_1609" data-name="Path 1609" d="M26.646,97.952s3.308,3.045,1.661,9.632a13.4,13.4,0,0,0-.659-2.306s-.658,7.575-3.293,9.88c0,0-2.965-3.294-2.965-9.551a4.489,4.489,0,0,0-.988,1.976s-1.624-6.01,1.011-9.632Z" transform="translate(-19.648 -97.866)" fill="#feebd0"/>
              <path id="Path_1610" data-name="Path 1610" d="M26.639,97.949s3.308,3.046,1.661,9.632a13.4,13.4,0,0,0-.659-2.3s-.658,7.575-3.293,9.88c0,0-2.964-3.294-2.964-9.552a4.484,4.484,0,0,0-.988,1.976s-1.626-6.009,1.01-9.632Z" transform="translate(-19.649 -97.866)" fill="#feeacd"/>
              <path id="Path_1611" data-name="Path 1611" d="M26.632,97.947s3.308,3.046,1.661,9.632a13.506,13.506,0,0,0-.658-2.306s-.659,7.576-3.294,9.881c0,0-2.964-3.294-2.964-9.552a4.489,4.489,0,0,0-.988,1.976s-1.624-6.01,1.01-9.632Z" transform="translate(-19.65 -97.866)" fill="#fee9cb"/>
              <path id="Path_1612" data-name="Path 1612" d="M26.626,97.945s3.306,3.045,1.66,9.632a13.506,13.506,0,0,0-.658-2.306s-.659,7.576-3.294,9.88c0,0-2.964-3.293-2.964-9.551a4.489,4.489,0,0,0-.988,1.976s-1.624-6.01,1.01-9.632Z" transform="translate(-19.651 -97.867)" fill="#fee8c8"/>
              <path id="Path_1613" data-name="Path 1613" d="M26.619,97.942s3.308,3.046,1.66,9.634a13.367,13.367,0,0,0-.658-2.306s-.658,7.575-3.294,9.88c0,0-2.964-3.294-2.964-9.551a4.489,4.489,0,0,0-.988,1.976s-1.624-6.01,1.01-9.634Z" transform="translate(-19.652 -97.867)" fill="#fee7c6"/>
              <path id="Path_1614" data-name="Path 1614" d="M26.612,97.94s3.308,3.046,1.661,9.632a13.4,13.4,0,0,0-.659-2.3s-.658,7.575-3.293,9.88c0,0-2.965-3.294-2.965-9.552a4.5,4.5,0,0,0-.988,1.976s-1.624-6.009,1.011-9.632Z" transform="translate(-19.653 -97.867)" fill="#fee6c3"/>
              <path id="Path_1615" data-name="Path 1615" d="M26.6,97.938s3.308,3.046,1.661,9.632a13.433,13.433,0,0,0-.659-2.306s-.658,7.576-3.293,9.88c0,0-2.964-3.293-2.964-9.551a4.475,4.475,0,0,0-.988,1.976s-1.626-6.01,1.01-9.632Z" transform="translate(-19.654 -97.868)" fill="#fee5c0"/>
              <path id="Path_1616" data-name="Path 1616" d="M26.6,97.936s3.308,3.045,1.661,9.632a13.477,13.477,0,0,0-.658-2.306s-.659,7.576-3.294,9.88c0,0-2.964-3.293-2.964-9.551a4.489,4.489,0,0,0-.988,1.976s-1.624-6.01,1.01-9.632Z" transform="translate(-19.655 -97.868)" fill="#fee4be"/>
              <path id="Path_1617" data-name="Path 1617" d="M26.592,97.933s3.306,3.046,1.66,9.634a13.477,13.477,0,0,0-.658-2.306s-.659,7.575-3.294,9.88c0,0-2.964-3.294-2.964-9.551a4.489,4.489,0,0,0-.988,1.976s-1.624-6.01,1.01-9.634Z" transform="translate(-19.656 -97.868)" fill="#fde2bb"/>
              <path id="Path_1618" data-name="Path 1618" d="M26.585,97.931s3.308,3.046,1.66,9.632a13.363,13.363,0,0,0-.658-2.3s-.658,7.575-3.294,9.88c0,0-2.964-3.294-2.964-9.552a4.5,4.5,0,0,0-.988,1.976s-1.624-6.009,1.01-9.632Z" transform="translate(-19.657 -97.869)" fill="#fde1b9"/>
              <path id="Path_1619" data-name="Path 1619" d="M26.578,97.929s3.308,3.046,1.661,9.632a13.433,13.433,0,0,0-.659-2.306s-.658,7.576-3.293,9.88c0,0-2.965-3.293-2.965-9.551a4.489,4.489,0,0,0-.988,1.976s-1.624-6.01,1.011-9.632Z" transform="translate(-19.658 -97.869)" fill="#fde0b6"/>
              <path id="Path_1620" data-name="Path 1620" d="M26.571,97.927s3.308,3.045,1.661,9.632a13.4,13.4,0,0,0-.659-2.306s-.658,7.576-3.293,9.88c0,0-2.964-3.293-2.964-9.551a4.475,4.475,0,0,0-.988,1.976s-1.626-6.01,1.01-9.632Z" transform="translate(-19.659 -97.869)" fill="#fddfb3"/>
              <path id="Path_1621" data-name="Path 1621" d="M26.564,97.924s3.308,3.046,1.661,9.634a13.476,13.476,0,0,0-.658-2.306s-.659,7.574-3.294,9.88c0,0-2.964-3.294-2.964-9.551a4.489,4.489,0,0,0-.988,1.976s-1.624-6.01,1.01-9.634Z" transform="translate(-19.66 -97.87)" fill="#fddeb1"/>
              <path id="Path_1622" data-name="Path 1622" d="M26.558,97.922s3.306,3.046,1.66,9.632a13.473,13.473,0,0,0-.658-2.3s-.659,7.575-3.294,9.88c0,0-2.964-3.294-2.964-9.552a4.5,4.5,0,0,0-.988,1.976s-1.624-6.009,1.01-9.632Z" transform="translate(-19.662 -97.87)" fill="#fdddae"/>
              <path id="Path_1623" data-name="Path 1623" d="M26.551,97.92s3.308,3.046,1.66,9.632a13.4,13.4,0,0,0-.658-2.306s-.658,7.576-3.294,9.88c0,0-2.964-3.293-2.964-9.551a4.489,4.489,0,0,0-.988,1.976s-1.624-6.01,1.01-9.632Z" transform="translate(-19.663 -97.87)" fill="#fddcac"/>
              <path id="Path_1624" data-name="Path 1624" d="M26.544,97.918s3.308,3.045,1.661,9.632a13.4,13.4,0,0,0-.659-2.306s-.658,7.575-3.293,9.88c0,0-2.965-3.294-2.965-9.551a4.489,4.489,0,0,0-.988,1.976s-1.624-6.01,1.011-9.632Z" transform="translate(-19.664 -97.871)" fill="#fddba9"/>
              <path id="Path_1625" data-name="Path 1625" d="M26.537,97.915s3.308,3.046,1.661,9.634a13.4,13.4,0,0,0-.659-2.306s-.658,7.575-3.293,9.88c0,0-2.964-3.294-2.964-9.551a4.475,4.475,0,0,0-.988,1.976s-1.626-6.01,1.01-9.634Z" transform="translate(-19.665 -97.871)" fill="#fddaa6"/>
              <path id="Path_1626" data-name="Path 1626" d="M26.53,97.913s3.308,3.046,1.661,9.632a13.473,13.473,0,0,0-.658-2.3s-.659,7.575-3.294,9.88c0,0-2.964-3.294-2.964-9.552a4.5,4.5,0,0,0-.988,1.976s-1.624-6.009,1.01-9.632Z" transform="translate(-19.666 -97.871)" fill="#fdd9a4"/>
              <path id="Path_1627" data-name="Path 1627" d="M26.524,97.911s3.306,3.046,1.66,9.632a13.506,13.506,0,0,0-.658-2.306s-.659,7.576-3.294,9.88c0,0-2.964-3.293-2.964-9.551a4.489,4.489,0,0,0-.988,1.976s-1.624-6.01,1.01-9.632Z" transform="translate(-19.667 -97.872)" fill="#fdd7a1"/>
              <path id="Path_1628" data-name="Path 1628" d="M26.517,97.909s3.308,3.045,1.66,9.632a13.367,13.367,0,0,0-.658-2.306s-.658,7.575-3.294,9.88c0,0-2.964-3.294-2.964-9.551a4.489,4.489,0,0,0-.988,1.976s-1.624-6.01,1.01-9.632Z" transform="translate(-19.668 -97.872)" fill="#fdd69f"/>
              <path id="Path_1629" data-name="Path 1629" d="M26.51,97.906s3.308,3.046,1.661,9.634a13.4,13.4,0,0,0-.659-2.306s-.658,7.575-3.293,9.88c0,0-2.965-3.294-2.965-9.551a4.489,4.489,0,0,0-.988,1.976s-1.624-6.01,1.011-9.634Z" transform="translate(-19.669 -97.873)" fill="#fdd59c"/>
              <path id="Path_1630" data-name="Path 1630" d="M26.5,97.9s3.308,3.046,1.661,9.632a13.4,13.4,0,0,0-.659-2.3s-.658,7.575-3.293,9.88c0,0-2.964-3.294-2.964-9.552a4.484,4.484,0,0,0-.988,1.976s-1.626-6.009,1.01-9.632Z" transform="translate(-19.67 -97.873)" fill="#fdd499"/>
              <path id="Path_1631" data-name="Path 1631" d="M26.5,97.9s3.308,3.046,1.661,9.632a13.506,13.506,0,0,0-.658-2.306s-.659,7.576-3.294,9.88c0,0-2.964-3.293-2.964-9.551a4.489,4.489,0,0,0-.988,1.976s-1.624-6.01,1.01-9.632Z" transform="translate(-19.671 -97.873)" fill="#fdd397"/>
              <path id="Path_1632" data-name="Path 1632" d="M26.49,97.9s3.306,3.045,1.66,9.632a13.477,13.477,0,0,0-.658-2.306s-.659,7.575-3.294,9.88c0,0-2.964-3.294-2.964-9.551a4.489,4.489,0,0,0-.988,1.976s-1.624-6.01,1.01-9.632Z" transform="translate(-19.672 -97.873)" fill="#fdd294"/>
              <path id="Path_1633" data-name="Path 1633" d="M26.483,97.9s3.308,3.046,1.66,9.632a13.363,13.363,0,0,0-.658-2.3s-.658,7.575-3.294,9.88c0,0-2.964-3.294-2.964-9.552a4.5,4.5,0,0,0-.988,1.976s-1.624-6.009,1.01-9.632Z" transform="translate(-19.673 -97.874)" fill="#fdd191"/>
              <path id="Path_1634" data-name="Path 1634" d="M26.476,97.895s3.308,3.046,1.661,9.632a13.4,13.4,0,0,0-.659-2.3s-.658,7.575-3.293,9.88c0,0-2.965-3.294-2.965-9.552a4.5,4.5,0,0,0-.988,1.976s-1.624-6.009,1.011-9.632Z" transform="translate(-19.674 -97.874)" fill="#fcd08f"/>
              <path id="Path_1635" data-name="Path 1635" d="M26.469,97.893s3.308,3.046,1.661,9.632a13.432,13.432,0,0,0-.659-2.306s-.658,7.576-3.293,9.88c0,0-2.964-3.293-2.964-9.551a4.475,4.475,0,0,0-.988,1.976s-1.626-6.01,1.01-9.632Z" transform="translate(-19.675 -97.875)" fill="#fccf8c"/>
              <path id="Path_1636" data-name="Path 1636" d="M26.462,97.891s3.308,3.045,1.661,9.632a13.477,13.477,0,0,0-.658-2.306s-.659,7.575-3.294,9.88c0,0-2.964-3.294-2.964-9.551a4.489,4.489,0,0,0-.988,1.976s-1.624-6.01,1.01-9.632Z" transform="translate(-19.676 -97.875)" fill="#fcce8a"/>
              <path id="Path_1637" data-name="Path 1637" d="M26.456,97.888s3.306,3.046,1.66,9.632a13.473,13.473,0,0,0-.658-2.3s-.659,7.575-3.294,9.88c0,0-2.964-3.294-2.964-9.552a4.5,4.5,0,0,0-.988,1.976s-1.624-6.009,1.01-9.632Z" transform="translate(-19.677 -97.875)" fill="#fccc87"/>
              <path id="Path_1638" data-name="Path 1638" d="M26.449,97.886s3.308,3.046,1.66,9.632a13.363,13.363,0,0,0-.658-2.3s-.658,7.574-3.294,9.88c0,0-2.964-3.294-2.964-9.552a4.5,4.5,0,0,0-.988,1.976s-1.624-6.009,1.01-9.632Z" transform="translate(-19.678 -97.876)" fill="#fccb84"/>
              <path id="Path_1639" data-name="Path 1639" d="M26.442,97.884s3.308,3.046,1.661,9.632a13.432,13.432,0,0,0-.659-2.306s-.658,7.576-3.293,9.88c0,0-2.965-3.293-2.965-9.551a4.489,4.489,0,0,0-.988,1.976s-1.624-6.01,1.011-9.632Z" transform="translate(-19.679 -97.876)" fill="#fcca82"/>
              <path id="Path_1640" data-name="Path 1640" d="M26.435,97.882s3.308,3.045,1.661,9.632a13.4,13.4,0,0,0-.659-2.306s-.658,7.575-3.293,9.88c0,0-2.964-3.294-2.964-9.551a4.475,4.475,0,0,0-.988,1.976s-1.626-6.01,1.01-9.632Z" transform="translate(-19.68 -97.876)" fill="#fcc97f"/>
              <path id="Path_1641" data-name="Path 1641" d="M26.428,97.879s3.308,3.046,1.661,9.632a13.473,13.473,0,0,0-.658-2.3s-.659,7.575-3.294,9.88c0,0-2.964-3.294-2.964-9.552a4.5,4.5,0,0,0-.988,1.976s-1.624-6.009,1.01-9.632Z" transform="translate(-19.681 -97.877)" fill="#fcc87d"/>
              <path id="Path_1642" data-name="Path 1642" d="M26.422,97.877s3.306,3.046,1.66,9.632a13.473,13.473,0,0,0-.658-2.3s-.659,7.575-3.294,9.88c0,0-2.964-3.294-2.964-9.552a4.5,4.5,0,0,0-.988,1.976s-1.624-6.009,1.01-9.632Z" transform="translate(-19.682 -97.877)" fill="#fcc77a"/>
            </g>
            <path id="Path_1643" data-name="Path 1643" d="M26.422,97.872s3.306,3.046,1.66,9.632a13.473,13.473,0,0,0-.658-2.3s-.659,7.574-3.294,9.88c0,0-2.964-3.294-2.964-9.552a4.5,4.5,0,0,0-.988,1.976s-1.624-6.01,1.01-9.632Z" transform="translate(-19.682 -97.872)" fill="url(#linear-gradient)"/>
          </g>
          <g id="Group_410" data-name="Group 410" transform="translate(2.327)">
            <g id="Group_409" data-name="Group 409" transform="translate(0 0.003)">
              <path id="Path_1644" data-name="Path 1644" d="M25.05,98.01s2.534,6.936-.824,11.257a13.627,13.627,0,0,1-1.46-11.28Z" transform="translate(-21.639 -97.858)" fill="#fff"/>
              <path id="Path_1645" data-name="Path 1645" d="M25.042,98.008s2.534,6.935-.824,11.256a13.625,13.625,0,0,1-1.46-11.279Z" transform="translate(-21.64 -97.858)" fill="#fffefd"/>
              <path id="Path_1646" data-name="Path 1646" d="M25.034,98s2.534,6.936-.823,11.257A13.623,13.623,0,0,1,22.75,97.983Z" transform="translate(-21.642 -97.858)" fill="#fffefb"/>
              <path id="Path_1647" data-name="Path 1647" d="M25.025,98s2.534,6.936-.823,11.257a13.63,13.63,0,0,1-1.461-11.28Z" transform="translate(-21.643 -97.859)" fill="#fefdfa"/>
              <path id="Path_1648" data-name="Path 1648" d="M25.017,98s2.534,6.936-.823,11.257a13.63,13.63,0,0,1-1.461-11.28Z" transform="translate(-21.644 -97.859)" fill="#fefdf8"/>
              <path id="Path_1649" data-name="Path 1649" d="M25.009,98s2.534,6.936-.823,11.256a13.627,13.627,0,0,1-1.461-11.279Z" transform="translate(-21.645 -97.86)" fill="#fefcf6"/>
              <path id="Path_1650" data-name="Path 1650" d="M25,98s2.534,6.935-.823,11.256a13.625,13.625,0,0,1-1.46-11.279Z" transform="translate(-21.646 -97.86)" fill="#fefbf4"/>
              <path id="Path_1651" data-name="Path 1651" d="M24.995,97.994s2.533,6.936-.824,11.257a13.625,13.625,0,0,1-1.46-11.279Z" transform="translate(-21.648 -97.86)" fill="#fdfbf2"/>
              <path id="Path_1652" data-name="Path 1652" d="M24.987,97.992s2.534,6.936-.824,11.257a13.627,13.627,0,0,1-1.46-11.28Z" transform="translate(-21.649 -97.861)" fill="#fdfaf0"/>
              <path id="Path_1653" data-name="Path 1653" d="M24.979,97.99s2.534,6.936-.824,11.257a13.627,13.627,0,0,1-1.46-11.28Z" transform="translate(-21.65 -97.861)" fill="#fdfaef"/>
              <path id="Path_1654" data-name="Path 1654" d="M24.971,97.988s2.534,6.936-.824,11.256a13.624,13.624,0,0,1-1.46-11.279Z" transform="translate(-21.651 -97.861)" fill="#fdf9ed"/>
              <path id="Path_1655" data-name="Path 1655" d="M24.963,97.986s2.534,6.935-.824,11.256a13.625,13.625,0,0,1-1.46-11.279Z" transform="translate(-21.652 -97.862)" fill="#fdf8eb"/>
              <path id="Path_1656" data-name="Path 1656" d="M24.955,97.983s2.534,6.936-.824,11.257a13.625,13.625,0,0,1-1.46-11.279Z" transform="translate(-21.654 -97.862)" fill="#fcf8e9"/>
              <path id="Path_1657" data-name="Path 1657" d="M24.947,97.981s2.534,6.936-.824,11.257a13.627,13.627,0,0,1-1.46-11.28Z" transform="translate(-21.655 -97.862)" fill="#fcf7e7"/>
              <path id="Path_1658" data-name="Path 1658" d="M24.939,97.979s2.534,6.936-.823,11.257a13.625,13.625,0,0,1-1.461-11.28Z" transform="translate(-21.656 -97.863)" fill="#fcf6e5"/>
              <path id="Path_1659" data-name="Path 1659" d="M24.931,97.977s2.534,6.936-.823,11.256a13.622,13.622,0,0,1-1.461-11.279Z" transform="translate(-21.657 -97.863)" fill="#fcf6e4"/>
              <path id="Path_1660" data-name="Path 1660" d="M24.922,97.975s2.534,6.935-.823,11.256a13.628,13.628,0,0,1-1.461-11.279Z" transform="translate(-21.658 -97.863)" fill="#fcf5e2"/>
              <path id="Path_1661" data-name="Path 1661" d="M24.914,97.972s2.534,6.936-.823,11.257A13.628,13.628,0,0,1,22.631,97.95Z" transform="translate(-21.66 -97.864)" fill="#fbf5e0"/>
              <path id="Path_1662" data-name="Path 1662" d="M24.906,97.97s2.534,6.936-.823,11.257a13.627,13.627,0,0,1-1.46-11.28Z" transform="translate(-21.661 -97.864)" fill="#fbf4de"/>
              <path id="Path_1663" data-name="Path 1663" d="M24.9,97.968s2.533,6.936-.824,11.257a13.627,13.627,0,0,1-1.46-11.28Z" transform="translate(-21.662 -97.864)" fill="#fbf3dc"/>
              <path id="Path_1664" data-name="Path 1664" d="M24.892,97.966s2.534,6.936-.824,11.256a13.624,13.624,0,0,1-1.46-11.279Z" transform="translate(-21.663 -97.865)" fill="#fbf3db"/>
              <path id="Path_1665" data-name="Path 1665" d="M24.884,97.964s2.534,6.935-.824,11.256A13.625,13.625,0,0,1,22.6,97.941Z" transform="translate(-21.664 -97.865)" fill="#faf2d9"/>
              <path id="Path_1666" data-name="Path 1666" d="M24.876,97.961s2.534,6.936-.824,11.257a13.625,13.625,0,0,1-1.46-11.279Z" transform="translate(-21.666 -97.865)" fill="#faf2d7"/>
              <path id="Path_1667" data-name="Path 1667" d="M24.868,97.959s2.534,6.936-.824,11.257a13.627,13.627,0,0,1-1.46-11.28Z" transform="translate(-21.667 -97.866)" fill="#faf1d5"/>
              <path id="Path_1668" data-name="Path 1668" d="M24.86,97.957s2.534,6.936-.824,11.257a13.627,13.627,0,0,1-1.46-11.28Z" transform="translate(-21.668 -97.866)" fill="#faf0d3"/>
              <path id="Path_1669" data-name="Path 1669" d="M24.852,97.955s2.534,6.936-.824,11.256a13.624,13.624,0,0,1-1.46-11.279Z" transform="translate(-21.669 -97.866)" fill="#faf0d1"/>
              <path id="Path_1670" data-name="Path 1670" d="M24.844,97.953s2.534,6.936-.823,11.256A13.623,13.623,0,0,1,22.56,97.93Z" transform="translate(-21.671 -97.867)" fill="#f9efd0"/>
              <path id="Path_1671" data-name="Path 1671" d="M24.836,97.95s2.534,6.936-.823,11.257a13.623,13.623,0,0,1-1.461-11.279Z" transform="translate(-21.672 -97.867)" fill="#f9efce"/>
              <path id="Path_1672" data-name="Path 1672" d="M24.827,97.948S27.362,104.884,24,109.2a13.628,13.628,0,0,1-1.461-11.279Z" transform="translate(-21.673 -97.867)" fill="#f9eecc"/>
              <path id="Path_1673" data-name="Path 1673" d="M24.819,97.946S27.354,104.882,24,109.2a13.63,13.63,0,0,1-1.461-11.28Z" transform="translate(-21.674 -97.868)" fill="#f9edca"/>
              <path id="Path_1674" data-name="Path 1674" d="M24.811,97.944s2.534,6.936-.823,11.257a13.63,13.63,0,0,1-1.461-11.28Z" transform="translate(-21.675 -97.868)" fill="#f9edc8"/>
              <path id="Path_1675" data-name="Path 1675" d="M24.8,97.942s2.533,6.936-.824,11.256a13.625,13.625,0,0,1-1.46-11.279Z" transform="translate(-21.677 -97.868)" fill="#f8ecc6"/>
              <path id="Path_1676" data-name="Path 1676" d="M24.8,97.939s2.534,6.936-.824,11.257a13.625,13.625,0,0,1-1.46-11.279Z" transform="translate(-21.678 -97.869)" fill="#f8ecc5"/>
              <path id="Path_1677" data-name="Path 1677" d="M24.789,97.937s2.534,6.936-.824,11.257A13.625,13.625,0,0,1,22.5,97.915Z" transform="translate(-21.679 -97.869)" fill="#f8ebc3"/>
              <path id="Path_1678" data-name="Path 1678" d="M24.781,97.935s2.534,6.936-.824,11.257a13.627,13.627,0,0,1-1.46-11.28Z" transform="translate(-21.68 -97.869)" fill="#f8eac1"/>
              <path id="Path_1679" data-name="Path 1679" d="M24.773,97.933s2.534,6.936-.824,11.257a13.627,13.627,0,0,1-1.46-11.28Z" transform="translate(-21.681 -97.87)" fill="#f7eabf"/>
              <path id="Path_1680" data-name="Path 1680" d="M24.765,97.931s2.534,6.936-.824,11.256a13.625,13.625,0,0,1-1.46-11.279Z" transform="translate(-21.683 -97.87)" fill="#f7e9bd"/>
              <path id="Path_1681" data-name="Path 1681" d="M24.757,97.928s2.534,6.936-.824,11.257a13.625,13.625,0,0,1-1.46-11.279Z" transform="translate(-21.684 -97.87)" fill="#f7e9bc"/>
              <path id="Path_1682" data-name="Path 1682" d="M24.749,97.926s2.534,6.936-.823,11.257A13.623,13.623,0,0,1,22.465,97.9Z" transform="translate(-21.685 -97.871)" fill="#f7e8ba"/>
              <path id="Path_1683" data-name="Path 1683" d="M24.741,97.924s2.534,6.936-.823,11.257A13.625,13.625,0,0,1,22.457,97.9Z" transform="translate(-21.686 -97.871)" fill="#f7e7b8"/>
              <path id="Path_1684" data-name="Path 1684" d="M24.732,97.922s2.534,6.936-.823,11.257A13.63,13.63,0,0,1,22.449,97.9Z" transform="translate(-21.687 -97.871)" fill="#f6e7b6"/>
              <path id="Path_1685" data-name="Path 1685" d="M24.724,97.92s2.534,6.936-.823,11.256A13.628,13.628,0,0,1,22.441,97.9Z" transform="translate(-21.689 -97.872)" fill="#f6e6b4"/>
              <path id="Path_1686" data-name="Path 1686" d="M24.716,97.917s2.534,6.936-.823,11.257a13.628,13.628,0,0,1-1.461-11.279Z" transform="translate(-21.69 -97.872)" fill="#f6e5b2"/>
              <path id="Path_1687" data-name="Path 1687" d="M24.71,97.915s2.533,6.936-.824,11.257a13.625,13.625,0,0,1-1.46-11.279Z" transform="translate(-21.691 -97.872)" fill="#f6e5b1"/>
              <path id="Path_1688" data-name="Path 1688" d="M24.7,97.913s2.534,6.936-.824,11.257a13.627,13.627,0,0,1-1.46-11.28Z" transform="translate(-21.692 -97.873)" fill="#f6e4af"/>
              <path id="Path_1689" data-name="Path 1689" d="M24.694,97.911s2.534,6.936-.824,11.257a13.627,13.627,0,0,1-1.46-11.28Z" transform="translate(-21.694 -97.873)" fill="#f5e4ad"/>
              <path id="Path_1690" data-name="Path 1690" d="M24.686,97.909s2.534,6.936-.824,11.256A13.625,13.625,0,0,1,22.4,97.886Z" transform="translate(-21.695 -97.873)" fill="#f5e3ab"/>
              <path id="Path_1691" data-name="Path 1691" d="M24.678,97.906s2.534,6.936-.824,11.257a13.625,13.625,0,0,1-1.46-11.279Z" transform="translate(-21.696 -97.874)" fill="#f5e2a9"/>
              <path id="Path_1692" data-name="Path 1692" d="M24.67,97.9s2.534,6.936-.824,11.257a13.625,13.625,0,0,1-1.46-11.279Z" transform="translate(-21.697 -97.874)" fill="#f5e2a7"/>
              <path id="Path_1693" data-name="Path 1693" d="M24.662,97.9s2.534,6.936-.824,11.257a13.627,13.627,0,0,1-1.46-11.28Z" transform="translate(-21.698 -97.874)" fill="#f4e1a6"/>
              <path id="Path_1694" data-name="Path 1694" d="M24.654,97.9s2.534,6.936-.823,11.257a13.625,13.625,0,0,1-1.461-11.28Z" transform="translate(-21.7 -97.875)" fill="#f4e1a4"/>
              <path id="Path_1695" data-name="Path 1695" d="M24.646,97.9s2.534,6.935-.823,11.256a13.623,13.623,0,0,1-1.461-11.279Z" transform="translate(-21.701 -97.875)" fill="#f4e0a2"/>
            </g>
            <path id="Path_1696" data-name="Path 1696" d="M24.646,97.9s2.534,6.936-.824,11.257a13.627,13.627,0,0,1-1.46-11.28Z" transform="translate(-21.701 -97.872)" fill="#feecac"/>
          </g>
        </g>
        <path id="Path_1697" data-name="Path 1697" d="M35.3,96.491a12.573,12.573,0,0,0-5.6-7.11l-.193-.113-2.331,7.813.151.058a12.664,12.664,0,0,1,4.65,3.091,12.508,12.508,0,0,1,2.656,4.251l.16.429.166-.427A12.444,12.444,0,0,0,35.3,96.491Z" transform="translate(-9.787 -60.126)" fill="#ad2f33"/>
        <path id="Path_1698" data-name="Path 1698" d="M18.2,89.381a12.569,12.569,0,0,0-5.6,7.11,12.433,12.433,0,0,0,.341,7.992l.166.427.16-.429a12.519,12.519,0,0,1,2.656-4.251,12.664,12.664,0,0,1,4.65-3.091l.151-.058-2.331-7.813Z" transform="translate(-12.093 -60.126)" fill="#e7302a"/>
        <path id="Path_1699" data-name="Path 1699" d="M20.145,95.652v4.471a7.75,7.75,0,0,1,7.452,0V95.652Z" transform="translate(-10.862 -59.15)" fill="#043146"/>
        <path id="Path_1700" data-name="Path 1700" d="M29.817,104.376a12.641,12.641,0,0,0-5.284-1.216,12.637,12.637,0,0,0-5.281,1.216c-2.024-3.919-4.321-11.75-3.1-23.5a29.427,29.427,0,0,1,.987-5.134c.077-.279.163-.55.244-.816,2.431-7.554,7.155-10.934,7.155-10.934s4.722,3.38,7.154,10.929c.085.267.171.542.248.821a29.423,29.423,0,0,1,.988,5.134C34.138,92.625,31.842,100.457,29.817,104.376Z" transform="translate(-11.525 -63.991)" fill="#fff"/>
        <path id="Path_1701" data-name="Path 1701" d="M28.661,104.376a12.643,12.643,0,0,0-5.285-1.216V63.991s4.723,3.38,7.155,10.929c.084.267.169.542.248.821a29.426,29.426,0,0,1,.987,5.134C32.981,92.625,30.685,100.457,28.661,104.376Z" transform="translate(-10.368 -63.991)" fill="#d8d6d7"/>
        <path id="Path_1702" data-name="Path 1702" d="M23.819,78.38a3.339,3.339,0,1,1-3.338,3.341A3.34,3.34,0,0,1,23.819,78.38Z" transform="translate(-10.811 -61.791)" fill="#2fc9d5"/>
        <g id="Group_412" data-name="Group 412" transform="translate(9.283 16.202)">
          <path id="Path_1703" data-name="Path 1703" d="M23.87,85.5A3.726,3.726,0,1,1,27.6,81.772,3.728,3.728,0,0,1,23.87,85.5Zm0-6.678a2.952,2.952,0,1,0,2.954,2.954A2.955,2.955,0,0,0,23.87,78.819Z" transform="translate(-20.145 -78.044)" fill="#043146"/>
        </g>
        <g id="Group_413" data-name="Group 413" transform="translate(11.489 30.198)">
          <path id="Path_1704" data-name="Path 1704" d="M23.705,90.467l-.127-.282-.126.282a18.091,18.091,0,0,0,0,13.927l.126.282.127-.282a18.105,18.105,0,0,0,0-13.927Z" transform="translate(-22.059 -90.184)" fill="#e7302a"/>
          <path id="Path_1705" data-name="Path 1705" d="M24.9,97.431a19.078,19.078,0,0,1-1.4,6.962l-.123.282V90.184l.123.285A19.086,19.086,0,0,1,24.9,97.431Z" transform="translate(-21.857 -90.184)" fill="#bc2921"/>
        </g>
        <g id="Group_415" data-name="Group 415" transform="translate(5.609)">
          <path id="Path_1706" data-name="Path 1706" d="M31.759,75.741a47,47,0,0,0-14.8,0c.077-.279.163-.55.244-.816,2.431-7.554,7.154-10.934,7.154-10.934s4.723,3.38,7.155,10.929C31.6,75.188,31.682,75.462,31.759,75.741Z" transform="translate(-16.958 -63.991)" fill="#e7302a"/>
          <path id="Path_1707" data-name="Path 1707" d="M30.779,75.741a46.927,46.927,0,0,0-7.4-.588V63.991s4.723,3.38,7.155,10.929C30.615,75.188,30.7,75.462,30.779,75.741Z" transform="translate(-15.977 -63.991)" fill="#bc2921"/>
          <g id="Group_414" data-name="Group 414" transform="translate(0 10.39)">
            <path id="Path_1708" data-name="Path 1708" d="M31.759,74.363a47,47,0,0,0-14.8,0c.077-.279.163-.55.244-.816a47.551,47.551,0,0,1,14.309,0C31.6,73.81,31.682,74.084,31.759,74.363Z" transform="translate(-16.958 -73.004)" fill="#043146"/>
          </g>
        </g>
      </g>
      <g id="Group_444" data-name="Group 444" transform="translate(168.059 124.428)">
        <g id="Group_422" data-name="Group 422" transform="translate(6.426)">
          <g id="Group_420" data-name="Group 420">
            <g id="Group_417" data-name="Group 417" transform="translate(0.112 0.112)">
              <path id="Path_1709" data-name="Path 1709" d="M177.711,123.448a.257.257,0,0,1,.136.339l-6.258,14.644a.255.255,0,0,1-.339.135l-7.56-3.229a.257.257,0,0,1-.134-.337l6.258-14.648a.257.257,0,0,1,.337-.134Z" transform="translate(-163.536 -120.198)" fill="#009f52"/>
            </g>
            <g id="Group_419" data-name="Group 419">
              <g id="Group_418" data-name="Group 418">
                <path id="Path_1710" data-name="Path 1710" d="M171.529,138.679a.367.367,0,0,1-.308,0l-7.56-3.229a.371.371,0,0,1-.194-.483l6.259-14.648a.364.364,0,0,1,.2-.2.368.368,0,0,1,.28,0l7.558,3.229a.368.368,0,0,1,.194.487l-6.257,14.643A.375.375,0,0,1,171.529,138.679Zm-1.6-18.268-6.258,14.648a.144.144,0,0,0,.075.19l7.559,3.229a.145.145,0,0,0,.193-.076l6.258-14.644a.143.143,0,0,0,0-.113.14.14,0,0,0-.077-.078l-7.561-3.23a.144.144,0,0,0-.19.076Z" transform="translate(-163.439 -120.101)" fill="#01763c"/>
              </g>
            </g>
          </g>
          <g id="Group_421" data-name="Group 421" transform="translate(1.965 2.1)">
            <path id="Path_1711" data-name="Path 1711" d="M170.955,122.079a.771.771,0,0,1-1.011.406.257.257,0,0,0-.338.135l-4.442,10.394a.257.257,0,0,0,.136.337.772.772,0,0,1,.406,1.012.256.256,0,0,0,.135.337l3.78,1.615a.256.256,0,0,0,.337-.135.771.771,0,0,1,1.011-.406.257.257,0,0,0,.338-.136l4.442-10.393a.259.259,0,0,0-.136-.338.77.77,0,0,1-.406-1.011.256.256,0,0,0-.135-.337l-3.78-1.615A.256.256,0,0,0,170.955,122.079Zm.309,5.16c1.433.612,2.237,1.959,1.79,3s-1.973,1.392-3.406.779-2.237-1.959-1.79-3S169.831,126.627,171.264,127.239Zm-.339,7.985a1.289,1.289,0,0,0-1.315.528l-3.354-1.434a1.289,1.289,0,0,0-.528-1.314l1.594-3.732a3.915,3.915,0,0,0,5.2,2.222Zm3.732-11.283a1.29,1.29,0,0,0,.528,1.314l-1.594,3.732a3.913,3.913,0,0,0-5.2-2.222l1.594-3.731a1.291,1.291,0,0,0,1.315-.528Z" transform="translate(-165.143 -121.923)" fill="#01763c"/>
            <path id="Path_1712" data-name="Path 1712" d="M170.721,124.284a.771.771,0,1,0,1.011-.406A.772.772,0,0,0,170.721,124.284Zm.944.4a.256.256,0,1,1-.135-.338A.257.257,0,0,1,171.665,124.689Z" transform="translate(-164.3 -121.633)" fill="#01763c"/>
            <path id="Path_1713" data-name="Path 1713" d="M167.569,131.661a.77.77,0,1,0,1.011-.406A.771.771,0,0,0,167.569,131.661Zm.944.4a.257.257,0,1,1-.135-.337A.257.257,0,0,1,168.513,132.065Z" transform="translate(-164.782 -120.505)" fill="#01763c"/>
          </g>
        </g>
        <g id="Group_428" data-name="Group 428" transform="translate(12.737 4.277)">
          <g id="Group_426" data-name="Group 426">
            <g id="Group_423" data-name="Group 423" transform="translate(0.006 0.007)">
              <path id="Rectangle_1" data-name="Rectangle 1" d="M.2,0h14.01a.2.2,0,0,1,.2.2V7.457a.194.194,0,0,1-.194.194H.2a.2.2,0,0,1-.2-.2V.2A.2.2,0,0,1,.2,0Z" transform="matrix(0.782, -0.623, 0.623, 0.782, 0, 8.978)" fill="#009f52"/>
            </g>
            <g id="Group_425" data-name="Group 425">
              <g id="Group_424" data-name="Group 424">
                <path id="Path_1714" data-name="Path 1714" d="M173.71,138.785a.316.316,0,0,1-.239-.123l-4.489-5.63a.324.324,0,0,1,.051-.452l10.91-8.7a.323.323,0,0,1,.453.053l4.489,5.63a.32.32,0,0,1,.069.238.326.326,0,0,1-.121.218l-10.908,8.7A.323.323,0,0,1,173.71,138.785Zm6.354-14.751-10.909,8.7a.127.127,0,0,0-.02.179l4.489,5.63a.126.126,0,0,0,.18.021l10.906-8.7a.127.127,0,0,0,.048-.086.124.124,0,0,0-.027-.093l-4.49-5.631a.127.127,0,0,0-.179-.021Z" transform="translate(-168.913 -123.811)" fill="#01763c"/>
              </g>
            </g>
          </g>
          <g id="Group_427" data-name="Group 427" transform="translate(2.099 2.065)">
            <path id="Path_1715" data-name="Path 1715" d="M179.968,125.793a.677.677,0,0,1-.949-.107.225.225,0,0,0-.316-.036l-7.742,6.173a.225.225,0,0,0-.036.316.676.676,0,0,1-.107.949.225.225,0,0,0-.036.316l2.245,2.815a.224.224,0,0,0,.316.036.677.677,0,0,1,.949.107.226.226,0,0,0,.317.036l7.742-6.173a.225.225,0,0,0,.036-.316.676.676,0,0,1,.106-.949.224.224,0,0,0,.036-.317l-2.245-2.814A.224.224,0,0,0,179.968,125.793Zm-1.9,4.109c.851,1.066.912,2.438.136,3.057s-2.1.254-2.951-.814-.911-2.438-.135-3.057S177.212,128.835,178.063,129.9Zm-3.577,6.017a1.128,1.128,0,0,0-1.232-.138l-1.992-2.5a1.125,1.125,0,0,0,.138-1.232l2.78-2.216a3.427,3.427,0,0,0,3.086,3.87Zm7.565-7.153a1.128,1.128,0,0,0-.14,1.232l-2.78,2.216a3.427,3.427,0,0,0-3.086-3.87l2.78-2.216a1.13,1.13,0,0,0,1.234.138Z" transform="translate(-170.734 -125.602)" fill="#01763c"/>
            <path id="Path_1716" data-name="Path 1716" d="M178.286,127.676a.675.675,0,1,0,.949.107A.677.677,0,0,0,178.286,127.676Zm.561.7a.225.225,0,1,1,.036-.316A.223.223,0,0,1,178.847,128.38Z" transform="translate(-169.618 -125.307)" fill="#01763c"/>
            <path id="Path_1717" data-name="Path 1717" d="M172.792,132.056a.675.675,0,1,0,.949.107A.677.677,0,0,0,172.792,132.056Zm.561.7a.225.225,0,1,1,.036-.316A.225.225,0,0,1,173.353,132.761Z" transform="translate(-170.458 -124.637)" fill="#01763c"/>
          </g>
        </g>
        <g id="Group_434" data-name="Group 434" transform="translate(0 3.49)">
          <g id="Group_432" data-name="Group 432">
            <g id="Group_429" data-name="Group 429" transform="translate(0.065 0.065)">
              <path id="Rectangle_2" data-name="Rectangle 2" d="M.2,0h7.26a.2.2,0,0,1,.2.2V14.206a.2.2,0,0,1-.2.2H.194A.194.194,0,0,1,0,14.207V.2A.2.2,0,0,1,.2,0Z" transform="translate(0 1.218) rotate(-9.156)" fill="#009f52"/>
            </g>
            <g id="Group_431" data-name="Group 431">
              <g id="Group_430" data-name="Group 430">
                <path id="Path_1718" data-name="Path 1718" d="M167.793,137.4a.32.32,0,0,1-.225.148l-7.11,1.146a.325.325,0,0,1-.369-.266l-2.22-13.776a.325.325,0,0,1,.269-.369l7.109-1.146a.32.32,0,0,1,.241.056.324.324,0,0,1,.13.212l2.219,13.771A.328.328,0,0,1,167.793,137.4Zm-9.73-12.78,2.22,13.775a.127.127,0,0,0,.145.106l7.109-1.146a.127.127,0,0,0,.106-.148l-2.219-13.771a.127.127,0,0,0-.146-.107l-7.11,1.147a.125.125,0,0,0-.082.05.12.12,0,0,0-.023.1Z" transform="translate(-157.865 -123.128)" fill="#01763c"/>
              </g>
            </g>
          </g>
          <g id="Group_433" data-name="Group 433" transform="translate(1.309 1.495)">
            <path id="Path_1719" data-name="Path 1719" d="M159.749,125.259a.677.677,0,0,1-.559.775.224.224,0,0,0-.187.257l1.575,9.775a.226.226,0,0,0,.258.187.675.675,0,0,1,.774.559.226.226,0,0,0,.258.186l3.554-.572a.226.226,0,0,0,.187-.258.675.675,0,0,1,.559-.774.226.226,0,0,0,.187-.258l-1.576-9.775a.224.224,0,0,0-.257-.187.676.676,0,0,1-.775-.559.223.223,0,0,0-.257-.186l-3.556.572A.226.226,0,0,0,159.749,125.259Zm2.644,3.677c1.348-.217,2.572.4,2.73,1.383s-.809,1.954-2.157,2.172-2.572-.4-2.73-1.383S161.045,129.153,162.393,128.935Zm3.485,6.071a1.131,1.131,0,0,0-.726,1.006l-3.155.508a1.126,1.126,0,0,0-1.005-.726l-.566-3.509a3.429,3.429,0,0,0,4.888-.787Zm-2.517-10.1a1.129,1.129,0,0,0,1.006.726l.565,3.509a3.428,3.428,0,0,0-4.887.787l-.566-3.508a1.13,1.13,0,0,0,.727-1.006Z" transform="translate(-159.001 -124.425)" fill="#01763c"/>
            <path id="Path_1720" data-name="Path 1720" d="M161.055,126.608a.676.676,0,1,0,.559-.775A.676.676,0,0,0,161.055,126.608Zm.889-.144a.225.225,0,1,1-.258-.186A.225.225,0,0,1,161.944,126.464Z" transform="translate(-158.688 -124.211)" fill="#01763c"/>
            <path id="Path_1721" data-name="Path 1721" d="M162.173,133.545a.675.675,0,1,0,.559-.774A.677.677,0,0,0,162.173,133.545Zm.889-.143a.225.225,0,1,1-.258-.187A.224.224,0,0,1,163.062,133.4Z" transform="translate(-158.517 -123.151)" fill="#01763c"/>
          </g>
        </g>
        <g id="Group_443" data-name="Group 443" transform="translate(0.393 14.141)">
          <rect id="Rectangle_3" data-name="Rectangle 3" width="24.959" height="20.315" fill="#f09e20"/>
          <rect id="Rectangle_4" data-name="Rectangle 4" width="13.35" height="20.315" transform="translate(11.609)" fill="#f58a27"/>
          <g id="Group_442" data-name="Group 442" transform="translate(1.306 1.741)">
            <g id="Group_435" data-name="Group 435" transform="translate(0 0)">
              <rect id="Rectangle_5" data-name="Rectangle 5" width="1.161" height="0.58" fill="#fff"/>
            </g>
            <g id="Group_436" data-name="Group 436" transform="translate(3.289)">
              <path id="Path_1722" data-name="Path 1722" d="M177.089,134.458H174.96v-.581h2.128Zm-4.256,0H170.7v-.581h2.128Zm-4.256,0h-2.128v-.581h2.128Zm-4.257,0h-2.128v-.581h2.128Z" transform="translate(-162.191 -133.877)" fill="#fff"/>
            </g>
            <g id="Group_437" data-name="Group 437" transform="translate(20.315)">
              <path id="Path_1723" data-name="Path 1723" d="M178.41,135.328h-.581v-.87h-.87v-.581h1.161a.291.291,0,0,1,.291.291Z" transform="translate(-176.959 -133.877)" fill="#fff"/>
            </g>
            <g id="Group_438" data-name="Group 438" transform="translate(21.185 3.441)">
              <path id="Path_1724" data-name="Path 1724" d="M178.3,146.813h-.581v-1.99h.581Zm0-3.981h-.581v-1.99h.581Zm0-3.98h-.581v-1.99h.581Z" transform="translate(-177.714 -136.862)" fill="#fff"/>
            </g>
            <g id="Group_439" data-name="Group 439" transform="translate(20.315 15.382)">
              <path id="Path_1725" data-name="Path 1725" d="M178.12,148.67h-1.161v-.581h.87v-.87h.581v1.161A.291.291,0,0,1,178.12,148.67Z" transform="translate(-176.959 -147.219)" fill="#fff"/>
            </g>
            <g id="Group_440" data-name="Group 440" transform="translate(3.289 16.252)">
              <path id="Path_1726" data-name="Path 1726" d="M177.089,148.555H174.96v-.581h2.128Zm-4.256,0H170.7v-.581h2.128Zm-4.256,0h-2.128v-.581h2.128Zm-4.257,0h-2.128v-.581h2.128Z" transform="translate(-162.191 -147.974)" fill="#fff"/>
            </g>
            <g id="Group_441" data-name="Group 441" transform="translate(0 16.252)">
              <rect id="Rectangle_6" data-name="Rectangle 6" width="1.161" height="0.58" fill="#fff"/>
            </g>
          </g>
          <rect id="Rectangle_7" data-name="Rectangle 7" width="7.595" height="6.385" transform="translate(17.363 7.474)" fill="#e57d28"/>
          <path id="Path_1727" data-name="Path 1727" d="M181.1,144.793h-7.836v-6.385H181.1a3.193,3.193,0,0,1,3.192,3.192h0A3.192,3.192,0,0,1,181.1,144.793Z" transform="translate(-155.903 -131.443)" fill="#ef5a29"/>
          <circle id="Ellipse_2" data-name="Ellipse 2" cx="1.596" cy="1.596" r="1.596" transform="translate(19.154 8.561)" fill="#fff"/>
        </g>
      </g>
      <g id="Group_450" data-name="Group 450" transform="translate(174.074 72.795)">
        <rect id="Rectangle_8" data-name="Rectangle 8" width="26.423" height="25.781" rx="1.877" transform="translate(1.439 4.514)" fill="#b3b3bf"/>
        <rect id="Rectangle_9" data-name="Rectangle 9" width="26.423" height="25.781" rx="1.877" transform="translate(0 4.514)" fill="#fff"/>
        <path id="Rectangle_10" data-name="Rectangle 10" d="M1.877,0H24.546a1.877,1.877,0,0,1,1.877,1.877v6.03a0,0,0,0,1,0,0H0a0,0,0,0,1,0,0V1.877A1.877,1.877,0,0,1,1.877,0Z" transform="translate(1.439 4.514)" fill="#3c447d"/>
        <path id="Rectangle_11" data-name="Rectangle 11" d="M1.877,0H24.546a1.877,1.877,0,0,1,1.877,1.877v6.03a0,0,0,0,1,0,0H0a0,0,0,0,1,0,0V1.877A1.877,1.877,0,0,1,1.877,0Z" transform="translate(0 4.514)" fill="#5465bb"/>
        <g id="Group_446" data-name="Group 446" transform="translate(4.045)">
          <g id="Group_445" data-name="Group 445">
            <path id="Path_1728" data-name="Path 1728" d="M167.867,82.748h-1.276V78.495a3.179,3.179,0,0,1,6.358,0v1.334h-1.276V78.495a1.9,1.9,0,0,0-3.806,0Z" transform="translate(-166.591 -75.316)" fill="#251f2c"/>
          </g>
        </g>
        <g id="Group_448" data-name="Group 448" transform="translate(16.171 0.005)">
          <g id="Group_447" data-name="Group 447">
            <path id="Path_1729" data-name="Path 1729" d="M178.385,82.753h-1.276V78.5a3.18,3.18,0,0,1,6.361,0v1.333h-1.276V78.5a1.9,1.9,0,0,0-3.808,0Z" transform="translate(-177.109 -75.32)" fill="#251f2c"/>
          </g>
        </g>
        <g id="Group_449" data-name="Group 449" transform="translate(5.085 15.098)">
          <rect id="Rectangle_12" data-name="Rectangle 12" width="2.609" height="2.609" transform="translate(4.729)" fill="#b3b3bf"/>
          <rect id="Rectangle_13" data-name="Rectangle 13" width="2.609" height="2.609" transform="translate(9.187)" fill="#b3b3bf"/>
          <rect id="Rectangle_14" data-name="Rectangle 14" width="2.609" height="2.609" transform="translate(13.644)" fill="#b3b3bf"/>
          <rect id="Rectangle_15" data-name="Rectangle 15" width="2.609" height="2.609" transform="translate(4.729 3.839)" fill="#b3b3bf"/>
          <rect id="Rectangle_16" data-name="Rectangle 16" width="2.609" height="2.609" transform="translate(9.187 3.839)" fill="#b3b3bf"/>
          <rect id="Rectangle_17" data-name="Rectangle 17" width="2.609" height="2.609" transform="translate(13.644 3.839)" fill="#b3b3bf"/>
          <rect id="Rectangle_18" data-name="Rectangle 18" width="2.609" height="2.609" transform="translate(4.729 7.678)" fill="#b3b3bf"/>
          <rect id="Rectangle_19" data-name="Rectangle 19" width="2.609" height="2.609" fill="#b3b3bf"/>
          <rect id="Rectangle_20" data-name="Rectangle 20" width="2.609" height="2.609" transform="translate(0 3.839)" fill="#b3b3bf"/>
          <rect id="Rectangle_21" data-name="Rectangle 21" width="2.609" height="2.609" transform="translate(0 7.678)" fill="#b3b3bf"/>
          <rect id="Rectangle_22" data-name="Rectangle 22" width="2.609" height="2.609" transform="translate(9.187 7.678)" fill="#b3b3bf"/>
          <rect id="Rectangle_23" data-name="Rectangle 23" width="2.609" height="2.609" transform="translate(13.644 7.678)" fill="#b3b3bf"/>
        </g>
        <path id="Path_1730" data-name="Path 1730" d="M179.507,82.189a1.654,1.654,0,1,1-1.654-1.654A1.653,1.653,0,0,1,179.507,82.189Z" transform="translate(-161.077 -74.518)" fill="#251f2c"/>
        <path id="Path_1731" data-name="Path 1731" d="M168.968,81.99a1.654,1.654,0,1,1-1.654-1.653A1.654,1.654,0,0,1,168.968,81.99Z" transform="translate(-162.688 -74.548)" fill="#251f2c"/>
      </g>
      <g id="Group_458" data-name="Group 458" transform="translate(28.703 26.894)">
        <g id="Group_452" data-name="Group 452" transform="translate(0.669 0.669)">
          <g id="Group_451" data-name="Group 451">
            <circle id="Ellipse_3" data-name="Ellipse 3" cx="14.498" cy="14.498" r="14.498" fill="#fff"/>
          </g>
        </g>
        <g id="Group_454" data-name="Group 454" transform="translate(15.167 0.669)">
          <g id="Group_453" data-name="Group 453">
            <path id="Path_1732" data-name="Path 1732" d="M50.146,36.082a14.5,14.5,0,1,1,0,29Z" transform="translate(-50.146 -36.082)" fill="#eaeaea"/>
          </g>
        </g>
        <g id="Group_456" data-name="Group 456" transform="translate(0 0)">
          <g id="Group_455" data-name="Group 455">
            <path id="Path_1733" data-name="Path 1733" d="M52.157,65.837A15.167,15.167,0,1,1,67.326,50.669,15.185,15.185,0,0,1,52.157,65.837Zm0-29A13.829,13.829,0,1,0,65.986,50.669,13.845,13.845,0,0,0,52.157,36.841Z" transform="translate(-36.99 -35.502)"/>
          </g>
        </g>
        <path id="Path_1734" data-name="Path 1734" d="M59.91,48.449H53.178a2.039,2.039,0,1,0-3.7,1.475l-5.932,6.082a.334.334,0,0,0,.24.568.328.328,0,0,0,.239-.1l5.918-6.067a2.026,2.026,0,0,0,3.237-1.287H59.91a.335.335,0,0,0,0-.67Z" transform="translate(-36.002 -33.783)"/>
        <g id="Group_457" data-name="Group 457" transform="translate(14.651 2.625)">
          <path id="Path_1735" data-name="Path 1735" d="M50.348,37.9c.11,1.543.188,3.086.246,4.629s.091,3.085.115,4.628a64.23,64.23,0,0,1-.323,9.258.174.174,0,0,1-.345,0,64.4,64.4,0,0,1-.322-9.258c.024-1.543.059-3.085.114-4.628s.137-3.086.247-4.629a.134.134,0,0,1,.267,0Z" transform="translate(-49.698 -37.779)" fill="#ff5252"/>
        </g>
      </g>
      <g id="Group_474" data-name="Group 474" transform="translate(0.208 123.73)">
        <g id="Group_460" data-name="Group 460" transform="translate(0 0)">
          <g id="Group_459" data-name="Group 459">
            <circle id="Ellipse_4" data-name="Ellipse 4" cx="15.1" cy="15.1" r="15.1" transform="translate(0 21.354) rotate(-45)" fill="#faca21"/>
          </g>
        </g>
        <g id="Group_462" data-name="Group 462" transform="translate(4.698 4.698)">
          <g id="Group_461" data-name="Group 461" transform="translate(0 0)">
            <circle id="Ellipse_5" data-name="Ellipse 5" cx="11.778" cy="11.778" r="11.778" transform="translate(0 16.656) rotate(-45)" fill="#ef942b"/>
          </g>
        </g>
        <g id="Group_464" data-name="Group 464" transform="translate(9.446 9.446)">
          <g id="Group_463" data-name="Group 463">
            <path id="Path_1736" data-name="Path 1736" d="M32.375,151.505A11.908,11.908,0,1,1,44.283,139.6,11.922,11.922,0,0,1,32.375,151.505Zm0-22.983A11.075,11.075,0,1,0,43.45,139.6,11.087,11.087,0,0,0,32.375,128.523Z" transform="translate(-20.467 -127.689)" fill="#ae7331"/>
          </g>
        </g>
        <g id="Group_471" data-name="Group 471" transform="translate(21.359 6.254)">
          <g id="Group_466" data-name="Group 466">
            <g id="Group_465" data-name="Group 465">
              <path id="Path_1737" data-name="Path 1737" d="M45.893,140.024A15.086,15.086,0,0,1,30.8,155.115v-30.2A15.1,15.1,0,0,1,45.893,140.024Z" transform="translate(-30.8 -124.92)" fill="#ddad28"/>
            </g>
          </g>
          <g id="Group_468" data-name="Group 468" transform="translate(0 3.325)">
            <g id="Group_467" data-name="Group 467">
              <path id="Path_1738" data-name="Path 1738" d="M42.578,139.583A11.78,11.78,0,0,1,30.8,151.361V127.8A11.781,11.781,0,0,1,42.578,139.583Z" transform="translate(-30.8 -127.804)" fill="#d37b2d"/>
            </g>
          </g>
          <g id="Group_470" data-name="Group 470" transform="translate(0 3.19)">
            <g id="Group_469" data-name="Group 469">
              <path id="Path_1739" data-name="Path 1739" d="M30.8,127.687v.834a11.074,11.074,0,0,1,0,22.148v.835a11.908,11.908,0,0,0,0-23.816Z" transform="translate(-30.8 -127.687)" fill="#996433"/>
            </g>
          </g>
        </g>
        <g id="Group_473" data-name="Group 473" transform="translate(16.885 12.988)">
          <g id="Group_472" data-name="Group 472">
            <path id="Path_1740" data-name="Path 1740" d="M35.858,141.807c0-1.967-1.019-3.087-3.715-4.139l-.09-.036V133.6a4.882,4.882,0,0,1,.581.058l.164.957c.223,1.348.883,1.623,1.558,1.623a1.066,1.066,0,0,0,1.091-.964c-.03-1.528-1.41-2.549-3.393-2.7v-1.807H30.828v1.819c-2.444.233-3.841,1.705-3.841,3.556,0,2.036,1.246,3.112,3.481,4.01l.241.1v4.244a5.615,5.615,0,0,1-1.138-.134l-.144-1.13c-.136-1.027-.568-1.381-1.31-1.381a1.249,1.249,0,0,0-1.2.906c.021,1.7,1.383,2.715,3.788,2.778v1.969h1.227v-2.026C34.4,145.16,35.858,143.685,35.858,141.807Zm-6.3-6.354a1.661,1.661,0,0,1,1.274-1.74v3.428C29.981,136.743,29.554,136.291,29.554,135.453Zm2.381,8.89v-3.58a1.871,1.871,0,0,1,1.256,1.9A1.7,1.7,0,0,1,31.935,144.343Z" transform="translate(-26.92 -130.761)" fill="#faca21"/>
          </g>
        </g>
      </g>
      <g id="Group_478" data-name="Group 478" transform="translate(143.081 30.915)">
        <path id="Path_1741" data-name="Path 1741" d="M138.521,44.629h.465V50.2h-.465A2.325,2.325,0,0,1,136.2,47.88v-.928A2.326,2.326,0,0,1,138.521,44.629Z" transform="translate(-136.199 -38.128)" fill="#fff"/>
        <rect id="Rectangle_24" data-name="Rectangle 24" width="3.715" height="10.218" rx="0.403" transform="translate(4.18 12.075)" fill="#fff"/>
        <rect id="Rectangle_25" data-name="Rectangle 25" width="9.289" height="7.431" rx="0.403" transform="translate(1.858 5.573)" fill="#e7302a"/>
        <path id="Path_1742" data-name="Path 1742" d="M145.374,44.527l14.862-5.11a.471.471,0,0,1,.421.061.465.465,0,0,1,.195.378v16.72a.462.462,0,0,1-.465.463.487.487,0,0,1-.151-.024l-14.862-5.11a.465.465,0,0,1-.312-.439v-6.5A.465.465,0,0,1,145.374,44.527Z" transform="translate(-134.844 -38.928)" fill="#fff"/>
        <g id="Group_475" data-name="Group 475" transform="translate(2.787 6.502)">
          <rect id="Rectangle_26" data-name="Rectangle 26" width="3.251" height="0.929" fill="#fff"/>
        </g>
        <g id="Group_476" data-name="Group 476" transform="translate(2.787 8.824)">
          <rect id="Rectangle_27" data-name="Rectangle 27" width="3.251" height="0.929" fill="#fff"/>
        </g>
        <g id="Group_477" data-name="Group 477" transform="translate(2.787 11.146)">
          <rect id="Rectangle_28" data-name="Rectangle 28" width="3.251" height="0.929" fill="#fff"/>
        </g>
        <path id="Path_1743" data-name="Path 1743" d="M160.852,47.047V55.4a.459.459,0,0,1-.194.376.433.433,0,0,1-.272.089.452.452,0,0,1-.149-.028l-14.86-5.106a.47.47,0,0,1-.316-.438v-3.25Z" transform="translate(-134.844 -37.758)" fill="#eaeaea"/>
        <path id="Path_1744" data-name="Path 1744" d="M159.346,38.99a1.4,1.4,0,0,1,1.394,1.393V56.174a1.394,1.394,0,0,1-2.788,0V40.383A1.4,1.4,0,0,1,159.346,38.99Z" transform="translate(-132.873 -38.99)" fill="#e7302a"/>
      </g>
      <g id="Group_500" data-name="Group 500" transform="translate(28.927 109.171)">
        <path id="Path_1745" data-name="Path 1745" d="M182.024,175.93c0,4.337-32.424,7.853-72.42,7.853s-72.42-3.516-72.42-7.853,32.424-7.854,72.42-7.854S182.024,171.592,182.024,175.93Z" transform="translate(-37.184 -97.509)" fill="#419ab1"/>
        <g id="Group_499" data-name="Group 499" transform="translate(7.276)">
          <g id="Group_479" data-name="Group 479">
            <path id="Rectangle_29" data-name="Rectangle 29" d="M1.608,0H113.472a1.608,1.608,0,0,1,1.608,1.608V73.7a0,0,0,0,1,0,0H0a0,0,0,0,1,0,0V1.608A1.608,1.608,0,0,1,1.608,0Z" transform="translate(7.74)" fill="#212121"/>
            <rect id="Rectangle_30" data-name="Rectangle 30" width="109.605" height="67.41" transform="translate(10.478 3.144)" fill="#fff"/>
            <path id="Rectangle_31" data-name="Rectangle 31" d="M.8,0h128.68a.8.8,0,0,1,.8.8V5.817a1.608,1.608,0,0,1-1.608,1.608H1.608A1.608,1.608,0,0,1,0,5.817V.8A.8.8,0,0,1,.8,0Z" transform="translate(0 73.496)" fill="#c9cbca"/>
            <path id="Path_1746" data-name="Path 1746" d="M87.088,170.617v1.545a.927.927,0,0,0,.927.927h28.64a.927.927,0,0,0,.927-.927v-1.545" transform="translate(-36.83 -97.121)" fill="#949595"/>
            <path id="Rectangle_32" data-name="Rectangle 32" d="M0,0H130.288a0,0,0,0,1,0,0V.893A1.608,1.608,0,0,1,128.68,2.5H1.608A1.608,1.608,0,0,1,0,.893V0A0,0,0,0,1,0,0Z" transform="translate(0 78.42)" fill="#818181"/>
            <path id="Path_1747" data-name="Path 1747" d="M53.093,172.872a.839.839,0,1,1-.839-.839A.839.839,0,0,1,53.093,172.872Z" transform="translate(-42.284 -96.904)" fill="#818181"/>
            <path id="Path_1748" data-name="Path 1748" d="M58.245,172.872a.839.839,0,1,1-.839-.839A.839.839,0,0,1,58.245,172.872Z" transform="translate(-41.497 -96.904)" fill="#818181"/>
            <path id="Path_1749" data-name="Path 1749" d="M63.4,172.872a.839.839,0,1,1-.839-.839A.839.839,0,0,1,63.4,172.872Z" transform="translate(-40.709 -96.904)" fill="#818181"/>
            <path id="Path_1750" data-name="Path 1750" d="M133.873,173.413h15.489a.469.469,0,0,0,.469-.468h0a.469.469,0,0,0-.469-.469H133.873a.469.469,0,0,0-.468.469h0A.468.468,0,0,0,133.873,173.413Z" transform="translate(-29.748 -96.836)" fill="#949595"/>
          </g>
          <g id="Group_497" data-name="Group 497" transform="translate(14.368 8.447)">
            <g id="Group_483" data-name="Group 483" transform="translate(0.209)">
              <g id="Group_480" data-name="Group 480">
                <path id="Path_1751" data-name="Path 1751" d="M82.168,119v24.77a1.712,1.712,0,0,1-1.711,1.711h-21.8a1.71,1.71,0,0,1-1.711-1.711V116.709A1.71,1.71,0,0,1,58.654,115h21.8a1.712,1.712,0,0,1,1.711,1.711Z" transform="translate(-56.016 -114.071)" fill="#c7c7d1"/>
                <path id="Path_1752" data-name="Path 1752" d="M81.364,118.191v24.771a1.712,1.712,0,0,1-1.711,1.71H57.85a1.71,1.71,0,0,1-1.711-1.71V115.9a1.71,1.71,0,0,1,1.711-1.711h21.8a1.712,1.712,0,0,1,1.711,1.711Z" transform="translate(-56.139 -114.194)" fill="#fff"/>
                <path id="Path_1753" data-name="Path 1753" d="M81.364,115.9v2.286H56.139V115.9a1.71,1.71,0,0,1,1.711-1.711h21.8A1.712,1.712,0,0,1,81.364,115.9Z" transform="translate(-56.139 -114.194)" fill="#737fff"/>
              </g>
              <g id="Group_481" data-name="Group 481" transform="translate(2.116 7.489)">
                <path id="Path_1754" data-name="Path 1754" d="M75.581,121.1h-17.4a.2.2,0,0,1-.2-.2h0a.2.2,0,0,1,.2-.2h17.4a.2.2,0,0,1,.2.2h0A.2.2,0,0,1,75.581,121.1Z" transform="translate(-57.974 -120.69)" fill="#737fff"/>
                <path id="Path_1755" data-name="Path 1755" d="M72.444,123.227H58.177a.2.2,0,0,1-.2-.2h0a.2.2,0,0,1,.2-.2H72.444a.2.2,0,0,1,.2.2h0A.2.2,0,0,1,72.444,123.227Z" transform="translate(-57.974 -120.364)" fill="#737fff"/>
                <path id="Path_1756" data-name="Path 1756" d="M69.883,122.162H58.177a.2.2,0,0,1-.2-.2h0a.2.2,0,0,1,.2-.2H69.883a.2.2,0,0,1,.2.2h0A.2.2,0,0,1,69.883,122.162Z" transform="translate(-57.974 -120.527)" fill="#737fff"/>
              </g>
              <g id="Group_482" data-name="Group 482" transform="translate(6.324 12.189)">
                <path id="Path_1757" data-name="Path 1757" d="M73.955,139.391H61.625V124.766h.256v14.368H73.955Z" transform="translate(-61.625 -124.766)" fill="#d9e0eb"/>
              </g>
              <rect id="Rectangle_33" data-name="Rectangle 33" width="2.146" height="9.414" transform="translate(8.48 15.98)" fill="#737fff"/>
              <rect id="Rectangle_34" data-name="Rectangle 34" width="2.146" height="11.207" transform="translate(12.554 14.187)" fill="#737fff"/>
              <rect id="Rectangle_35" data-name="Rectangle 35" width="2.146" height="13.256" transform="translate(16.627 12.138)" fill="#737fff"/>
              <path id="Path_1758" data-name="Path 1758" d="M60.31,119.67H58.381a.406.406,0,0,1-.407-.406h0a.406.406,0,0,1,.407-.406H60.31a.406.406,0,0,1,.407.406h0A.406.406,0,0,1,60.31,119.67Z" transform="translate(-55.858 -113.481)" fill="#737fff"/>
            </g>
            <g id="Group_495" data-name="Group 495" transform="translate(0 34.415)">
              <g id="Group_484" data-name="Group 484">
                <path id="Path_1759" data-name="Path 1759" d="M82.2,148.983v13.149a1.663,1.663,0,0,1-1.664,1.662H58.426a1.663,1.663,0,0,1-1.664-1.662V146.513a1.664,1.664,0,0,1,1.664-1.664H80.532a1.664,1.664,0,0,1,1.664,1.664Z" transform="translate(-55.835 -143.922)" fill="#c7c7d1"/>
                <path id="Path_1760" data-name="Path 1760" d="M81.392,148.179v13.148a1.664,1.664,0,0,1-1.664,1.664H57.622a1.664,1.664,0,0,1-1.664-1.664V145.709a1.664,1.664,0,0,1,1.664-1.664H79.728a1.664,1.664,0,0,1,1.664,1.664Z" transform="translate(-55.958 -144.045)" fill="#fff"/>
                <path id="Path_1761" data-name="Path 1761" d="M81.392,145.709v2.471H55.958v-2.471a1.664,1.664,0,0,1,1.664-1.664H79.728A1.664,1.664,0,0,1,81.392,145.709Z" transform="translate(-55.958 -144.045)" fill="#737fff"/>
              </g>
              <g id="Group_490" data-name="Group 490" transform="translate(17.75 6.551)">
                <g id="Group_485" data-name="Group 485">
                  <path id="Path_1762" data-name="Path 1762" d="M75.258,153.507H71.83a.477.477,0,0,1-.476-.475V150.2a.477.477,0,0,1,.476-.476h3.428a.476.476,0,0,1,.475.476v2.829A.476.476,0,0,1,75.258,153.507Zm-3.428-3.65a.347.347,0,0,0-.346.346v2.829a.347.347,0,0,0,.346.346h3.428a.347.347,0,0,0,.346-.346V150.2a.347.347,0,0,0-.346-.346Z" transform="translate(-71.354 -149.727)" fill="#d9e0eb"/>
                </g>
                <g id="Group_489" data-name="Group 489" transform="translate(0.813 0.514)">
                  <g id="Group_486" data-name="Group 486">
                    <path id="Path_1763" data-name="Path 1763" d="M73.9,152.659a1.3,1.3,0,1,1-.542-2.486c.04,0,.081,0,.121,0l-.229,1.3Z" transform="translate(-72.059 -150.173)" fill="#737fff"/>
                  </g>
                  <g id="Group_487" data-name="Group 487" transform="translate(1.533 0.035)">
                    <path id="Path_1764" data-name="Path 1764" d="M74.39,151.031a1.306,1.306,0,0,0-.914-.828l-.086.976Z" transform="translate(-73.389 -150.203)" fill="#5b4cc7"/>
                  </g>
                  <g id="Group_488" data-name="Group 488" transform="translate(1.533 1.187)">
                    <path id="Path_1765" data-name="Path 1765" d="M73.924,152.376a1.3,1.3,0,0,0,.542-1.058c0-.039,0-.077-.006-.114l-1.071.078Z" transform="translate(-73.389 -151.203)" fill="#77f38a"/>
                  </g>
                </g>
              </g>
              <g id="Group_491" data-name="Group 491" transform="translate(3.439 6.551)">
                <path id="Path_1766" data-name="Path 1766" d="M68.534,159.806H59.594a.653.653,0,0,1-.653-.653V150.38a.653.653,0,0,1,.653-.653h8.941a.653.653,0,0,1,.653.653v8.774A.653.653,0,0,1,68.534,159.806Zm-8.941-9.948a.523.523,0,0,0-.522.522v8.774a.523.523,0,0,0,.522.522h8.941a.523.523,0,0,0,.522-.522V150.38a.523.523,0,0,0-.522-.522Z" transform="translate(-58.941 -149.727)" fill="#d9e0eb"/>
              </g>
              <g id="Group_492" data-name="Group 492" transform="translate(4.006 7.745)">
                <path id="Path_1767" data-name="Path 1767" d="M61.8,151.586H59.845a.411.411,0,0,1-.412-.412h0a.411.411,0,0,1,.412-.412H61.8a.412.412,0,0,1,.412.412h0A.412.412,0,0,1,61.8,151.586Z" transform="translate(-59.433 -150.763)" fill="#7fb3f1"/>
              </g>
              <g id="Group_493" data-name="Group 493" transform="translate(9.099 9.341)">
                <path id="Path_1768" data-name="Path 1768" d="M67.318,152.388H63.97a.12.12,0,0,1-.12-.12h0a.12.12,0,0,1,.12-.121h3.348a.121.121,0,0,1,.12.121h0A.121.121,0,0,1,67.318,152.388Z" transform="translate(-63.85 -152.147)" fill="#7fb3f1"/>
              </g>
              <g id="Group_494" data-name="Group 494" transform="translate(9.099 8.82)">
                <path id="Path_1769" data-name="Path 1769" d="M65.8,151.936H63.97a.12.12,0,0,1-.12-.121h0a.12.12,0,0,1,.12-.12H65.8a.121.121,0,0,1,.121.12h0A.121.121,0,0,1,65.8,151.936Z" transform="translate(-63.85 -151.695)" fill="#7fb3f1"/>
              </g>
              <path id="Path_1770" data-name="Path 1770" d="M59.526,156.559a4.051,4.051,0,0,1,1.131-1.3c.7-.481,1.458.1,2.95-.887a2.424,2.424,0,0,1,2.642-.28c.514.085,1.749-1.114,1.749-1.114v3.58Z" transform="translate(-55.412 -142.679)" fill="url(#linear-gradient-2)"/>
            </g>
            <g id="Group_496" data-name="Group 496" transform="translate(29.021 0.006)">
              <path id="Path_1771" data-name="Path 1771" d="M97.916,115.807h53.067a3.145,3.145,0,0,1,3.144,3.143v47.07a3.145,3.145,0,0,1-3.144,3.143h-65.1a3.144,3.144,0,0,1-3.143-3.143V118.95a3.144,3.144,0,0,1,3.143-3.143Z" transform="translate(-80.884 -113.953)" fill="#c7c7d1"/>
              <path id="Path_1772" data-name="Path 1772" d="M96.308,114.2h53.067a3.144,3.144,0,0,1,3.143,3.143v47.069a3.144,3.144,0,0,1-3.143,3.143h-65.1a3.145,3.145,0,0,1-3.144-3.143V117.342a3.145,3.145,0,0,1,3.144-3.143Z" transform="translate(-81.13 -114.199)" fill="#fafafa"/>
              <path id="Path_1773" data-name="Path 1773" d="M96.308,116.96v50.177H84.274a3.145,3.145,0,0,1-3.144-3.143V116.925Z" transform="translate(-81.13 -113.782)" fill="#f0edff"/>
              <rect id="Rectangle_36" data-name="Rectangle 36" width="19.088" height="19.088" transform="translate(17.518 7.738)" fill="#d6e3ff"/>
              <rect id="Rectangle_37" data-name="Rectangle 37" width="4.966" height="4.966" transform="translate(2.201 6.148)" fill="#aec4ff"/>
              <rect id="Rectangle_38" data-name="Rectangle 38" width="5.747" height="1.59" transform="translate(8.096 6.148)" fill="#dde3f7"/>
              <rect id="Rectangle_39" data-name="Rectangle 39" width="5.747" height="1.59" transform="translate(8.096 8.49)" fill="#dde3f7"/>
              <rect id="Rectangle_40" data-name="Rectangle 40" width="4.966" height="4.966" transform="translate(2.201 13.826)" fill="#aec4ff"/>
              <rect id="Rectangle_41" data-name="Rectangle 41" width="5.747" height="1.59" transform="translate(8.096 13.826)" fill="#dde3f7"/>
              <rect id="Rectangle_42" data-name="Rectangle 42" width="5.747" height="1.59" transform="translate(8.096 16.167)" fill="#dde3f7"/>
              <rect id="Rectangle_43" data-name="Rectangle 43" width="4.966" height="4.966" transform="translate(2.201 21.504)" fill="#aec4ff"/>
              <rect id="Rectangle_44" data-name="Rectangle 44" width="5.747" height="1.59" transform="translate(8.096 21.504)" fill="#dde3f7"/>
              <rect id="Rectangle_45" data-name="Rectangle 45" width="5.747" height="1.59" transform="translate(8.096 23.845)" fill="#dde3f7"/>
              <rect id="Rectangle_46" data-name="Rectangle 46" width="4.966" height="4.966" transform="translate(2.201 29.182)" fill="#aec4ff"/>
              <rect id="Rectangle_47" data-name="Rectangle 47" width="5.747" height="1.59" transform="translate(8.096 29.182)" fill="#dde3f7"/>
              <rect id="Rectangle_48" data-name="Rectangle 48" width="5.747" height="1.59" transform="translate(8.096 31.523)" fill="#dde3f7"/>
              <path id="Path_1774" data-name="Path 1774" d="M108.111,135.746a6.089,6.089,0,1,1-2.533-11.626c.191,0,.38.008.566.025l-1.076,6.062Z" transform="translate(-78.323 -112.682)" fill="#737fff"/>
              <path id="Path_1775" data-name="Path 1775" d="M110.392,128.135a6.119,6.119,0,0,0-4.274-3.874l-.408,4.568Z" transform="translate(-77.372 -112.661)" fill="#5b4cc7"/>
              <path id="Path_1776" data-name="Path 1776" d="M108.211,134.424a6.1,6.1,0,0,0,2.534-4.953c0-.18-.008-.357-.023-.534l-5.012.369Z" transform="translate(-77.372 -111.946)" fill="#77f38a"/>
              <rect id="Rectangle_49" data-name="Rectangle 49" width="4.536" height="15.753" transform="translate(40.994 9.601)" fill="#6e83ff"/>
              <rect id="Rectangle_50" data-name="Rectangle 50" width="4.536" height="8.766" transform="translate(47.369 16.589)" fill="#aec4ff"/>
              <rect id="Rectangle_51" data-name="Rectangle 51" width="4.536" height="11.769" transform="translate(53.499 13.586)" fill="#86ee8d"/>
              <rect id="Rectangle_52" data-name="Rectangle 52" width="6.732" height="6.732" transform="translate(17.288 30.772)" fill="#dde3f7"/>
              <rect id="Rectangle_53" data-name="Rectangle 53" width="6.732" height="6.732" transform="translate(17.288 41.45)" fill="#dde3f7"/>
              <rect id="Rectangle_54" data-name="Rectangle 54" width="18.885" height="2.665" transform="translate(25.825 30.772)" fill="#b1c3fa"/>
              <rect id="Rectangle_55" data-name="Rectangle 55" width="31.492" height="2.304" transform="translate(25.825 35.2)" fill="#dbe1f5"/>
              <rect id="Rectangle_56" data-name="Rectangle 56" width="6.732" height="6.732" transform="translate(17.288 41.45)" fill="#dde3f7"/>
              <rect id="Rectangle_57" data-name="Rectangle 57" width="18.885" height="2.665" transform="translate(25.825 41.45)" fill="#b1c3fa"/>
              <rect id="Rectangle_58" data-name="Rectangle 58" width="31.492" height="2.304" transform="translate(25.825 45.878)" fill="#dbe1f5"/>
              <path id="Path_1777" data-name="Path 1777" d="M152.517,117.342v.674H81.13v-.674a3.145,3.145,0,0,1,3.144-3.143h65.1A3.144,3.144,0,0,1,152.517,117.342Z" transform="translate(-81.13 -114.199)" fill="#6e83ff"/>
            </g>
          </g>
          <g id="Group_498" data-name="Group 498" transform="translate(7.728)">
            <path id="Path_1778" data-name="Path 1778" d="M144.773,106.867l-64.079,73.5H71.529l63.44-73.5Z" transform="translate(-46.937 -106.867)" fill="#fff" opacity="0.3"/>
            <path id="Path_1779" data-name="Path 1779" d="M131.045,106.867l-64.079,73.5H64.291l63.44-73.5Z" transform="translate(-48.044 -106.867)" fill="#fff" opacity="0.3"/>
            <path id="Path_1780" data-name="Path 1780" d="M84.293,106.867,50.2,142.72v-5.728l28.978-30.125Z" transform="translate(-50.198 -106.867)" fill="#fff" opacity="0.3"/>
            <path id="Path_1781" data-name="Path 1781" d="M73.24,106.867,50.2,130.6v-7.3L66.22,106.867Z" transform="translate(-50.198 -106.867)" fill="#fff" opacity="0.3"/>
          </g>
        </g>
      </g>
      <g id="Group_509" data-name="Group 509" transform="translate(80.772 0)">
        <g id="Group_505" data-name="Group 505" transform="translate(0 0.498)">
          <g id="Group_501" data-name="Group 501" transform="translate(0 0)">
            <circle id="Ellipse_6" data-name="Ellipse 6" cx="15.112" cy="15.112" r="15.112" transform="matrix(0.846, -0.534, 0.534, 0.846, 0, 16.127)" fill="#fbc02d"/>
          </g>
          <g id="Group_502" data-name="Group 502" transform="translate(20.845 5.732)">
            <path id="Path_1782" data-name="Path 1782" d="M100.234,17.578a15.113,15.113,0,1,1,0,30.225Z" transform="translate(-100.234 -17.578)" fill="#e2a827"/>
          </g>
          <g id="Group_503" data-name="Group 503" transform="translate(10.008 10.007)">
            <path id="Path_1783" data-name="Path 1783" d="M112.31,34.69,110.674,33.3a9.054,9.054,0,0,0-.01-2.527l1.6-1.41a.556.556,0,0,0,.146-.643l-.835-1.962a.571.571,0,0,0-.564-.339l-2.133.169a8.934,8.934,0,0,0-1.8-1.771l.135-2.121a.544.544,0,0,0-.349-.564l-1.974-.8a.569.569,0,0,0-.655.146l-1.377,1.647a8.212,8.212,0,0,0-2.526.012l-1.41-1.6a.581.581,0,0,0-.655-.158l-1.952.835a.586.586,0,0,0-.349.575l.169,2.133a8.35,8.35,0,0,0-1.76,1.8l-2.143-.146a.549.549,0,0,0-.552.361l-.8,1.975a.558.558,0,0,0,.158.642l1.636,1.388a9,9,0,0,0,.012,2.526l-1.6,1.411a.576.576,0,0,0-.146.642l.835,1.963a.562.562,0,0,0,.564.338l2.133-.168a8.934,8.934,0,0,0,1.8,1.771l-.135,2.12a.546.546,0,0,0,.349.565l1.974.8a.571.571,0,0,0,.655-.146l1.365-1.636a8.7,8.7,0,0,0,2.538-.022l1.422,1.613a.574.574,0,0,0,.643.146l1.952-.835a.578.578,0,0,0,.349-.564l-.169-2.143a8.382,8.382,0,0,0,1.76-1.805l2.143.146a.533.533,0,0,0,.552-.361l.8-1.974A.56.56,0,0,0,112.31,34.69Zm-10.638,3.8a6.368,6.368,0,1,1,6.373-6.363A6.372,6.372,0,0,1,101.672,38.492Z" transform="translate(-90.835 -21.286)" fill="#fafffb"/>
            <path id="Path_1784" data-name="Path 1784" d="M101.61,33.455a2.628,2.628,0,1,1,1.4-3.44A2.614,2.614,0,0,1,101.61,33.455Z" transform="translate(-89.746 -20.198)" fill="#fbc02d"/>
          </g>
          <g id="Group_504" data-name="Group 504" transform="translate(18.217 10.007)">
            <path id="Path_1785" data-name="Path 1785" d="M110.873,34.69,109.237,33.3a9.054,9.054,0,0,0-.01-2.527l1.6-1.41a.556.556,0,0,0,.146-.643l-.835-1.962a.571.571,0,0,0-.564-.339l-2.133.169a8.934,8.934,0,0,0-1.8-1.771l.135-2.121a.544.544,0,0,0-.349-.564l-1.974-.8a.569.569,0,0,0-.655.146l-1.377,1.647a8.354,8.354,0,0,0-1.184-.09v2.719a6.368,6.368,0,1,1,0,12.736V41.21a9.066,9.066,0,0,0,1.342-.1L103,42.722a.574.574,0,0,0,.643.146l1.952-.835a.578.578,0,0,0,.349-.564l-.169-2.143a8.382,8.382,0,0,0,1.76-1.805l2.143.146a.533.533,0,0,0,.552-.361l.8-1.974A.56.56,0,0,0,110.873,34.69Z" transform="translate(-97.606 -21.286)" fill="#dfdfdf"/>
            <path id="Path_1786" data-name="Path 1786" d="M101.61,33.455a2.628,2.628,0,1,1,1.4-3.44A2.614,2.614,0,0,1,101.61,33.455Z" transform="translate(-97.955 -20.198)" fill="#fafffb"/>
            <path id="Path_1787" data-name="Path 1787" d="M101.257,33.451a2.533,2.533,0,0,1-1.016.214V28.4a2.632,2.632,0,0,1,1.016,5.054Z" transform="translate(-97.605 -20.199)" fill="#dfdfdf"/>
          </g>
        </g>
        <g id="Group_508" data-name="Group 508" transform="translate(26.14)" opacity="0.5">
          <g id="Group_506" data-name="Group 506">
            <path id="Path_1788" data-name="Path 1788" d="M104.827,19.6l.042,1.513a.379.379,0,0,0,.278.378l1.462.436a5.955,5.955,0,0,0,.722,1.639l-.647,1.383a.414.414,0,0,0,.092.462l1.091,1.041a.407.407,0,0,0,.465.062l1.347-.719a6.172,6.172,0,0,0,1.683.647l.5,1.428a.407.407,0,0,0,.4.261l1.513-.042a.387.387,0,0,0,.374-.288l.438-1.445a6.346,6.346,0,0,0,1.642-.729l1.375.643a.4.4,0,0,0,.46-.084l1.043-1.1a.407.407,0,0,0,.063-.463l-.715-1.337a6.424,6.424,0,0,0,.636-1.677l1.434-.516a.4.4,0,0,0,.264-.389l-.04-1.513a.389.389,0,0,0-.278-.377l-1.463-.437a5.93,5.93,0,0,0-.721-1.638l.643-1.377a.414.414,0,0,0-.09-.469l-1.091-1.041a.41.41,0,0,0-.474-.059l-1.337.715a5.847,5.847,0,0,0-1.677-.636l-.506-1.439a.4.4,0,0,0-.4-.259l-1.513.04a.389.389,0,0,0-.372.288l-.438,1.445a6.407,6.407,0,0,0-1.642.729l-1.377-.643a.4.4,0,0,0-.459.085l-1.045,1.1a.4.4,0,0,0-.062.465l.715,1.336a6.436,6.436,0,0,0-.638,1.679l-1.433.515A.4.4,0,0,0,104.827,19.6Zm3.739-1.031a4.528,4.528,0,1,1,2.656,5.82A4.529,4.529,0,0,1,108.566,18.569Z" transform="translate(-104.827 -12.175)" fill="#fafffb"/>
            <path id="Path_1789" data-name="Path 1789" d="M110.712,20.7a1.867,1.867,0,1,0-.074-2.637A1.857,1.857,0,0,0,110.712,20.7Z" transform="translate(-104.017 -11.364)" fill="#fafffb"/>
          </g>
          <g id="Group_507" data-name="Group 507" transform="translate(7.758 15.055)">
            <path id="Path_1790" data-name="Path 1790" d="M113.4,29.832a2.925,2.925,0,1,0,3.085-2.754A2.924,2.924,0,0,0,113.4,29.832Z" transform="translate(-111.275 -24.952)" fill="none"/>
            <path id="Path_1791" data-name="Path 1791" d="M111.57,31.467l.316.926a.247.247,0,0,0,.244.18l.986-.013a3.818,3.818,0,0,0,.76.873l-.134.978a.267.267,0,0,0,.146.267l.872.433a.263.263,0,0,0,.3-.051l.693-.7a4.012,4.012,0,0,0,1.163.076l.582.785a.261.261,0,0,0,.3.083l.926-.315a.252.252,0,0,0,.174-.25l-.007-.975a4.093,4.093,0,0,0,.873-.764l.973.133a.256.256,0,0,0,.266-.139l.433-.879a.263.263,0,0,0-.051-.3l-.7-.687a4.165,4.165,0,0,0,.07-1.158l.785-.594a.255.255,0,0,0,.089-.291l-.316-.925a.252.252,0,0,0-.243-.18l-.986.012a3.846,3.846,0,0,0-.76-.873l.133-.972a.268.268,0,0,0-.145-.273l-.873-.432a.263.263,0,0,0-.3.055l-.688.7a3.791,3.791,0,0,0-1.157-.071l-.588-.79a.259.259,0,0,0-.3-.084l-.926.316a.25.25,0,0,0-.175.249l.008.975a4.127,4.127,0,0,0-.874.764l-.972-.133a.263.263,0,0,0-.267.141l-.433.877a.256.256,0,0,0,.051.3l.7.687a4.165,4.165,0,0,0-.07,1.158l-.785.594A.258.258,0,0,0,111.57,31.467Zm2.11-1.353a2.925,2.925,0,1,1,2.755,3.081A2.924,2.924,0,0,1,113.68,30.113Z" transform="translate(-111.556 -25.233)" fill="#fafffb"/>
          </g>
        </g>
      </g>
      <g id="Group_521" data-name="Group 521" transform="translate(58.41 56.654)">
        <g id="Group_519" data-name="Group 519" transform="translate(40.428 0)">
          <g id="Group_510" data-name="Group 510" transform="translate(0)">
            <circle id="Ellipse_7" data-name="Ellipse 7" cx="16.291" cy="16.291" r="16.291" transform="translate(0 23.039) rotate(-45)" fill="#d32f2f"/>
          </g>
          <g id="Group_511" data-name="Group 511" transform="translate(23.039 6.747)">
            <path id="Path_1792" data-name="Path 1792" d="M117.807,67.168a16.291,16.291,0,0,1,0,32.582Z" transform="translate(-117.807 -67.168)" fill="#ba2525"/>
          </g>
          <g id="Group_512" data-name="Group 512" transform="translate(14.498 14.498)">
            <path id="Path_1793" data-name="Path 1793" d="M118.94,90.972a8.541,8.541,0,1,1,8.541-8.541A8.55,8.55,0,0,1,118.94,90.972Zm0-15.217a6.676,6.676,0,1,0,6.676,6.676A6.684,6.684,0,0,0,118.94,75.755Z" transform="translate(-110.399 -73.891)" fill="#fff"/>
          </g>
          <g id="Group_513" data-name="Group 513" transform="translate(9.617 9.618)">
            <path id="Path_1794" data-name="Path 1794" d="M119.587,96.5a13.421,13.421,0,1,1,13.422-13.421A13.437,13.437,0,0,1,119.587,96.5Zm0-24.977a11.557,11.557,0,1,0,11.557,11.557A11.57,11.57,0,0,0,119.587,71.522Z" transform="translate(-106.165 -69.658)" fill="#fff"/>
          </g>
          <g id="Group_514" data-name="Group 514" transform="translate(20.58 20.58)">
            <path id="Path_1795" data-name="Path 1795" d="M120.591,81.625a2.459,2.459,0,1,1-2.458-2.459A2.458,2.458,0,0,1,120.591,81.625Z" transform="translate(-115.674 -79.166)" fill="#fff"/>
          </g>
          <g id="Group_518" data-name="Group 518" transform="translate(22.989 7.861)">
            <g id="Group_515" data-name="Group 515" transform="translate(18.739)">
              <path id="Path_1796" data-name="Path 1796" d="M142.348,72.531,136.22,75.6l-1.935-1.781-.267-2.616,6.129-3.069.268,2.616Z" transform="translate(-134.018 -68.134)" fill="#ba2525"/>
            </g>
            <g id="Group_516" data-name="Group 516" transform="translate(18.739 0)">
              <path id="Path_1797" data-name="Path 1797" d="M134.285,73.819l-.267-2.616,6.129-3.069.268,2.616Z" transform="translate(-134.017 -68.134)" fill="#d32f2f"/>
            </g>
            <g id="Group_517" data-name="Group 517" transform="translate(0 1.916)">
              <path id="Path_1798" data-name="Path 1798" d="M117.834,82.6a.466.466,0,0,0,.6.663l25.135-12.588a.466.466,0,1,0-.417-.832L118.021,82.433A.462.462,0,0,0,117.834,82.6Z" transform="translate(-117.764 -69.796)" fill="#001f32"/>
            </g>
          </g>
        </g>
        <g id="Group_520" data-name="Group 520" transform="translate(0 5.937)">
          <path id="Path_1799" data-name="Path 1799" d="M83.938,89.751a10.019,10.019,0,0,1-.953,4.487A9.309,9.309,0,0,1,80.4,97.459a11.251,11.251,0,0,1-3.81,1.941,16.2,16.2,0,0,1-4.662.653,16.548,16.548,0,0,1-3.12-.277,17.565,17.565,0,0,1-2.544-.664,11.1,11.1,0,0,1-1.843-.814,5.267,5.267,0,0,1-1.064-.753,1.875,1.875,0,0,1-.465-.94,8.657,8.657,0,0,1-.137-1.767q0-.776.05-1.3a3.708,3.708,0,0,1,.164-.852.936.936,0,0,1,.3-.465.729.729,0,0,1,.439-.137,2.081,2.081,0,0,1,.99.413,17.145,17.145,0,0,0,1.642.915,14.8,14.8,0,0,0,2.393.915,11.34,11.34,0,0,0,3.221.413,7.428,7.428,0,0,0,2.156-.288,4.819,4.819,0,0,0,1.616-.814,3.445,3.445,0,0,0,1.015-1.3,4.133,4.133,0,0,0,.352-1.729,3.027,3.027,0,0,0-.6-1.892,5.961,5.961,0,0,0-1.567-1.4,16.312,16.312,0,0,0-2.193-1.153q-1.23-.54-2.532-1.14a23.117,23.117,0,0,1-2.532-1.366,10.294,10.294,0,0,1-2.194-1.83A8.635,8.635,0,0,1,63.91,79.3a9.1,9.1,0,0,1-.6-3.485,9.216,9.216,0,0,1,.865-4.1A8.4,8.4,0,0,1,66.5,68.783a9.91,9.91,0,0,1,3.46-1.742,15.1,15.1,0,0,1,4.223-.576,15.374,15.374,0,0,1,2.306.175,15.664,15.664,0,0,1,2.156.476,12.05,12.05,0,0,1,1.78.677,4.146,4.146,0,0,1,1.027.627,1.857,1.857,0,0,1,.339.425,2.064,2.064,0,0,1,.15.463,4.794,4.794,0,0,1,.088.727c.016.292.025.656.025,1.091q0,.726-.038,1.228a4.6,4.6,0,0,1-.125.828,1,1,0,0,1-.251.476.62.62,0,0,1-.438.15,2.082,2.082,0,0,1-.877-.35q-.6-.351-1.479-.764a14.076,14.076,0,0,0-2.03-.753,9,9,0,0,0-2.532-.338,6.05,6.05,0,0,0-1.88.263,3.9,3.9,0,0,0-1.341.726,2.884,2.884,0,0,0-.8,1.116A3.65,3.65,0,0,0,70,75.088a3.035,3.035,0,0,0,.589,1.868,5.644,5.644,0,0,0,1.579,1.4,16.916,16.916,0,0,0,2.242,1.153q1.254.54,2.557,1.14a25.2,25.2,0,0,1,2.557,1.367,10.278,10.278,0,0,1,2.231,1.828,8.546,8.546,0,0,1,1.579,2.508A8.773,8.773,0,0,1,83.938,89.751Z" transform="translate(-62.757 -66.465)" fill="#fff"/>
          <path id="Path_1800" data-name="Path 1800" d="M104.724,96.818a9.64,9.64,0,0,1-.063,1.216,3.061,3.061,0,0,1-.187.79,1,1,0,0,1-.314.438.682.682,0,0,1-.414.138H87.453a2.046,2.046,0,0,1-1.39-.489A2,2,0,0,1,85.5,97.32V69.045a2,2,0,0,1,.565-1.591,2.046,2.046,0,0,1,1.39-.489h16.192a.68.68,0,0,1,.4.125.969.969,0,0,1,.3.439,3.4,3.4,0,0,1,.189.8,10.392,10.392,0,0,1,.062,1.242,9.87,9.87,0,0,1-.062,1.191,3.177,3.177,0,0,1-.189.789,1.061,1.061,0,0,1-.3.439.632.632,0,0,1-.4.137H92.066v7.922h9.8a.679.679,0,0,1,.413.138,1,1,0,0,1,.314.425,2.9,2.9,0,0,1,.188.777,11.326,11.326,0,0,1,0,2.393,2.882,2.882,0,0,1-.188.766.912.912,0,0,1-.314.413.722.722,0,0,1-.413.126h-9.8v9.149h11.68a.689.689,0,0,1,.414.137,1,1,0,0,1,.314.439,3.049,3.049,0,0,1,.187.79A9.619,9.619,0,0,1,104.724,96.818Z" transform="translate(-59.28 -66.389)" fill="#fff"/>
        </g>
      </g>
    </g>
  </g>
</svg>
