<svg xmlns="http://www.w3.org/2000/svg" width="20" height="20" viewBox="0 0 20 20">
  <g id="Group_601" data-name="Group 601" transform="translate(-519 -153.986)">
    <path id="Path_1958" data-name="Path 1958" d="M17.845,0H2.155A2.157,2.157,0,0,0,0,2.155v15.69A2.157,2.157,0,0,0,2.155,20h15.69A2.158,2.158,0,0,0,20,17.845V2.155A2.157,2.157,0,0,0,17.845,0Zm.983,17.845a.984.984,0,0,1-.983.983H2.155a.984.984,0,0,1-.983-.983V2.155a.984.984,0,0,1,.983-.983h15.69a.984.984,0,0,1,.983.983Zm0,0" transform="translate(519 153.986)" fill="#676f75"/>
    <g id="Group_600" data-name="Group 600">
      <path id="Path_1959" data-name="Path 1959" d="M139.542,197.5a.577.577,0,0,1,.653.622c.006.195.188.257.408.257.27,0,.408-.075.408-.389,0-.754-.634-1.206-1.5-1.206a1.3,1.3,0,0,0-1.445,1.438v1.752a1.473,1.473,0,0,0,2.946,0v-.747a.252.252,0,0,0-.257-.264h-1.068c-.163,0-.251.163-.251.32s.088.32.251.32h.509v.371c0,.49-.251.722-.659.722s-.653-.232-.653-.722v-1.752C138.883,197.737,139.122,197.5,139.542,197.5Zm0,0" transform="translate(386.326 -35.117)" fill="#676f75"/>
      <path id="Path_1960" data-name="Path 1960" d="M246.444,196.793c-.207,0-.408.075-.408.251v4.082c0,.17.2.258.408.258s.408-.088.408-.258v-4.082C246.852,196.868,246.645,196.793,246.444,196.793Zm0,0" transform="translate(282.575 -35.121)" fill="#676f75"/>
      <path id="Path_1961" data-name="Path 1961" d="M304.82,196.793h-2.192c-.182,0-.358.088-.358.257v4.076c0,.17.2.258.408.258s.408-.088.408-.258v-1.721h.961c.176,0,.251-.17.251-.314,0-.169-.088-.326-.251-.326h-.961v-1.256h1.734c.163,0,.251-.17.251-.364C305.071,196.975,305,196.793,304.82,196.793Zm0,0" transform="translate(228.536 -35.121)" fill="#676f75"/>
    </g>
  </g>
</svg>
