<svg xmlns="http://www.w3.org/2000/svg" width="12.5" height="10.744" viewBox="0 0 12.5 10.744">
  <defs>
    <style>
      .cls-1 {
        fill: none;
        stroke: #707070;
        stroke-width: 0.5px;
      }
    </style>
  </defs>
  <g id="Group_698" data-name="Group 698" transform="translate(-5038.481 107.693)">
    <path id="Path_1994" data-name="Path 1994" class="cls-1" d="M40.732,65.735c0-2.573,2.26-2.572,2.761-3.245l.057-.307a2.459,2.459,0,0,1-1.2-2.225,2.2,2.2,0,0,1,1.927-2.4,2.007,2.007,0,0,1,1.814,1.6,2.933,2.933,0,0,0-1.854,2.868,3.191,3.191,0,0,0,.985,2.368c-.1.05-.208.1-.3.146a4.233,4.233,0,0,0-1.671,1.2ZM46.757,67.8H43.188c0-2.573,2.26-2.572,2.761-3.245l.057-.307a2.459,2.459,0,0,1-1.2-2.225,2.2,2.2,0,0,1,1.927-2.4,2.2,2.2,0,0,1,1.927,2.4,2.467,2.467,0,0,1-1.184,2.216l.065.349c.55.64,2.735.682,2.735,3.211Zm3.459-2.065h0a4.235,4.235,0,0,0-1.672-1.2c-.1-.046-.2-.1-.3-.146a3.2,3.2,0,0,0,.985-2.368,2.933,2.933,0,0,0-1.854-2.868,2.007,2.007,0,0,1,1.814-1.6,2.2,2.2,0,0,1,1.927,2.4,2.467,2.467,0,0,1-1.184,2.216l.065.349c.55.64,2.735.682,2.735,3.212Z" transform="translate(4997.999 -165)"/>
  </g>
</svg>
