<svg xmlns="http://www.w3.org/2000/svg" width="664.295" height="540.568" viewBox="0 0 664.295 540.568">
  <g id="Group_7443" data-name="Group 7443" transform="translate(-7632 -4642.574)">
    <g id="Group_7388" data-name="Group 7388" transform="translate(7797.327 4896.264)">
      <path id="Path_7567" data-name="Path 7567" d="M392.218,259.794a16.383,16.383,0,1,0-28.641,15.918c4.4,7.909,34.326,28.033,34.326,28.033S396.614,267.7,392.218,259.794Z" transform="translate(-361.511 -251.366)" fill="#ffbc00"/>
      <path id="Path_7568" data-name="Path 7568" d="M382.685,261.551a8.081,8.081,0,1,0-3.138,10.989A8.081,8.081,0,0,0,382.685,261.551Z" transform="translate(-359.235 -249.09)" fill="#b810fd"/>
    </g>
    <g id="Group_7392" data-name="Group 7392" transform="translate(7633 4643.574)" opacity="0.5">
      <g id="Group_7389" data-name="Group 7389" transform="translate(512.244)">
        <circle id="Ellipse_3487" data-name="Ellipse 3487" cx="58.204" cy="58.204" r="58.204" fill="none" stroke="#efefef" stroke-miterlimit="10" stroke-width="2" stroke-dasharray="3"/>
        <circle id="Ellipse_3488" data-name="Ellipse 3488" cx="46.603" cy="46.603" r="46.603" transform="translate(11.601 11.601)" fill="none" stroke="#efefef" stroke-miterlimit="10" stroke-width="2" stroke-dasharray="3"/>
        <circle id="Ellipse_3489" data-name="Ellipse 3489" cx="30.216" cy="30.216" r="30.216" transform="translate(27.988 27.988)" fill="none" stroke="#efefef" stroke-miterlimit="10" stroke-width="2" stroke-dasharray="3"/>
      </g>
      <g id="Group_7390" data-name="Group 7390" transform="translate(0 422.159)">
        <circle id="Ellipse_3490" data-name="Ellipse 3490" cx="58.204" cy="58.204" r="58.204" fill="none" stroke="#efefef" stroke-miterlimit="10" stroke-width="2" stroke-dasharray="3"/>
        <circle id="Ellipse_3491" data-name="Ellipse 3491" cx="46.603" cy="46.603" r="46.603" transform="translate(11.601 11.601)" fill="none" stroke="#efefef" stroke-miterlimit="10" stroke-width="2" stroke-dasharray="3"/>
        <circle id="Ellipse_3492" data-name="Ellipse 3492" cx="30.216" cy="30.216" r="30.216" transform="translate(27.988 27.988)" fill="none" stroke="#efefef" stroke-miterlimit="10" stroke-width="2" stroke-dasharray="3"/>
      </g>
      <g id="Group_7391" data-name="Group 7391" transform="translate(520.459 373.714)">
        <circle id="Ellipse_3493" data-name="Ellipse 3493" cx="58.204" cy="58.204" r="58.204" transform="translate(0)" fill="none" stroke="#efefef" stroke-miterlimit="10" stroke-width="2" stroke-dasharray="3"/>
        <circle id="Ellipse_3494" data-name="Ellipse 3494" cx="46.603" cy="46.603" r="46.603" transform="translate(11.601 11.601)" fill="none" stroke="#efefef" stroke-miterlimit="10" stroke-width="2" stroke-dasharray="3"/>
        <circle id="Ellipse_3495" data-name="Ellipse 3495" cx="30.216" cy="30.216" r="30.216" transform="translate(27.988 27.988)" fill="none" stroke="#efefef" stroke-miterlimit="10" stroke-width="2" stroke-dasharray="3"/>
      </g>
    </g>
    <g id="Group_7397" data-name="Group 7397" transform="translate(7966.604 4729.18)">
      <g id="Group_7394" data-name="Group 7394">
        <path id="Path_7569" data-name="Path 7569" d="M690.265,198.659l18.1-68.583-71.714,14.965,19.609,19.609-49.225,50.564-34.348-34.349-88.29,88.29,16.179,16.179,72.111-72.111,34.348,34.349,65.386-66.761Z" transform="translate(-484.393 -130.076)" fill="#00c8ff"/>
        <g id="Group_7393" data-name="Group 7393">
          <path id="Path_7570" data-name="Path 7570" d="M702.94,131.207l-16.72,63.366-17.847-17.847-65.386,66.761-34.348-34.349-72.111,72.111-12.114-12.114-.02.02,16.179,16.179,72.111-72.111,34.348,34.349,65.386-66.761,17.848,17.847,18.1-68.583Z" transform="translate(-484.393 -130.076)" fill="#00aede"/>
        </g>
        <path id="Path_7571" data-name="Path 7571" d="M634.306,171.751l9.349-32.161-35.3,6.74Z" transform="translate(-437.59 -126.484)" fill="#3dd5ff"/>
      </g>
      <g id="Group_7396" data-name="Group 7396" transform="translate(158.947 56.715)">
        <path id="Path_7572" data-name="Path 7572" d="M729.818,171.247l-41.639,8.689,11.385,11.385L670.983,220.68,651.04,200.736,599.776,252l9.394,9.394,41.869-41.869,19.943,19.944L708.948,200.7l10.363,10.363Z" transform="translate(-599.776 -171.247)" fill="#00c8ff"/>
        <g id="Group_7395" data-name="Group 7395">
          <path id="Path_7573" data-name="Path 7573" d="M724.4,172.378l-9.131,34.6L704.9,196.62l-37.965,38.763L647,215.438l-41.869,41.869-5.329-5.329-.02.02,9.394,9.394,41.869-41.869,19.943,19.944L708.948,200.7l10.363,10.363,10.507-39.821Z" transform="translate(-599.776 -171.247)" fill="#00aede"/>
        </g>
        <path id="Path_7574" data-name="Path 7574" d="M672.685,181.213l12.532,12.532,4.383-16.2Z" transform="translate(-572.249 -168.867)" fill="#3dd5ff"/>
      </g>
    </g>
    <g id="Group_7402" data-name="Group 7402" transform="translate(7820.688 4853.994)">
      <g id="Group_7398" data-name="Group 7398" transform="translate(0 220.211)">
        <path id="Path_7575" data-name="Path 7575" d="M405.644,413.366V428.72a4.589,4.589,0,0,1-4.021,4.63,4.459,4.459,0,0,1-4.9-4.438V413.2a22.293,22.293,0,0,0-18.258,21.92v7.537a4.565,4.565,0,0,0,4.565,4.564h35.453a4.565,4.565,0,0,0,4.565-4.564v-7.537A22.3,22.3,0,0,0,405.644,413.366Z" transform="translate(-378.469 -368.207)" fill="#e6e6e6"/>
        <path id="Path_7576" data-name="Path 7576" d="M513.15,380.537a49.3,49.3,0,0,1-31.724,37.223c-3.456,1.2-7.246,2-10.752.953s-6.519-4.455-6.02-8.079c.451-3.274,3.681-5.7,6.979-5.944s6.514,1.339,8.973,3.55c6.393,5.753,8.082,15.657,5.222,23.768s-9.655,14.426-17.422,18.122-16.462,5.009-25.052,5.4a127.117,127.117,0,0,1-39.43-4.392" transform="translate(-368.858 -380.537)" fill="none" stroke="#e6e6e6" stroke-miterlimit="10" stroke-width="3"/>
      </g>
      <g id="Group_7401" data-name="Group 7401" transform="translate(82.862)">
        <g id="Group_7399" data-name="Group 7399">
          <path id="Path_7577" data-name="Path 7577" d="M605.942,377.588H539.5l-36.388,78.751H642.33Z" transform="translate(-414.271 -161.44)" fill="#a1ebff"/>
          <rect id="Rectangle_3429" data-name="Rectangle 3429" width="316.901" height="222.521" rx="10.37" fill="#e6e6e6"/>
          <rect id="Rectangle_3430" data-name="Rectangle 3430" width="275.359" height="193.351" transform="translate(20.771 14.585)" fill="#dd3468"/>
          <path id="Path_7578" data-name="Path 7578" d="M650.224,443.95H502.835a9.809,9.809,0,0,1-9.808-9.808h0a9.809,9.809,0,0,1,9.808-9.808H650.224a9.808,9.808,0,0,1,9.808,9.808h0A9.808,9.808,0,0,1,650.224,443.95Z" transform="translate(-418.079 -143.79)" fill="#0a8aad"/>
        </g>
        <g id="Group_7400" data-name="Group 7400" transform="translate(20.771 14.585)">
          <path id="Path_7579" data-name="Path 7579" d="M499.844,231.268,453.7,277.414v35.719l81.864-81.864Z" transform="translate(-453.699 -231.268)" fill="#005ccd" opacity="0.22"/>
          <path id="Path_7580" data-name="Path 7580" d="M593.39,231.268,453.7,370.959v19.323L612.713,231.268Z" transform="translate(-453.699 -231.268)" fill="#005ccd" opacity="0.22"/>
          <path id="Path_7581" data-name="Path 7581" d="M723.961,231.268H660.548L467.2,424.62H546L723.961,246.663Z" transform="translate(-448.603 -231.268)" fill="#005ccd" opacity="0.22"/>
          <path id="Path_7582" data-name="Path 7582" d="M686.892,283.418,565.379,404.93h29.249l92.264-92.264Z" transform="translate(-411.534 -211.579)" fill="#0a8aad" opacity="0.22"/>
        </g>
      </g>
    </g>
    <g id="Group_7408" data-name="Group 7408" transform="translate(7835.949 4687.688)">
      <g id="Group_7403" data-name="Group 7403" transform="translate(40.885 38.701)">
        <path id="Path_7583" data-name="Path 7583" d="M455.318,164.142h0a5.146,5.146,0,0,1-7.278,0l-28.813-28.814,7.278-7.278,28.813,28.814A5.146,5.146,0,0,1,455.318,164.142Z" transform="translate(-419.227 -128.05)" fill="#ebebeb"/>
        <path id="Path_7584" data-name="Path 7584" d="M449.843,160.838l-28.814-28.813-1.8,1.8,28.813,28.814a5.146,5.146,0,0,0,7.278,0,5.049,5.049,0,0,0,.776-1.028A5.134,5.134,0,0,1,449.843,160.838Z" transform="translate(-419.227 -126.549)" fill="#fff"/>
        <path id="Path_7585" data-name="Path 7585" d="M423.471,129.483,452.284,158.3a5.144,5.144,0,0,1,.643,6.49,5.138,5.138,0,0,0,.788-7.921L424.9,128.05Z" transform="translate(-417.625 -128.05)" fill="#fff"/>
      </g>
      <g id="Group_7404" data-name="Group 7404">
        <circle id="Ellipse_3496" data-name="Ellipse 3496" cx="25.197" cy="25.197" r="25.197" transform="translate(0 8.026) rotate(-9.165)" fill="#fff"/>
        <path id="Path_7586" data-name="Path 7586" d="M429.439,105.891a25.192,25.192,0,0,1-31.047,39.569,25.193,25.193,0,1,0,31.047-39.569Z" transform="translate(-386.208 -97.715)" fill="#ebebeb"/>
        <circle id="Ellipse_3497" data-name="Ellipse 3497" cx="19.123" cy="19.123" r="19.123" transform="translate(4.14 39.791) rotate(-68.775)" fill="#00c8ff"/>
        <path id="Path_7587" data-name="Path 7587" d="M428.675,111.2A19.11,19.11,0,0,1,398.527,134.2,19.112,19.112,0,1,0,428.675,111.2Z" transform="translate(-386.157 -95.711)" fill="#00b4e6"/>
        <path id="Path_7588" data-name="Path 7588" d="M413.985,123.194c-3.557,4.8-8.96,6.834-12.067,4.532s-2.745-8.06.81-12.865,8.96-6.833,12.067-4.532S417.54,118.389,413.985,123.194Z" transform="translate(-385.675 -96.397)" fill="#52d9ff"/>
      </g>
      <g id="Group_7405" data-name="Group 7405" transform="translate(61.38 59.023)">
        <path id="Path_7589" data-name="Path 7589" d="M443.273,145.395l-6.576,6.576a1.517,1.517,0,0,1-2.148,0h0a1.52,1.52,0,0,1,0-2.148l6.576-6.576a1.517,1.517,0,0,1,2.148,0h0A1.517,1.517,0,0,1,443.273,145.395Z" transform="translate(-434.104 -142.802)" fill="#ebebeb"/>
        <path id="Path_7590" data-name="Path 7590" d="M443.21,143.184a1.446,1.446,0,0,0-.326-.216,1.5,1.5,0,0,1-.216,1.821l-6.576,6.576a1.5,1.5,0,0,1-1.821.216,1.446,1.446,0,0,0,.216.326,1.517,1.517,0,0,0,2.148,0l6.576-6.576A1.517,1.517,0,0,0,443.21,143.184Z" transform="translate(-434.042 -142.739)" fill="#f5f5f5"/>
        <path id="Path_7591" data-name="Path 7591" d="M435.111,150.386l6.576-6.576a1.5,1.5,0,0,1,1.81-.225,1.457,1.457,0,0,0-.225-.337,1.517,1.517,0,0,0-2.148,0l-6.576,6.576a1.52,1.52,0,0,0,0,2.148,1.469,1.469,0,0,0,.337.225A1.5,1.5,0,0,1,435.111,150.386Z" transform="translate(-434.104 -142.802)" fill="#dbdbdb"/>
      </g>
      <g id="Group_7406" data-name="Group 7406" transform="translate(64.577 62.221)">
        <path id="Path_7592" data-name="Path 7592" d="M445.594,147.715l-6.576,6.576a1.517,1.517,0,0,1-2.148,0h0a1.52,1.52,0,0,1,0-2.148l6.576-6.576a1.52,1.52,0,0,1,2.148,0h0A1.517,1.517,0,0,1,445.594,147.715Z" transform="translate(-436.425 -145.124)" fill="#ebebeb"/>
        <path id="Path_7593" data-name="Path 7593" d="M445.531,145.505a1.445,1.445,0,0,0-.326-.216,1.5,1.5,0,0,1-.216,1.821l-6.576,6.576a1.5,1.5,0,0,1-1.821.216,1.447,1.447,0,0,0,.216.326,1.517,1.517,0,0,0,2.148,0l6.576-6.576A1.517,1.517,0,0,0,445.531,145.505Z" transform="translate(-436.363 -145.061)" fill="#f5f5f5"/>
        <path id="Path_7594" data-name="Path 7594" d="M437.432,152.706l6.578-6.576a1.5,1.5,0,0,1,1.809-.225,1.454,1.454,0,0,0-.225-.337,1.52,1.52,0,0,0-2.148,0l-6.576,6.576a1.52,1.52,0,0,0,0,2.148,1.425,1.425,0,0,0,.338.225A1.5,1.5,0,0,1,437.432,152.706Z" transform="translate(-436.425 -145.124)" fill="#dbdbdb"/>
      </g>
      <g id="Group_7407" data-name="Group 7407" transform="translate(67.774 65.418)">
        <path id="Path_7595" data-name="Path 7595" d="M447.915,150.036l-6.576,6.576a1.517,1.517,0,0,1-2.148,0h0a1.52,1.52,0,0,1,0-2.148l6.576-6.576a1.52,1.52,0,0,1,2.148,0h0A1.517,1.517,0,0,1,447.915,150.036Z" transform="translate(-438.747 -147.445)" fill="#ebebeb"/>
        <path id="Path_7596" data-name="Path 7596" d="M447.852,147.826a1.467,1.467,0,0,0-.325-.216,1.5,1.5,0,0,1-.218,1.821l-6.576,6.576a1.5,1.5,0,0,1-1.821.218,1.47,1.47,0,0,0,.216.325,1.517,1.517,0,0,0,2.148,0l6.576-6.576A1.517,1.517,0,0,0,447.852,147.826Z" transform="translate(-438.684 -147.382)" fill="#f5f5f5"/>
        <path id="Path_7597" data-name="Path 7597" d="M439.753,155.029l6.578-6.576a1.494,1.494,0,0,1,1.809-.225,1.463,1.463,0,0,0-.225-.339,1.52,1.52,0,0,0-2.148,0l-6.576,6.576a1.52,1.52,0,0,0,0,2.148,1.463,1.463,0,0,0,.339.225A1.5,1.5,0,0,1,439.753,155.029Z" transform="translate(-438.747 -147.445)" fill="#dbdbdb"/>
      </g>
    </g>
    <g id="Group_7415" data-name="Group 7415" transform="translate(7952.176 4655.175)">
      <g id="Group_7410" data-name="Group 7410" transform="translate(56.966 84.309)">
        <g id="Group_7409" data-name="Group 7409">
          <path id="Path_7598" data-name="Path 7598" d="M533.23,150.079l-2.513-1.451a6.392,6.392,0,0,0,0-2.666l2.513-1.451a.732.732,0,0,0,.269-1l-1.256-2.177a.733.733,0,0,0-1-.267l-2.52,1.455a6.434,6.434,0,0,0-2.3-1.335v-2.9a.732.732,0,0,0-.731-.731h-2.513a.732.732,0,0,0-.732.731v2.9a6.432,6.432,0,0,0-2.3,1.335l-2.518-1.455a.733.733,0,0,0-1,.267l-1.256,2.177a.73.73,0,0,0,.267,1l2.513,1.451a6.392,6.392,0,0,0,0,2.666l-2.513,1.451a.73.73,0,0,0-.267,1l1.256,2.177a.73.73,0,0,0,1,.267l2.518-1.455a6.412,6.412,0,0,0,2.3,1.335v2.9a.731.731,0,0,0,.732.73h2.513a.731.731,0,0,0,.731-.73v-2.9a6.414,6.414,0,0,0,2.3-1.335l2.52,1.455a.731.731,0,0,0,1-.267l1.256-2.177A.732.732,0,0,0,533.23,150.079Z" transform="translate(-515.272 -137.556)" fill="#ffd900"/>
          <circle id="Ellipse_3498" data-name="Ellipse 3498" cx="3.286" cy="3.286" r="3.286" transform="translate(5.875 6.454)" fill="#ca10fd"/>
        </g>
      </g>
      <g id="Group_7412" data-name="Group 7412" transform="translate(68.557 32.032)">
        <g id="Group_7411" data-name="Group 7411">
          <path id="Path_7599" data-name="Path 7599" d="M551.072,118.705l-3.832-2.214a9.773,9.773,0,0,0,0-4.064l3.832-2.212a1.113,1.113,0,0,0,.408-1.522l-1.916-3.319a1.113,1.113,0,0,0-1.522-.408l-3.842,2.218a9.773,9.773,0,0,0-3.51-2.036v-4.427a1.114,1.114,0,0,0-1.114-1.114h-3.832a1.114,1.114,0,0,0-1.114,1.114v4.427a9.748,9.748,0,0,0-3.51,2.036l-3.842-2.218a1.115,1.115,0,0,0-1.524.408l-1.916,3.319a1.114,1.114,0,0,0,.408,1.522l3.834,2.212a9.713,9.713,0,0,0,0,4.064l-3.834,2.214a1.114,1.114,0,0,0-.408,1.522l1.916,3.319a1.116,1.116,0,0,0,1.524.409l3.842-2.218a9.765,9.765,0,0,0,3.51,2.035V128.2a1.114,1.114,0,0,0,1.114,1.114h3.832a1.114,1.114,0,0,0,1.114-1.114v-4.427a9.79,9.79,0,0,0,3.51-2.035l3.842,2.218a1.114,1.114,0,0,0,1.522-.409l1.916-3.319A1.113,1.113,0,0,0,551.072,118.705Z" transform="translate(-523.687 -99.607)" fill="#d9eaf2"/>
          <path id="Path_7600" data-name="Path 7600" d="M540.214,111.764a5.012,5.012,0,1,0-5.012,5.012A5.012,5.012,0,0,0,540.214,111.764Z" transform="translate(-521.231 -96.909)" fill="#ca10fd"/>
        </g>
      </g>
      <g id="Group_7414" data-name="Group 7414">
        <g id="Group_7413" data-name="Group 7413">
          <path id="Path_7601" data-name="Path 7601" d="M518.078,107.149l-6.18-3.568a15.757,15.757,0,0,0,0-6.553l6.18-3.568a1.8,1.8,0,0,0,.658-2.455l-3.09-5.352A1.8,1.8,0,0,0,513.19,85L507,88.573a15.749,15.749,0,0,0-5.659-3.283V78.152a1.8,1.8,0,0,0-1.8-1.8h-6.18a1.8,1.8,0,0,0-1.8,1.8V85.29a15.743,15.743,0,0,0-5.66,3.283L479.706,85a1.8,1.8,0,0,0-2.455.658l-3.09,5.352a1.8,1.8,0,0,0,.657,2.455L481,97.028a15.7,15.7,0,0,0,0,6.553l-6.181,3.568a1.8,1.8,0,0,0-.657,2.456l3.09,5.352a1.8,1.8,0,0,0,2.455.658l6.195-3.578a15.76,15.76,0,0,0,5.66,3.281v7.14a1.8,1.8,0,0,0,1.8,1.8h6.18a1.8,1.8,0,0,0,1.8-1.8v-7.14A15.766,15.766,0,0,0,507,112.038l6.195,3.578a1.8,1.8,0,0,0,2.456-.658l3.09-5.352A1.8,1.8,0,0,0,518.078,107.149Z" transform="translate(-473.92 -76.354)" fill="#00c8ff"/>
          <path id="Path_7602" data-name="Path 7602" d="M500.569,95.956a8.081,8.081,0,1,0-8.081,8.081A8.081,8.081,0,0,0,500.569,95.956Z" transform="translate(-469.96 -72.005)" fill="#ca10fd"/>
        </g>
      </g>
    </g>
    <g id="Group_7434" data-name="Group 7434" transform="translate(7944.274 4794.313)">
      <rect id="Rectangle_3431" data-name="Rectangle 3431" width="123.284" height="182.868" rx="5.931" transform="translate(4.073 2.5)" fill="#a9c8d9"/>
      <rect id="Rectangle_3432" data-name="Rectangle 3432" width="123.284" height="182.868" rx="5.931" fill="#d9eaf2"/>
      <g id="Group_7418" data-name="Group 7418" transform="translate(11.525 13.5)">
        <rect id="Rectangle_3433" data-name="Rectangle 3433" width="100.234" height="21.892" fill="#fff"/>
        <g id="Group_7417" data-name="Group 7417" transform="translate(7.073 3.384)">
          <path id="Path_7603" data-name="Path 7603" d="M496.809,197.177a7.562,7.562,0,1,0-7.561,7.561A7.563,7.563,0,0,0,496.809,197.177Z" transform="translate(-481.685 -189.614)" fill="#f900ff"/>
          <g id="Group_7416" data-name="Group 7416" transform="translate(24.172 0.722)">
            <path id="Path_7604" data-name="Path 7604" d="M559.769,192.895H500.611a1.379,1.379,0,0,1-1.379-1.379h0a1.378,1.378,0,0,1,1.379-1.378h59.158a1.378,1.378,0,0,1,1.378,1.378h0A1.378,1.378,0,0,1,559.769,192.895Z" transform="translate(-499.232 -190.138)" fill="#dbdbdb"/>
            <path id="Path_7605" data-name="Path 7605" d="M559.769,196.861H500.611a1.379,1.379,0,0,1-1.379-1.379h0a1.379,1.379,0,0,1,1.379-1.379h59.158a1.378,1.378,0,0,1,1.378,1.379h0A1.379,1.379,0,0,1,559.769,196.861Z" transform="translate(-499.232 -188.641)" fill="#dbdbdb"/>
            <path id="Path_7606" data-name="Path 7606" d="M559.769,200.826H500.611a1.379,1.379,0,0,1-1.379-1.379h0a1.379,1.379,0,0,1,1.379-1.379h59.158a1.378,1.378,0,0,1,1.378,1.379h0A1.378,1.378,0,0,1,559.769,200.826Z" transform="translate(-499.232 -187.144)" fill="#dbdbdb"/>
          </g>
        </g>
      </g>
      <g id="Group_7421" data-name="Group 7421" transform="translate(11.525 40.826)">
        <rect id="Rectangle_3434" data-name="Rectangle 3434" width="100.234" height="21.892" fill="#fff"/>
        <g id="Group_7420" data-name="Group 7420" transform="translate(7.073 3.385)">
          <path id="Path_7607" data-name="Path 7607" d="M496.809,217.012a7.562,7.562,0,1,0-7.561,7.561A7.561,7.561,0,0,0,496.809,217.012Z" transform="translate(-481.685 -209.451)" fill="#bf00ff"/>
          <g id="Group_7419" data-name="Group 7419" transform="translate(24.172 0.72)">
            <path id="Path_7608" data-name="Path 7608" d="M559.769,212.73H500.611a1.378,1.378,0,0,1-1.379-1.378h0a1.379,1.379,0,0,1,1.379-1.379h59.158a1.378,1.378,0,0,1,1.378,1.379h0A1.378,1.378,0,0,1,559.769,212.73Z" transform="translate(-499.232 -209.974)" fill="#dbdbdb"/>
            <path id="Path_7609" data-name="Path 7609" d="M559.769,216.7H500.611a1.379,1.379,0,0,1-1.379-1.379h0a1.379,1.379,0,0,1,1.379-1.379h59.158a1.378,1.378,0,0,1,1.378,1.379h0A1.378,1.378,0,0,1,559.769,216.7Z" transform="translate(-499.232 -208.477)" fill="#dbdbdb"/>
            <path id="Path_7610" data-name="Path 7610" d="M559.769,220.662H500.611a1.379,1.379,0,0,1-1.379-1.379h0a1.379,1.379,0,0,1,1.379-1.379h59.158a1.378,1.378,0,0,1,1.378,1.379h0A1.378,1.378,0,0,1,559.769,220.662Z" transform="translate(-499.232 -206.98)" fill="#dbdbdb"/>
          </g>
        </g>
      </g>
      <g id="Group_7424" data-name="Group 7424" transform="translate(11.525 68.151)">
        <rect id="Rectangle_3435" data-name="Rectangle 3435" width="100.234" height="21.892" fill="#fff"/>
        <g id="Group_7423" data-name="Group 7423" transform="translate(7.073 3.384)">
          <path id="Path_7611" data-name="Path 7611" d="M496.809,236.848a7.562,7.562,0,1,0-7.561,7.561A7.561,7.561,0,0,0,496.809,236.848Z" transform="translate(-481.685 -229.287)" fill="#9600ff"/>
          <g id="Group_7422" data-name="Group 7422" transform="translate(24.172 0.72)">
            <path id="Path_7612" data-name="Path 7612" d="M559.769,232.568H500.611a1.379,1.379,0,0,1-1.379-1.379h0a1.379,1.379,0,0,1,1.379-1.379h59.158a1.378,1.378,0,0,1,1.378,1.379h0A1.378,1.378,0,0,1,559.769,232.568Z" transform="translate(-499.232 -229.81)" fill="#dbdbdb"/>
            <path id="Path_7613" data-name="Path 7613" d="M559.769,236.533H500.611a1.379,1.379,0,0,1-1.379-1.379h0a1.379,1.379,0,0,1,1.379-1.379h59.158a1.378,1.378,0,0,1,1.378,1.379h0A1.378,1.378,0,0,1,559.769,236.533Z" transform="translate(-499.232 -228.313)" fill="#dbdbdb"/>
            <path id="Path_7614" data-name="Path 7614" d="M559.769,240.5H500.611a1.379,1.379,0,0,1-1.379-1.379h0a1.379,1.379,0,0,1,1.379-1.379h59.158a1.378,1.378,0,0,1,1.378,1.379h0A1.378,1.378,0,0,1,559.769,240.5Z" transform="translate(-499.232 -226.816)" fill="#dbdbdb"/>
          </g>
        </g>
      </g>
      <g id="Group_7427" data-name="Group 7427" transform="translate(11.525 95.476)">
        <rect id="Rectangle_3436" data-name="Rectangle 3436" width="100.234" height="21.892" fill="#fff"/>
        <g id="Group_7426" data-name="Group 7426" transform="translate(7.073 3.384)">
          <path id="Path_7615" data-name="Path 7615" d="M496.809,256.684a7.562,7.562,0,1,0-7.561,7.561A7.562,7.562,0,0,0,496.809,256.684Z" transform="translate(-481.685 -249.123)" fill="#b8e051"/>
          <g id="Group_7425" data-name="Group 7425" transform="translate(24.172 0.72)">
            <path id="Path_7616" data-name="Path 7616" d="M559.769,252.4H500.611a1.379,1.379,0,0,1-1.379-1.379h0a1.379,1.379,0,0,1,1.379-1.379h59.158a1.378,1.378,0,0,1,1.378,1.379h0A1.378,1.378,0,0,1,559.769,252.4Z" transform="translate(-499.232 -249.646)" fill="#dbdbdb"/>
            <path id="Path_7617" data-name="Path 7617" d="M559.769,256.369H500.611a1.379,1.379,0,0,1-1.379-1.379h0a1.379,1.379,0,0,1,1.379-1.379h59.158a1.378,1.378,0,0,1,1.378,1.379h0A1.378,1.378,0,0,1,559.769,256.369Z" transform="translate(-499.232 -248.149)" fill="#dbdbdb"/>
            <path id="Path_7618" data-name="Path 7618" d="M559.769,260.333H500.611a1.379,1.379,0,0,1-1.379-1.379h0a1.378,1.378,0,0,1,1.379-1.378h59.158a1.378,1.378,0,0,1,1.378,1.378h0A1.378,1.378,0,0,1,559.769,260.333Z" transform="translate(-499.232 -246.652)" fill="#dbdbdb"/>
          </g>
        </g>
      </g>
      <g id="Group_7430" data-name="Group 7430" transform="translate(11.525 122.802)">
        <rect id="Rectangle_3437" data-name="Rectangle 3437" width="100.234" height="21.892" fill="#fff"/>
        <g id="Group_7429" data-name="Group 7429" transform="translate(7.073 3.384)">
          <path id="Path_7619" data-name="Path 7619" d="M496.809,276.52a7.562,7.562,0,1,0-7.561,7.563A7.562,7.562,0,0,0,496.809,276.52Z" transform="translate(-481.685 -268.959)" fill="#ffd900"/>
          <g id="Group_7428" data-name="Group 7428" transform="translate(24.172 0.722)">
            <path id="Path_7620" data-name="Path 7620" d="M559.769,272.24H500.611a1.379,1.379,0,0,1-1.379-1.379h0a1.378,1.378,0,0,1,1.379-1.378h59.158a1.378,1.378,0,0,1,1.378,1.378h0A1.378,1.378,0,0,1,559.769,272.24Z" transform="translate(-499.232 -269.483)" fill="#dbdbdb"/>
            <path id="Path_7621" data-name="Path 7621" d="M559.769,276.2H500.611a1.379,1.379,0,0,1-1.379-1.379h0a1.378,1.378,0,0,1,1.379-1.378h59.158a1.378,1.378,0,0,1,1.378,1.378h0A1.378,1.378,0,0,1,559.769,276.2Z" transform="translate(-499.232 -267.986)" fill="#dbdbdb"/>
            <path id="Path_7622" data-name="Path 7622" d="M559.769,280.169H500.611a1.378,1.378,0,0,1-1.379-1.378h0a1.379,1.379,0,0,1,1.379-1.379h59.158a1.378,1.378,0,0,1,1.378,1.379h0A1.378,1.378,0,0,1,559.769,280.169Z" transform="translate(-499.232 -266.489)" fill="#dbdbdb"/>
          </g>
        </g>
      </g>
      <g id="Group_7433" data-name="Group 7433" transform="translate(11.525 150.128)">
        <rect id="Rectangle_3438" data-name="Rectangle 3438" width="100.234" height="21.892" fill="#fff"/>
        <g id="Group_7432" data-name="Group 7432" transform="translate(7.073 3.385)">
          <path id="Path_7623" data-name="Path 7623" d="M496.809,296.357a7.562,7.562,0,1,0-7.561,7.561A7.561,7.561,0,0,0,496.809,296.357Z" transform="translate(-481.685 -288.796)" fill="#ff4d00"/>
          <g id="Group_7431" data-name="Group 7431" transform="translate(24.172 0.72)">
            <path id="Path_7624" data-name="Path 7624" d="M559.769,292.076H500.611a1.379,1.379,0,0,1-1.379-1.379h0a1.378,1.378,0,0,1,1.379-1.378h59.158a1.378,1.378,0,0,1,1.378,1.378h0A1.378,1.378,0,0,1,559.769,292.076Z" transform="translate(-499.232 -289.319)" fill="#dbdbdb"/>
            <path id="Path_7625" data-name="Path 7625" d="M559.769,296.04H500.611a1.378,1.378,0,0,1-1.379-1.378h0a1.379,1.379,0,0,1,1.379-1.379h59.158a1.378,1.378,0,0,1,1.378,1.379h0A1.378,1.378,0,0,1,559.769,296.04Z" transform="translate(-499.232 -287.822)" fill="#dbdbdb"/>
            <path id="Path_7626" data-name="Path 7626" d="M559.769,300.007H500.611a1.38,1.38,0,0,1-1.379-1.379h0a1.379,1.379,0,0,1,1.379-1.379h59.158a1.378,1.378,0,0,1,1.378,1.379h0A1.379,1.379,0,0,1,559.769,300.007Z" transform="translate(-499.232 -286.325)" fill="#dbdbdb"/>
          </g>
        </g>
      </g>
    </g>
    <g id="Group_7435" data-name="Group 7435" transform="translate(7819.737 4783.054)">
      <path id="Path_7627" data-name="Path 7627" d="M458.544,198.819c0-16.368-18.08-29.635-40.383-29.635s-40.382,13.267-40.382,29.635,18.079,29.635,40.382,29.635c.457,0,.882-.088,1.336-.1l17.771,14.862-1.431-17.872C449.237,220.524,458.544,210.511,458.544,198.819Z" transform="translate(-377.779 -169.184)" fill="#efefef"/>
      <path id="Path_7628" data-name="Path 7628" d="M397.964,192.286a5.859,5.859,0,1,0-5.859,5.859A5.858,5.858,0,0,0,397.964,192.286Z" transform="translate(-374.582 -162.673)" fill="#bf00ff"/>
      <path id="Path_7629" data-name="Path 7629" d="M413.919,192.286a5.858,5.858,0,1,0-5.859,5.859A5.858,5.858,0,0,0,413.919,192.286Z" transform="translate(-368.558 -162.673)" fill="#b8e051"/>
      <path id="Path_7630" data-name="Path 7630" d="M429.875,192.286a5.859,5.859,0,1,0-5.859,5.859A5.858,5.858,0,0,0,429.875,192.286Z" transform="translate(-362.534 -162.673)" fill="#ffd900"/>
    </g>
    <g id="Group_7436" data-name="Group 7436" transform="translate(8262.617 4959.2)">
      <path id="Path_7631" data-name="Path 7631" d="M731.515,320.145a16.383,16.383,0,0,0-29.9-13.412c-3.7,8.256-1.908,44.277-1.908,44.277S727.811,328.4,731.515,320.145Z" transform="translate(-699.276 -297.052)" fill="#ffbc00"/>
      <path id="Path_7632" data-name="Path 7632" d="M721.416,314.471a8.081,8.081,0,1,0-10.68,4.065A8.081,8.081,0,0,0,721.416,314.471Z" transform="translate(-696.753 -294.776)" fill="#f311fd"/>
    </g>
    <g id="Group_7442" data-name="Group 7442" transform="translate(7959.179 4893.582)">
      <g id="Group_7439" data-name="Group 7439" transform="translate(67.503 56.343)">
        <g id="Group_7438" data-name="Group 7438" transform="translate(21.318)">
          <g id="Group_7437" data-name="Group 7437">
            <rect id="Rectangle_3439" data-name="Rectangle 3439" width="10.288" height="37.029" transform="translate(0 53.477)" fill="#ffbc00"/>
            <rect id="Rectangle_3440" data-name="Rectangle 3440" width="10.288" height="37.029" transform="translate(20.547 53.477)" fill="#ffbc00"/>
            <rect id="Rectangle_3441" data-name="Rectangle 3441" width="10.288" height="48.608" transform="translate(40.179 41.899)" fill="#ffbc00"/>
            <rect id="Rectangle_3442" data-name="Rectangle 3442" width="10.288" height="78.204" transform="translate(59.731 12.303)" fill="#ffbc00"/>
            <rect id="Rectangle_3443" data-name="Rectangle 3443" width="10.288" height="90.507" transform="translate(80.915)" fill="#ffbc00"/>
            <rect id="Rectangle_3444" data-name="Rectangle 3444" width="10.288" height="72.287" transform="translate(99.731 18.22)" fill="#ffbc00"/>
            <rect id="Rectangle_3445" data-name="Rectangle 3445" width="10.288" height="45.253" transform="translate(118.469 45.253)" fill="#ffbc00"/>
          </g>
        </g>
        <path id="Path_7633" data-name="Path 7633" d="M533.1,352.078H679.661a5.092,5.092,0,0,1,5.091,5.091h0a5.092,5.092,0,0,1-5.091,5.091H533.1a5.092,5.092,0,0,1-5.091-5.091h0A5.092,5.092,0,0,1,533.1,352.078Z" transform="translate(-528.005 -267.002)" fill="#00c8ff"/>
      </g>
      <g id="Group_7440" data-name="Group 7440" transform="translate(170.422)">
        <rect id="Rectangle_3446" data-name="Rectangle 3446" width="34.048" height="24.729" rx="3.244" fill="#fff"/>
        <path id="Path_7634" data-name="Path 7634" d="M604.539,255.081l12.183,9.016,14.6-10.521" transform="translate(-602.028 -247.85)" fill="none" stroke="#005ccd" stroke-miterlimit="10" stroke-width="3.137"/>
      </g>
      <g id="Group_7441" data-name="Group 7441" transform="translate(0 112.465)">
        <rect id="Rectangle_3447" data-name="Rectangle 3447" width="24.67" height="24.67" transform="translate(0 7.069)" stroke-width="1.18" stroke="#fff" stroke-linecap="round" stroke-linejoin="round" fill="none"/>
        <path id="Path_7635" data-name="Path 7635" d="M480.34,350.464l8.147,9.245,28.649-28.649" transform="translate(-478.498 -331.06)" fill="none" stroke="#b8e051" stroke-linecap="round" stroke-linejoin="round" stroke-width="3"/>
      </g>
    </g>
  </g>
</svg>
