<svg xmlns="http://www.w3.org/2000/svg" width="12.8" height="12.8" viewBox="0 0 12.8 12.8">
  <g id="Group_694" data-name="Group 694" transform="translate(0.4 0.4)">
    <path id="Path_1955" data-name="Path 1955" d="M32.055,5.616a1.051,1.051,0,0,0,.73-.3l1.041.519a1.031,1.031,0,0,0-.013.128,1.055,1.055,0,0,0,2.11,0,1.039,1.039,0,0,0-.106-.451l1.412-1.41a1.044,1.044,0,0,0,.452.106,1.055,1.055,0,0,0,1.055-1.053,1.036,1.036,0,0,0-.053-.312l1.227-.918a1.052,1.052,0,1,0-.471-.876,1.036,1.036,0,0,0,.053.312l-1.227.918A1.049,1.049,0,0,0,36.732,3.61L35.32,5.02a1.038,1.038,0,0,0-1.182.19L33.1,4.691a1.03,1.03,0,0,0,.013-.128,1.055,1.055,0,1,0-1.055,1.053Zm0,0" transform="translate(-30.275 0)" fill="none" stroke="#676f75" stroke-width="0.8"/>
    <path id="Path_1956" data-name="Path 1956" d="M11.648,157.786h-.375v-7.434a.352.352,0,0,0-.352-.352H9.516a.352.352,0,0,0-.352.352v7.434h-.7v-5.324a.352.352,0,0,0-.352-.352H6.7a.352.352,0,0,0-.352.352v5.324h-.7v-2.509a.352.352,0,0,0-.352-.352H3.891a.352.352,0,0,0-.352.352v2.509h-.7V153.87a.352.352,0,0,0-.352-.352H1.078a.352.352,0,0,0-.352.352v3.917H.352a.352.352,0,0,0,0,.7h11.3a.352.352,0,0,0,0-.7Zm0,0" transform="translate(0 -146.49)" fill="none" stroke="#676f75" stroke-width="0.8"/>
  </g>
</svg>
