<svg xmlns="http://www.w3.org/2000/svg" width="20.559" height="20.312" viewBox="0 0 20.559 20.312">
  <g id="Group_779" data-name="Group 779" transform="translate(-1249.721 -334.906)">
    <g id="Group_685" data-name="Group 685" transform="translate(5614.138 4694.768)">
      <path id="Path_1588" data-name="Path 1588" d="M209.588,146.781l2.072,3.447-.384,0,.443.742,1.346,0-3.424-5.705c-.067.108-4.662,6.932-4.662,6.932l7.474.008-3.06-5.128C209.477,146.943,209.6,146.759,209.588,146.781Zm-3.058,4.552S208,149.146,208.9,147.8l2.109,3.514Z" transform="translate(-4562.573 -4498.598)" fill="#676f75"/>
      <path id="Path_1590" data-name="Path 1590" d="M188.072,150.482l-4.461.01,2.36-3.51.185.308.477-.709-.619-1.064-3.87,5.72,6.371-.015Z" transform="translate(-4540.283 -4498.85)" fill="#676f75"/>
    </g>
    <g id="Group_684" data-name="Group 684" transform="translate(5 -4)">
      <path id="Path_1989" data-name="Path 1989" d="M.669,10.11a9.331,9.331,0,0,1,16.99-5.332H14v.667h4.666V1.112H18v3A10,10,0,0,0,.5,13.222a.333.333,0,0,0,.317.23.322.322,0,0,0,.1-.017.333.333,0,0,0,.213-.42A9.326,9.326,0,0,1,.669,10.11Z" transform="translate(1245 338.953)" fill="#676f75" stroke="#676f75" stroke-width="0.3"/>
      <path id="Path_1990" data-name="Path 1990" d="M50.227,160.249a.333.333,0,0,0-.633.207,9.333,9.333,0,0,1-16.529,8.238h3.66v-.666H32.059v4.332h.667v-3a10,10,0,0,0,17.5-9.106Z" transform="translate(1214.277 185.7)" fill="#676f75" stroke="#676f75" stroke-width="0.3"/>
    </g>
  </g>
</svg>
