<svg id="Group_695" data-name="Group 695" xmlns="http://www.w3.org/2000/svg" width="12" height="12" viewBox="0 0 12 12">
  <path id="Path_1958" data-name="Path 1958" d="M10.707,0H1.293A1.294,1.294,0,0,0,0,1.293v9.414A1.294,1.294,0,0,0,1.293,12h9.414A1.3,1.3,0,0,0,12,10.707V1.293A1.294,1.294,0,0,0,10.707,0Zm.59,10.707a.591.591,0,0,1-.59.59H1.293a.591.591,0,0,1-.59-.59V1.293A.591.591,0,0,1,1.293.7h9.414a.591.591,0,0,1,.59.59Zm0,0" transform="translate(0 0)" fill="#676f75"/>
  <g id="Group_600" data-name="Group 600" transform="translate(3.233 4.61)">
    <path id="Path_1959" data-name="Path 1959" d="M138.953,197.219a.347.347,0,0,1,.392.373c0,.117.113.155.245.155.162,0,.245-.045.245-.234,0-.453-.381-.724-.9-.724a.782.782,0,0,0-.868.864V198.7a.885.885,0,0,0,1.769,0v-.449a.151.151,0,0,0-.155-.158h-.641c-.1,0-.151.1-.151.192s.053.192.151.192h.306v.223c0,.294-.151.434-.4.434s-.392-.14-.392-.434v-1.052C138.557,197.358,138.7,197.219,138.953,197.219Zm0,0" transform="translate(-138.066 -196.789)" fill="#676f75"/>
    <path id="Path_1960" data-name="Path 1960" d="M246.281,196.793c-.124,0-.245.045-.245.151V199.4c0,.1.121.155.245.155s.245-.053.245-.155v-2.452C246.526,196.838,246.4,196.793,246.281,196.793Zm0,0" transform="translate(-243.502 -196.793)" fill="#676f75"/>
    <path id="Path_1961" data-name="Path 1961" d="M303.8,196.793h-1.316c-.109,0-.215.053-.215.155V199.4c0,.1.121.155.245.155s.245-.053.245-.155v-1.034h.577c.106,0,.151-.1.151-.189,0-.1-.053-.2-.151-.2h-.577v-.754H303.8c.1,0,.151-.1.151-.219C303.952,196.9,303.907,196.793,303.8,196.793Zm0,0" transform="translate(-298.418 -196.793)" fill="#676f75"/>
  </g>
</svg>
