<svg xmlns="http://www.w3.org/2000/svg" width="49" height="39.401" viewBox="0 0 49 39.401">
  <g id="Group_777" data-name="Group 777" transform="translate(4358.138 4353.339)">
    <path id="Path_1588" data-name="Path 1588" d="M231.149,153.9l11.764,19.571-2.18-.013c.07.116,2.513,4.212,2.513,4.212l7.644-.018-19.438-32.393c-.383.613-26.472,39.358-26.472,39.358l42.438.044-17.374-29.114C230.519,154.818,231.2,153.775,231.149,153.9Zm-17.362,25.843s8.369-12.415,13.474-20.056l11.972,19.951Z" transform="translate(-4560.027 -4498.598)" fill="#dd3468"/>
    <path id="Path_1590" data-name="Path 1590" d="M215.8,173.71l-25.326.056,13.4-19.927,1.05,1.746,2.709-4.027-3.514-6.042-21.973,32.476,36.17-.086Z" transform="translate(-4540.283 -4498.82)" fill="#dd3468"/>
  </g>
</svg>
