<svg xmlns="http://www.w3.org/2000/svg" xmlns:xlink="http://www.w3.org/1999/xlink" width="621" height="571" viewBox="0 0 621 571">
  <defs>
    <linearGradient id="linear-gradient" x1="0.5" y1="-0.024" x2="0.5" y2="0.981" gradientUnits="objectBoundingBox">
      <stop offset="0.006" stop-color="#fcc77a"/>
      <stop offset="0.525" stop-color="#f9a262"/>
      <stop offset="1" stop-color="#f67e4a"/>
    </linearGradient>
    <linearGradient id="linear-gradient-2" y1="0.5" x2="1" y2="0.5" gradientUnits="objectBoundingBox">
      <stop offset="0" stop-color="#4d38ff"/>
      <stop offset="1" stop-color="#fd5982"/>
    </linearGradient>
  </defs>
  <g id="Group_7449" data-name="Group 7449" transform="translate(-372.5 -231)">
    <rect id="Rectangle_3037" data-name="Rectangle 3037" width="621" height="571" transform="translate(372.5 231)" fill="#251359"/>
    <g id="Group_522" data-name="Group 522" transform="translate(430.907 258.029)">
      <circle id="Ellipse_1" data-name="Ellipse 1" cx="211.564" cy="211.564" r="211.564" transform="translate(47.955 64.96)" stroke-dasharray="4 3" stroke="#959595" stroke-linecap="round" stroke-linejoin="round" stroke-width="1" fill="none"/>
      <g id="Group_416" data-name="Group 416" transform="translate(12.093 158.019)">
        <g id="Group_411" data-name="Group 411" transform="translate(21.36 95.363)">
          <g id="Group_408" data-name="Group 408">
            <g id="Group_407" data-name="Group 407" transform="translate(0 0.014)">
              <path id="Path_1591" data-name="Path 1591" d="M36.48,97.992s8.075,7.436,4.056,23.516a32.973,32.973,0,0,0-1.607-5.629S37.319,134.374,30.887,140c0,0-7.236-8.041-7.236-23.319a10.925,10.925,0,0,0-2.412,4.824s-3.966-14.67,2.466-23.516Z" transform="translate(-19.053 -97.668)" fill="#fff"/>
              <path id="Path_1592" data-name="Path 1592" d="M36.476,97.99s8.072,7.436,4.053,23.516a32.973,32.973,0,0,0-1.607-5.629S37.312,134.372,30.88,140c0,0-7.236-8.039-7.236-23.316a10.96,10.96,0,0,0-2.412,4.824S17.266,106.834,23.7,97.99Z" transform="translate(-19.065 -97.672)" fill="#fffefc"/>
              <path id="Path_1593" data-name="Path 1593" d="M36.469,97.988s8.075,7.433,4.053,23.516a32.633,32.633,0,0,0-1.607-5.629S37.308,134.367,30.873,140c0,0-7.236-8.041-7.236-23.316a10.96,10.96,0,0,0-2.412,4.824s-3.966-14.673,2.466-23.516Z" transform="translate(-19.078 -97.676)" fill="#fffdfa"/>
              <path id="Path_1594" data-name="Path 1594" d="M36.461,97.985s8.075,7.436,4.053,23.516a32.624,32.624,0,0,0-1.607-5.626S37.3,134.367,30.866,140c0,0-7.236-8.041-7.236-23.319a10.983,10.983,0,0,0-2.412,4.824s-3.966-14.67,2.468-23.516Z" transform="translate(-19.09 -97.681)" fill="#fffcf7"/>
              <path id="Path_1595" data-name="Path 1595" d="M36.454,97.983s8.075,7.436,4.056,23.516a32.793,32.793,0,0,0-1.61-5.629s-1.607,18.495-8.039,24.124c0,0-7.236-8.041-7.236-23.319a10.925,10.925,0,0,0-2.412,4.824s-3.969-14.673,2.466-23.516Z" transform="translate(-19.102 -97.685)" fill="#fffbf5"/>
              <path id="Path_1596" data-name="Path 1596" d="M36.446,97.981s8.075,7.436,4.056,23.516a32.973,32.973,0,0,0-1.607-5.629s-1.61,18.495-8.041,24.121c0,0-7.236-8.039-7.236-23.316A10.925,10.925,0,0,0,21.2,121.5s-3.966-14.673,2.466-23.516Z" transform="translate(-19.114 -97.688)" fill="#fffaf2"/>
              <path id="Path_1597" data-name="Path 1597" d="M36.442,97.979s8.072,7.433,4.053,23.516a32.9,32.9,0,0,0-1.607-5.629s-1.61,18.492-8.041,24.121c0,0-7.236-8.041-7.236-23.316A10.96,10.96,0,0,0,21.2,121.5s-3.966-14.673,2.466-23.516Z" transform="translate(-19.127 -97.692)" fill="#fff8ef"/>
              <path id="Path_1598" data-name="Path 1598" d="M36.435,97.976s8.075,7.436,4.053,23.516a32.623,32.623,0,0,0-1.607-5.626s-1.607,18.492-8.041,24.121c0,0-7.236-8.041-7.236-23.319a10.983,10.983,0,0,0-2.412,4.824s-3.966-14.67,2.466-23.516Z" transform="translate(-19.14 -97.697)" fill="#fff7ed"/>
              <path id="Path_1599" data-name="Path 1599" d="M36.427,97.974s8.075,7.436,4.056,23.516a32.793,32.793,0,0,0-1.61-5.629s-1.607,18.495-8.039,24.124c0,0-7.239-8.041-7.239-23.319a10.96,10.96,0,0,0-2.412,4.824s-3.966-14.673,2.468-23.516Z" transform="translate(-19.152 -97.701)" fill="#fff6ea"/>
              <path id="Path_1600" data-name="Path 1600" d="M36.42,97.972s8.075,7.436,4.056,23.516a32.793,32.793,0,0,0-1.61-5.629s-1.607,18.495-8.039,24.121c0,0-7.236-8.039-7.236-23.316a10.925,10.925,0,0,0-2.412,4.824s-3.969-14.673,2.466-23.516Z" transform="translate(-19.164 -97.705)" fill="#fef5e8"/>
              <path id="Path_1601" data-name="Path 1601" d="M36.412,97.97s8.075,7.433,4.056,23.516a32.9,32.9,0,0,0-1.607-5.629s-1.61,18.492-8.041,24.121c0,0-7.236-8.041-7.236-23.316a10.96,10.96,0,0,0-2.412,4.824S17.2,106.814,23.636,97.97Z" transform="translate(-19.176 -97.708)" fill="#fef4e5"/>
              <path id="Path_1602" data-name="Path 1602" d="M36.408,97.967s8.072,7.436,4.053,23.516a32.892,32.892,0,0,0-1.607-5.626s-1.61,18.492-8.041,24.121c0,0-7.236-8.041-7.236-23.319a10.983,10.983,0,0,0-2.412,4.824s-3.966-14.67,2.466-23.516Z" transform="translate(-19.189 -97.714)" fill="#fef3e2"/>
              <path id="Path_1603" data-name="Path 1603" d="M36.4,97.965s8.075,7.436,4.053,23.516a32.7,32.7,0,0,0-1.607-5.629s-1.607,18.495-8.041,24.124c0,0-7.236-8.041-7.236-23.319a10.96,10.96,0,0,0-2.412,4.824s-3.966-14.673,2.466-23.516Z" transform="translate(-19.201 -97.717)" fill="#fef2e0"/>
              <path id="Path_1604" data-name="Path 1604" d="M36.393,97.963s8.075,7.433,4.056,23.516a32.792,32.792,0,0,0-1.61-5.629s-1.607,18.495-8.039,24.121c0,0-7.239-8.039-7.239-23.316a10.96,10.96,0,0,0-2.412,4.824s-3.966-14.673,2.468-23.516Z" transform="translate(-19.214 -97.721)" fill="#fef1dd"/>
              <path id="Path_1605" data-name="Path 1605" d="M36.386,97.961s8.075,7.433,4.056,23.516a32.722,32.722,0,0,0-1.61-5.629s-1.607,18.492-8.039,24.121c0,0-7.236-8.041-7.236-23.316a10.925,10.925,0,0,0-2.412,4.824S17.176,106.8,23.61,97.961Z" transform="translate(-19.226 -97.725)" fill="#fef0da"/>
              <path id="Path_1606" data-name="Path 1606" d="M36.378,97.958s8.075,7.436,4.056,23.516a32.893,32.893,0,0,0-1.607-5.626s-1.61,18.492-8.041,24.121c0,0-7.236-8.041-7.236-23.319a10.983,10.983,0,0,0-2.412,4.824S17.171,106.8,23.6,97.958Z" transform="translate(-19.238 -97.73)" fill="#feefd8"/>
              <path id="Path_1607" data-name="Path 1607" d="M36.374,97.956s8.072,7.436,4.053,23.516a32.973,32.973,0,0,0-1.607-5.629s-1.61,18.495-8.041,24.124c0,0-7.236-8.041-7.236-23.319a10.96,10.96,0,0,0-2.412,4.824S17.164,106.8,23.6,97.956Z" transform="translate(-19.25 -97.734)" fill="#feedd5"/>
              <path id="Path_1608" data-name="Path 1608" d="M36.367,97.954s8.075,7.433,4.053,23.516a32.7,32.7,0,0,0-1.607-5.629s-1.607,18.495-8.041,24.121c0,0-7.236-8.039-7.236-23.316a10.96,10.96,0,0,0-2.412,4.824S17.157,106.8,23.588,97.954Z" transform="translate(-19.263 -97.737)" fill="#feecd3"/>
              <path id="Path_1609" data-name="Path 1609" d="M36.359,97.952s8.075,7.433,4.056,23.516a32.722,32.722,0,0,0-1.61-5.629S37.2,134.331,30.767,139.96c0,0-7.239-8.041-7.239-23.316a10.96,10.96,0,0,0-2.412,4.824S17.15,106.8,23.584,97.952Z" transform="translate(-19.276 -97.741)" fill="#feebd0"/>
              <path id="Path_1610" data-name="Path 1610" d="M36.352,97.949s8.075,7.436,4.056,23.516a32.714,32.714,0,0,0-1.61-5.626s-1.607,18.492-8.039,24.121c0,0-7.236-8.041-7.236-23.319a10.948,10.948,0,0,0-2.412,4.824s-3.969-14.67,2.466-23.516Z" transform="translate(-19.287 -97.746)" fill="#feeacd"/>
              <path id="Path_1611" data-name="Path 1611" d="M36.344,97.947s8.075,7.436,4.056,23.516a32.973,32.973,0,0,0-1.607-5.629s-1.61,18.495-8.041,24.124c0,0-7.236-8.041-7.236-23.319a10.96,10.96,0,0,0-2.412,4.824s-3.966-14.673,2.466-23.516Z" transform="translate(-19.299 -97.75)" fill="#fee9cb"/>
              <path id="Path_1612" data-name="Path 1612" d="M36.34,97.945s8.072,7.433,4.053,23.516a32.973,32.973,0,0,0-1.607-5.629s-1.61,18.495-8.041,24.121c0,0-7.236-8.039-7.236-23.316a10.96,10.96,0,0,0-2.412,4.824s-3.966-14.673,2.466-23.516Z" transform="translate(-19.312 -97.754)" fill="#fee8c8"/>
              <path id="Path_1613" data-name="Path 1613" d="M36.333,97.942s8.075,7.436,4.053,23.519a32.634,32.634,0,0,0-1.607-5.629s-1.607,18.492-8.041,24.121c0,0-7.236-8.041-7.236-23.316a10.96,10.96,0,0,0-2.412,4.824s-3.966-14.673,2.466-23.519Z" transform="translate(-19.325 -97.759)" fill="#fee7c6"/>
              <path id="Path_1614" data-name="Path 1614" d="M36.325,97.94s8.075,7.436,4.056,23.516a32.713,32.713,0,0,0-1.61-5.626s-1.607,18.492-8.039,24.121c0,0-7.239-8.041-7.239-23.319a10.983,10.983,0,0,0-2.412,4.824s-3.966-14.67,2.468-23.516Z" transform="translate(-19.337 -97.763)" fill="#fee6c3"/>
              <path id="Path_1615" data-name="Path 1615" d="M36.318,97.938s8.075,7.436,4.056,23.516a32.793,32.793,0,0,0-1.61-5.629s-1.607,18.495-8.039,24.121c0,0-7.236-8.039-7.236-23.316a10.925,10.925,0,0,0-2.412,4.824s-3.969-14.673,2.466-23.516Z" transform="translate(-19.349 -97.766)" fill="#fee5c0"/>
              <path id="Path_1616" data-name="Path 1616" d="M36.31,97.936s8.075,7.433,4.056,23.516a32.9,32.9,0,0,0-1.607-5.629s-1.61,18.495-8.041,24.121c0,0-7.236-8.039-7.236-23.316a10.96,10.96,0,0,0-2.412,4.824S17.1,106.78,23.534,97.936Z" transform="translate(-19.361 -97.77)" fill="#fee4be"/>
              <path id="Path_1617" data-name="Path 1617" d="M36.306,97.933s8.072,7.436,4.053,23.519a32.9,32.9,0,0,0-1.607-5.629s-1.61,18.492-8.041,24.121c0,0-7.236-8.041-7.236-23.316a10.96,10.96,0,0,0-2.412,4.824S17.1,106.779,23.527,97.933Z" transform="translate(-19.374 -97.775)" fill="#fde2bb"/>
              <path id="Path_1618" data-name="Path 1618" d="M36.3,97.931s8.075,7.436,4.053,23.516a32.623,32.623,0,0,0-1.607-5.626s-1.607,18.492-8.041,24.121c0,0-7.236-8.041-7.236-23.319a10.983,10.983,0,0,0-2.412,4.824s-3.966-14.67,2.466-23.516Z" transform="translate(-19.387 -97.779)" fill="#fde1b9"/>
              <path id="Path_1619" data-name="Path 1619" d="M36.291,97.929s8.075,7.436,4.056,23.516a32.793,32.793,0,0,0-1.61-5.629S37.13,134.311,30.7,139.937c0,0-7.239-8.039-7.239-23.316a10.96,10.96,0,0,0-2.412,4.824s-3.966-14.673,2.468-23.516Z" transform="translate(-19.399 -97.783)" fill="#fde0b6"/>
              <path id="Path_1620" data-name="Path 1620" d="M36.284,97.927s8.075,7.433,4.056,23.516a32.723,32.723,0,0,0-1.61-5.629s-1.607,18.495-8.039,24.121c0,0-7.236-8.039-7.236-23.316a10.925,10.925,0,0,0-2.412,4.824s-3.969-14.673,2.466-23.516Z" transform="translate(-19.411 -97.786)" fill="#fddfb3"/>
              <path id="Path_1621" data-name="Path 1621" d="M36.276,97.924s8.075,7.436,4.056,23.519a32.9,32.9,0,0,0-1.607-5.629s-1.61,18.492-8.041,24.121c0,0-7.236-8.041-7.236-23.316a10.96,10.96,0,0,0-2.412,4.824S17.069,106.77,23.5,97.924Z" transform="translate(-19.423 -97.792)" fill="#fddeb1"/>
              <path id="Path_1622" data-name="Path 1622" d="M36.272,97.922s8.072,7.436,4.053,23.516a32.892,32.892,0,0,0-1.607-5.626s-1.61,18.492-8.041,24.121c0,0-7.236-8.041-7.236-23.319a10.983,10.983,0,0,0-2.412,4.824s-3.966-14.67,2.466-23.516Z" transform="translate(-19.436 -97.795)" fill="#fdddae"/>
              <path id="Path_1623" data-name="Path 1623" d="M36.265,97.92s8.075,7.436,4.053,23.516a32.7,32.7,0,0,0-1.607-5.629S37.1,134.3,30.669,139.928c0,0-7.236-8.039-7.236-23.316a10.96,10.96,0,0,0-2.412,4.824s-3.966-14.673,2.466-23.516Z" transform="translate(-19.448 -97.799)" fill="#fddcac"/>
              <path id="Path_1624" data-name="Path 1624" d="M36.257,97.918s8.075,7.433,4.056,23.516a32.722,32.722,0,0,0-1.61-5.629S37.1,134.3,30.665,139.926c0,0-7.239-8.041-7.239-23.316a10.96,10.96,0,0,0-2.412,4.824s-3.966-14.673,2.468-23.516Z" transform="translate(-19.461 -97.803)" fill="#fddba9"/>
              <path id="Path_1625" data-name="Path 1625" d="M36.25,97.915s8.075,7.436,4.056,23.519A32.723,32.723,0,0,0,38.7,115.8s-1.607,18.492-8.039,24.121c0,0-7.236-8.041-7.236-23.316a10.925,10.925,0,0,0-2.412,4.824s-3.969-14.673,2.466-23.519Z" transform="translate(-19.473 -97.808)" fill="#fddaa6"/>
              <path id="Path_1626" data-name="Path 1626" d="M36.242,97.913s8.075,7.436,4.056,23.516a32.893,32.893,0,0,0-1.607-5.626s-1.61,18.492-8.041,24.121c0,0-7.236-8.041-7.236-23.319A10.983,10.983,0,0,0,21,121.429s-3.966-14.67,2.466-23.516Z" transform="translate(-19.485 -97.812)" fill="#fdd9a4"/>
              <path id="Path_1627" data-name="Path 1627" d="M36.238,97.911s8.072,7.436,4.053,23.516a32.973,32.973,0,0,0-1.607-5.629s-1.61,18.495-8.041,24.121c0,0-7.236-8.039-7.236-23.316a10.96,10.96,0,0,0-2.412,4.824s-3.966-14.673,2.466-23.516Z" transform="translate(-19.497 -97.815)" fill="#fdd7a1"/>
              <path id="Path_1628" data-name="Path 1628" d="M36.231,97.909s8.075,7.433,4.053,23.516a32.633,32.633,0,0,0-1.607-5.629s-1.607,18.492-8.041,24.121c0,0-7.236-8.041-7.236-23.316a10.96,10.96,0,0,0-2.412,4.824s-3.966-14.673,2.466-23.516Z" transform="translate(-19.51 -97.819)" fill="#fdd69f"/>
              <path id="Path_1629" data-name="Path 1629" d="M36.223,97.906s8.075,7.436,4.056,23.519a32.722,32.722,0,0,0-1.61-5.629s-1.607,18.492-8.039,24.121c0,0-7.239-8.041-7.239-23.316a10.96,10.96,0,0,0-2.412,4.824s-3.966-14.673,2.468-23.519Z" transform="translate(-19.522 -97.824)" fill="#fdd59c"/>
              <path id="Path_1630" data-name="Path 1630" d="M36.216,97.9s8.075,7.436,4.056,23.516a32.714,32.714,0,0,0-1.61-5.626s-1.607,18.492-8.039,24.121c0,0-7.236-8.041-7.236-23.319a10.948,10.948,0,0,0-2.412,4.824S17.006,106.75,23.44,97.9Z" transform="translate(-19.534 -97.828)" fill="#fdd499"/>
              <path id="Path_1631" data-name="Path 1631" d="M36.208,97.9s8.075,7.436,4.056,23.516a32.973,32.973,0,0,0-1.607-5.629s-1.61,18.495-8.041,24.121c0,0-7.236-8.039-7.236-23.316a10.96,10.96,0,0,0-2.412,4.824S17,106.746,23.432,97.9Z" transform="translate(-19.546 -97.832)" fill="#fdd397"/>
              <path id="Path_1632" data-name="Path 1632" d="M36.2,97.9s8.072,7.433,4.053,23.516a32.9,32.9,0,0,0-1.607-5.629s-1.61,18.492-8.041,24.121c0,0-7.236-8.041-7.236-23.316a10.96,10.96,0,0,0-2.412,4.824S16.994,106.744,23.425,97.9Z" transform="translate(-19.559 -97.835)" fill="#fdd294"/>
              <path id="Path_1633" data-name="Path 1633" d="M36.2,97.9s8.075,7.436,4.053,23.516a32.624,32.624,0,0,0-1.607-5.626s-1.607,18.492-8.041,24.121c0,0-7.236-8.041-7.236-23.319a10.983,10.983,0,0,0-2.412,4.824s-3.966-14.67,2.466-23.516Z" transform="translate(-19.572 -97.841)" fill="#fdd191"/>
              <path id="Path_1634" data-name="Path 1634" d="M36.189,97.895s8.075,7.436,4.056,23.516a32.713,32.713,0,0,0-1.61-5.626s-1.607,18.492-8.039,24.121c0,0-7.239-8.041-7.239-23.319a10.983,10.983,0,0,0-2.412,4.824s-3.966-14.67,2.468-23.516Z" transform="translate(-19.584 -97.844)" fill="#fcd08f"/>
              <path id="Path_1635" data-name="Path 1635" d="M36.182,97.893s8.075,7.436,4.056,23.516a32.793,32.793,0,0,0-1.61-5.629S37.02,134.275,30.589,139.9c0,0-7.236-8.039-7.236-23.316a10.926,10.926,0,0,0-2.412,4.824s-3.969-14.673,2.466-23.516Z" transform="translate(-19.596 -97.848)" fill="#fccf8c"/>
              <path id="Path_1636" data-name="Path 1636" d="M36.174,97.891s8.075,7.433,4.056,23.516a32.9,32.9,0,0,0-1.607-5.629s-1.61,18.492-8.041,24.121c0,0-7.236-8.041-7.236-23.316a10.96,10.96,0,0,0-2.412,4.824S16.967,106.735,23.4,97.891Z" transform="translate(-19.608 -97.852)" fill="#fcce8a"/>
              <path id="Path_1637" data-name="Path 1637" d="M36.17,97.888s8.072,7.436,4.053,23.516a32.893,32.893,0,0,0-1.607-5.626s-1.61,18.492-8.041,24.121c0,0-7.236-8.041-7.236-23.319a10.983,10.983,0,0,0-2.412,4.824s-3.966-14.67,2.466-23.516Z" transform="translate(-19.621 -97.857)" fill="#fccc87"/>
              <path id="Path_1638" data-name="Path 1638" d="M36.163,97.886s8.075,7.436,4.053,23.516a32.625,32.625,0,0,0-1.607-5.626S37,134.268,30.567,139.9c0,0-7.236-8.041-7.236-23.319a10.983,10.983,0,0,0-2.412,4.824s-3.966-14.67,2.466-23.516Z" transform="translate(-19.633 -97.861)" fill="#fccb84"/>
              <path id="Path_1639" data-name="Path 1639" d="M36.155,97.884s8.075,7.436,4.056,23.516a32.793,32.793,0,0,0-1.61-5.629s-1.607,18.495-8.039,24.121c0,0-7.239-8.039-7.239-23.316a10.96,10.96,0,0,0-2.412,4.824s-3.966-14.673,2.468-23.516Z" transform="translate(-19.646 -97.864)" fill="#fcca82"/>
              <path id="Path_1640" data-name="Path 1640" d="M36.148,97.882s8.075,7.433,4.056,23.516a32.722,32.722,0,0,0-1.61-5.629s-1.607,18.492-8.039,24.121c0,0-7.236-8.041-7.236-23.316a10.925,10.925,0,0,0-2.412,4.824s-3.969-14.673,2.466-23.516Z" transform="translate(-19.658 -97.868)" fill="#fcc97f"/>
              <path id="Path_1641" data-name="Path 1641" d="M36.14,97.879s8.075,7.436,4.056,23.516a32.892,32.892,0,0,0-1.607-5.626s-1.61,18.492-8.041,24.121c0,0-7.236-8.041-7.236-23.319A10.983,10.983,0,0,0,20.9,121.4s-3.966-14.67,2.466-23.516Z" transform="translate(-19.67 -97.873)" fill="#fcc87d"/>
              <path id="Path_1642" data-name="Path 1642" d="M36.136,97.877s8.072,7.436,4.053,23.516a32.893,32.893,0,0,0-1.607-5.626s-1.61,18.492-8.041,24.121c0,0-7.236-8.041-7.236-23.319a10.983,10.983,0,0,0-2.412,4.824s-3.966-14.67,2.466-23.516Z" transform="translate(-19.682 -97.877)" fill="#fcc77a"/>
            </g>
            <path id="Path_1643" data-name="Path 1643" d="M36.136,97.872s8.072,7.436,4.053,23.516a32.893,32.893,0,0,0-1.607-5.626s-1.61,18.492-8.041,24.121c0,0-7.236-8.041-7.236-23.319a10.983,10.983,0,0,0-2.412,4.824s-3.966-14.673,2.466-23.516Z" transform="translate(-19.682 -97.872)" fill="url(#linear-gradient)"/>
          </g>
          <g id="Group_410" data-name="Group 410" transform="translate(5.681)">
            <g id="Group_409" data-name="Group 409" transform="translate(0 0.008)">
              <path id="Path_1644" data-name="Path 1644" d="M29.294,98.043s6.187,16.933-2.012,27.482c0,0-8.678-12.708-3.563-27.538Z" transform="translate(-20.968 -97.672)" fill="#fff"/>
              <path id="Path_1645" data-name="Path 1645" d="M29.286,98.041s6.187,16.93-2.012,27.479c0,0-8.678-12.708-3.563-27.536Z" transform="translate(-20.982 -97.675)" fill="#fffefd"/>
              <path id="Path_1646" data-name="Path 1646" d="M29.278,98.036s6.187,16.933-2.01,27.482c0,0-8.68-12.708-3.566-27.536Z" transform="translate(-20.997 -97.679)" fill="#fffefb"/>
              <path id="Path_1647" data-name="Path 1647" d="M29.269,98.036s6.187,16.933-2.01,27.482c0,0-8.678-12.708-3.566-27.538Z" transform="translate(-21.011 -97.684)" fill="#fefdfa"/>
              <path id="Path_1648" data-name="Path 1648" d="M29.261,98.034s6.187,16.933-2.01,27.482c0,0-8.678-12.708-3.566-27.538Z" transform="translate(-21.025 -97.688)" fill="#fefdf8"/>
              <path id="Path_1649" data-name="Path 1649" d="M29.253,98.032s6.187,16.933-2.01,27.479c0,0-8.678-12.705-3.566-27.536Z" transform="translate(-21.04 -97.692)" fill="#fefcf6"/>
              <path id="Path_1650" data-name="Path 1650" d="M29.244,98.03s6.187,16.93-2.01,27.479c0,0-8.678-12.708-3.563-27.536Z" transform="translate(-21.053 -97.695)" fill="#fefbf4"/>
              <path id="Path_1651" data-name="Path 1651" d="M29.239,98.025s6.184,16.933-2.012,27.482c0,0-8.678-12.708-3.563-27.536Z" transform="translate(-21.068 -97.699)" fill="#fdfbf2"/>
              <path id="Path_1652" data-name="Path 1652" d="M29.231,98.025s6.187,16.933-2.012,27.482c0,0-8.678-12.708-3.563-27.538Z" transform="translate(-21.082 -97.704)" fill="#fdfaf0"/>
              <path id="Path_1653" data-name="Path 1653" d="M29.223,98.023s6.187,16.933-2.012,27.482c0,0-8.678-12.708-3.563-27.538Z" transform="translate(-21.097 -97.708)" fill="#fdfaef"/>
              <path id="Path_1654" data-name="Path 1654" d="M29.215,98.021S35.4,114.954,27.2,125.5c0,0-8.678-12.705-3.563-27.536Z" transform="translate(-21.111 -97.712)" fill="#fdf9ed"/>
              <path id="Path_1655" data-name="Path 1655" d="M29.207,98.019s6.187,16.93-2.012,27.479c0,0-8.678-12.708-3.563-27.536Z" transform="translate(-21.126 -97.715)" fill="#fdf8eb"/>
              <path id="Path_1656" data-name="Path 1656" d="M29.2,98.014s6.187,16.933-2.012,27.482c0,0-8.678-12.708-3.563-27.536Z" transform="translate(-21.14 -97.719)" fill="#fcf8e9"/>
              <path id="Path_1657" data-name="Path 1657" d="M29.191,98.014s6.187,16.933-2.012,27.482c0,0-8.678-12.708-3.563-27.538Z" transform="translate(-21.155 -97.724)" fill="#fcf7e7"/>
              <path id="Path_1658" data-name="Path 1658" d="M29.183,98.012s6.187,16.933-2.01,27.482c0,0-8.68-12.708-3.566-27.538Z" transform="translate(-21.169 -97.728)" fill="#fcf6e5"/>
              <path id="Path_1659" data-name="Path 1659" d="M29.175,98.01s6.187,16.933-2.01,27.479c0,0-8.68-12.705-3.566-27.536Z" transform="translate(-21.184 -97.732)" fill="#fcf6e4"/>
              <path id="Path_1660" data-name="Path 1660" d="M29.166,98.008s6.187,16.93-2.01,27.479c0,0-8.678-12.708-3.566-27.536Z" transform="translate(-21.197 -97.735)" fill="#fcf5e2"/>
              <path id="Path_1661" data-name="Path 1661" d="M29.158,98s6.187,16.933-2.01,27.482c0,0-8.678-12.708-3.566-27.536Z" transform="translate(-21.212 -97.739)" fill="#fbf5e0"/>
              <path id="Path_1662" data-name="Path 1662" d="M29.149,98s6.187,16.933-2.01,27.482c0,0-8.678-12.708-3.563-27.538Z" transform="translate(-21.226 -97.744)" fill="#fbf4de"/>
              <path id="Path_1663" data-name="Path 1663" d="M29.144,98s6.184,16.933-2.012,27.482c0,0-8.678-12.708-3.563-27.538Z" transform="translate(-21.24 -97.748)" fill="#fbf3dc"/>
              <path id="Path_1664" data-name="Path 1664" d="M29.136,98s6.187,16.933-2.012,27.479c0,0-8.678-12.705-3.563-27.536Z" transform="translate(-21.255 -97.752)" fill="#fbf3db"/>
              <path id="Path_1665" data-name="Path 1665" d="M29.128,98s6.187,16.93-2.012,27.479c0,0-8.678-12.708-3.563-27.536Z" transform="translate(-21.269 -97.755)" fill="#faf2d9"/>
              <path id="Path_1666" data-name="Path 1666" d="M29.12,97.992s6.187,16.933-2.012,27.482c0,0-8.678-12.708-3.563-27.536Z" transform="translate(-21.284 -97.759)" fill="#faf2d7"/>
              <path id="Path_1667" data-name="Path 1667" d="M29.112,97.992S35.3,114.925,27.1,125.474c0,0-8.678-12.708-3.563-27.538Z" transform="translate(-21.298 -97.764)" fill="#faf1d5"/>
              <path id="Path_1668" data-name="Path 1668" d="M29.1,97.99s6.187,16.933-2.012,27.482c0,0-8.678-12.708-3.563-27.538Z" transform="translate(-21.313 -97.768)" fill="#faf0d3"/>
              <path id="Path_1669" data-name="Path 1669" d="M29.1,97.988s6.187,16.933-2.012,27.479c0,0-8.678-12.705-3.563-27.536Z" transform="translate(-21.327 -97.772)" fill="#faf0d1"/>
              <path id="Path_1670" data-name="Path 1670" d="M29.088,97.986s6.187,16.933-2.01,27.479c0,0-8.68-12.708-3.566-27.536Z" transform="translate(-21.342 -97.775)" fill="#f9efd0"/>
              <path id="Path_1671" data-name="Path 1671" d="M29.08,97.981s6.187,16.933-2.01,27.482c0,0-8.68-12.708-3.566-27.536Z" transform="translate(-21.356 -97.779)" fill="#f9efce"/>
              <path id="Path_1672" data-name="Path 1672" d="M29.071,97.979s6.187,16.933-2.01,27.482c0,0-8.678-12.708-3.566-27.536Z" transform="translate(-21.37 -97.782)" fill="#f9eecc"/>
              <path id="Path_1673" data-name="Path 1673" d="M29.063,97.979s6.187,16.933-2.01,27.482c0,0-8.678-12.708-3.566-27.538Z" transform="translate(-21.384 -97.788)" fill="#f9edca"/>
              <path id="Path_1674" data-name="Path 1674" d="M29.055,97.977s6.187,16.933-2.01,27.482c0,0-8.678-12.708-3.566-27.538Z" transform="translate(-21.399 -97.792)" fill="#f9edc8"/>
              <path id="Path_1675" data-name="Path 1675" d="M29.049,97.975s6.184,16.933-2.012,27.479c0,0-8.678-12.708-3.563-27.536Z" transform="translate(-21.413 -97.795)" fill="#f8ecc6"/>
              <path id="Path_1676" data-name="Path 1676" d="M29.041,97.97s6.187,16.933-2.012,27.482c0,0-8.678-12.708-3.563-27.536Z" transform="translate(-21.427 -97.799)" fill="#f8ecc5"/>
              <path id="Path_1677" data-name="Path 1677" d="M29.033,97.968s6.187,16.933-2.012,27.482c0,0-8.678-12.708-3.563-27.536Z" transform="translate(-21.442 -97.802)" fill="#f8ebc3"/>
              <path id="Path_1678" data-name="Path 1678" d="M29.025,97.968s6.187,16.933-2.012,27.482c0,0-8.678-12.708-3.563-27.538Z" transform="translate(-21.456 -97.808)" fill="#f8eac1"/>
              <path id="Path_1679" data-name="Path 1679" d="M29.017,97.966S35.2,114.9,27,125.448c0,0-8.678-12.708-3.563-27.538Z" transform="translate(-21.471 -97.812)" fill="#f7eabf"/>
              <path id="Path_1680" data-name="Path 1680" d="M29.009,97.964S35.2,114.9,27,125.444c0,0-8.678-12.708-3.563-27.536Z" transform="translate(-21.485 -97.815)" fill="#f7e9bd"/>
              <path id="Path_1681" data-name="Path 1681" d="M29,97.959s6.187,16.933-2.012,27.482c0,0-8.678-12.708-3.563-27.536Z" transform="translate(-21.5 -97.819)" fill="#f7e9bc"/>
              <path id="Path_1682" data-name="Path 1682" d="M28.993,97.957s6.187,16.933-2.01,27.482c0,0-8.68-12.708-3.566-27.536Z" transform="translate(-21.514 -97.822)" fill="#f7e8ba"/>
              <path id="Path_1683" data-name="Path 1683" d="M28.985,97.957s6.187,16.933-2.01,27.482c0,0-8.68-12.708-3.566-27.538Z" transform="translate(-21.528 -97.828)" fill="#f7e7b8"/>
              <path id="Path_1684" data-name="Path 1684" d="M28.976,97.955s6.187,16.933-2.01,27.482c0,0-8.678-12.708-3.566-27.538Z" transform="translate(-21.542 -97.831)" fill="#f6e7b6"/>
              <path id="Path_1685" data-name="Path 1685" d="M28.968,97.953s6.187,16.933-2.01,27.479c0,0-8.678-12.708-3.566-27.536Z" transform="translate(-21.557 -97.835)" fill="#f6e6b4"/>
              <path id="Path_1686" data-name="Path 1686" d="M28.96,97.949s6.187,16.933-2.01,27.482c0,0-8.678-12.708-3.566-27.536Z" transform="translate(-21.571 -97.839)" fill="#f6e5b2"/>
              <path id="Path_1687" data-name="Path 1687" d="M28.954,97.947s6.184,16.933-2.012,27.482c0,0-8.678-12.708-3.563-27.536Z" transform="translate(-21.585 -97.842)" fill="#f6e5b1"/>
              <path id="Path_1688" data-name="Path 1688" d="M28.946,97.946s6.187,16.933-2.012,27.482c0,0-8.678-12.708-3.563-27.538Z" transform="translate(-21.599 -97.848)" fill="#f6e4af"/>
              <path id="Path_1689" data-name="Path 1689" d="M28.938,97.944s6.187,16.933-2.012,27.482c0,0-8.678-12.708-3.563-27.538Z" transform="translate(-21.614 -97.851)" fill="#f5e4ad"/>
              <path id="Path_1690" data-name="Path 1690" d="M28.93,97.942s6.187,16.933-2.012,27.479c0,0-8.678-12.708-3.563-27.536Z" transform="translate(-21.629 -97.855)" fill="#f5e3ab"/>
              <path id="Path_1691" data-name="Path 1691" d="M28.922,97.937s6.187,16.933-2.012,27.482c0,0-8.678-12.708-3.563-27.536Z" transform="translate(-21.643 -97.859)" fill="#f5e2a9"/>
              <path id="Path_1692" data-name="Path 1692" d="M28.914,97.935S35.1,114.868,26.9,125.418c0,0-8.678-12.708-3.563-27.536Z" transform="translate(-21.658 -97.862)" fill="#f5e2a7"/>
              <path id="Path_1693" data-name="Path 1693" d="M28.906,97.935s6.187,16.933-2.012,27.482c0,0-8.678-12.708-3.563-27.538Z" transform="translate(-21.672 -97.868)" fill="#f4e1a6"/>
              <path id="Path_1694" data-name="Path 1694" d="M28.9,97.933s6.187,16.933-2.01,27.482c0,0-8.68-12.708-3.566-27.538Z" transform="translate(-21.686 -97.871)" fill="#f4e1a4"/>
              <path id="Path_1695" data-name="Path 1695" d="M28.89,97.931s6.187,16.93-2.01,27.479c0,0-8.68-12.708-3.566-27.536Z" transform="translate(-21.701 -97.875)" fill="#f4e0a2"/>
            </g>
            <path id="Path_1696" data-name="Path 1696" d="M28.89,97.928s6.187,16.933-2.012,27.482c0,0-8.678-12.708-3.563-27.538Z" transform="translate(-21.701 -97.872)" fill="#feecac"/>
          </g>
        </g>
        <path id="Path_1697" data-name="Path 1697" d="M47.012,106.9A30.7,30.7,0,0,0,33.338,89.544l-.47-.276-5.691,19.075.369.141A30.918,30.918,0,0,1,38.9,116.03a30.537,30.537,0,0,1,6.485,10.378l.391,1.047.405-1.041A30.379,30.379,0,0,0,47.012,106.9Z" transform="translate(15.278 -18.123)" fill="#ad2f33"/>
        <path id="Path_1698" data-name="Path 1698" d="M27,89.544A30.685,30.685,0,0,0,13.325,106.9a30.354,30.354,0,0,0,.833,19.511l.405,1.041.391-1.047A30.564,30.564,0,0,1,21.44,116.03a30.918,30.918,0,0,1,11.351-7.546l.369-.141L27.469,89.268Z" transform="translate(-12.093 -18.123)" fill="#e7302a"/>
        <path id="Path_1699" data-name="Path 1699" d="M20.145,95.652v10.915a18.92,18.92,0,0,1,18.194,0V95.652Z" transform="translate(2.518 -6.538)" fill="#043146"/>
        <path id="Path_1700" data-name="Path 1700" d="M50.009,162.585a30.861,30.861,0,0,0-12.9-2.969,30.851,30.851,0,0,0-12.894,2.969c-4.942-9.567-10.549-28.687-7.58-57.373a71.84,71.84,0,0,1,2.409-12.534c.189-.681.4-1.343.6-1.993,5.936-18.441,17.468-26.694,17.468-26.694s11.529,8.252,17.465,26.683c.208.653.417,1.323.605,2a71.832,71.832,0,0,1,2.412,12.534C60.558,133.9,54.954,153.018,50.009,162.585Z" transform="translate(-5.352 -63.991)" fill="#fff"/>
        <path id="Path_1701" data-name="Path 1701" d="M36.278,162.585a30.866,30.866,0,0,0-12.9-2.969V63.991s11.532,8.252,17.468,26.683c.205.653.414,1.323.605,2a71.839,71.839,0,0,1,2.409,12.534C46.825,133.9,41.221,153.018,36.278,162.585Z" transform="translate(8.381 -63.991)" fill="#d8d6d7"/>
        <path id="Path_1702" data-name="Path 1702" d="M28.629,78.38a8.151,8.151,0,1,1-8.148,8.157A8.153,8.153,0,0,1,28.629,78.38Z" transform="translate(3.127 -37.88)" fill="#2fc9d5"/>
        <g id="Group_412" data-name="Group 412" transform="translate(22.663 39.554)">
          <path id="Path_1703" data-name="Path 1703" d="M29.239,96.238a9.1,9.1,0,1,1,9.1-9.091A9.1,9.1,0,0,1,29.239,96.238Zm0-16.3a7.207,7.207,0,1,0,7.211,7.211A7.215,7.215,0,0,0,29.239,79.935Z" transform="translate(-20.145 -78.044)" fill="#043146"/>
        </g>
        <g id="Group_413" data-name="Group 413" transform="translate(28.05 73.724)">
          <path id="Path_1704" data-name="Path 1704" d="M26.078,90.875l-.31-.69-.307.69a44.167,44.167,0,0,0,0,34l.307.69.31-.69a46.7,46.7,0,0,0,3.4-17A46.7,46.7,0,0,0,26.078,90.875Z" transform="translate(-22.059 -90.182)" fill="#e7302a"/>
          <path id="Path_1705" data-name="Path 1705" d="M27.089,107.877a46.577,46.577,0,0,1-3.409,17l-.3.69V90.184l.3.7A46.6,46.6,0,0,1,27.089,107.877Z" transform="translate(-19.664 -90.184)" fill="#bc2921"/>
        </g>
        <g id="Group_415" data-name="Group 415" transform="translate(13.692)">
          <path id="Path_1706" data-name="Path 1706" d="M53.092,92.678a114.75,114.75,0,0,0-36.134,0c.189-.681.4-1.343.6-1.993C23.491,72.243,35.02,63.991,35.02,63.991s11.532,8.252,17.468,26.683C52.7,91.327,52.9,92,53.092,92.678Z" transform="translate(-16.958 -63.991)" fill="#e7302a"/>
          <path id="Path_1707" data-name="Path 1707" d="M41.449,92.678a114.564,114.564,0,0,0-18.073-1.435V63.991s11.532,8.252,17.468,26.683C41.049,91.327,41.257,92,41.449,92.678Z" transform="translate(-5.312 -63.991)" fill="#bc2921"/>
          <g id="Group_414" data-name="Group 414" transform="translate(0 25.367)">
            <path id="Path_1708" data-name="Path 1708" d="M53.092,76.323a114.75,114.75,0,0,0-36.134,0c.189-.681.4-1.343.6-1.993a116.089,116.089,0,0,1,34.932-.011C52.7,74.972,52.9,75.642,53.092,76.323Z" transform="translate(-16.958 -73.003)" fill="#043146"/>
          </g>
        </g>
      </g>
      <g id="Group_444" data-name="Group 444" transform="translate(422.387 315.948)">
        <g id="Group_422" data-name="Group 422" transform="translate(15.689)">
          <g id="Group_420" data-name="Group 420">
            <g id="Group_417" data-name="Group 417" transform="translate(0.274 0.272)">
              <path id="Path_1709" data-name="Path 1709" d="M198.142,128.133a.628.628,0,0,1,.332.828L183.2,164.712a.622.622,0,0,1-.827.329l-18.456-7.884a.627.627,0,0,1-.326-.822l15.278-35.76a.627.627,0,0,1,.822-.327Z" transform="translate(-163.536 -120.198)" fill="#009f52"/>
            </g>
            <g id="Group_419" data-name="Group 419">
              <g id="Group_418" data-name="Group 418">
                <path id="Path_1710" data-name="Path 1710" d="M183.189,165.456a.9.9,0,0,1-.751.011l-18.456-7.884a.906.906,0,0,1-.473-1.179l15.281-35.76a.89.89,0,0,1,.5-.481.9.9,0,0,1,.684.011l18.453,7.884a.9.9,0,0,1,.473,1.188l-15.275,35.749A.914.914,0,0,1,183.189,165.456Zm-3.9-44.6-15.278,35.76a.351.351,0,0,0,.183.464l18.456,7.884a.354.354,0,0,0,.47-.186L198.4,129.029a.348.348,0,0,0,0-.276.34.34,0,0,0-.189-.191l-18.458-7.887a.351.351,0,0,0-.464.186Z" transform="translate(-163.439 -120.101)" fill="#01763c"/>
              </g>
            </g>
          </g>
          <g id="Group_421" data-name="Group 421" transform="translate(4.797 5.128)">
            <path id="Path_1711" data-name="Path 1711" d="M179.331,122.3a1.883,1.883,0,0,1-2.468.991.629.629,0,0,0-.825.329L165.193,149a.628.628,0,0,0,.332.822,1.885,1.885,0,0,1,.991,2.471.624.624,0,0,0,.329.822l9.229,3.943a.624.624,0,0,0,.822-.329,1.882,1.882,0,0,1,2.468-.991.628.628,0,0,0,.825-.332l10.845-25.374a.632.632,0,0,0-.332-.825,1.881,1.881,0,0,1-.991-2.468.624.624,0,0,0-.329-.822l-9.229-3.943A.624.624,0,0,0,179.331,122.3Zm.754,12.6c3.5,1.495,5.46,4.782,4.371,7.326s-4.816,3.4-8.314,1.9-5.46-4.782-4.371-7.326S176.587,133.407,180.085,134.9Zm-.827,19.494a3.146,3.146,0,0,0-3.212,1.289l-8.188-3.5a3.146,3.146,0,0,0-1.289-3.209l3.893-9.111a9.559,9.559,0,0,0,12.688,5.424Zm9.111-27.547a3.148,3.148,0,0,0,1.289,3.209l-3.893,9.111a9.553,9.553,0,0,0-12.688-5.424l3.893-9.108a3.151,3.151,0,0,0,3.211-1.289Z" transform="translate(-165.143 -121.923)" fill="#01763c"/>
            <path id="Path_1712" data-name="Path 1712" d="M170.811,124.958a1.881,1.881,0,1,0,2.468-.991A1.885,1.885,0,0,0,170.811,124.958Zm2.305.988a.626.626,0,1,1-.329-.825A.626.626,0,0,1,173.116,125.946Z" transform="translate(-155.134 -118.486)" fill="#01763c"/>
            <path id="Path_1713" data-name="Path 1713" d="M167.659,132.335a1.881,1.881,0,1,0,2.468-.991A1.881,1.881,0,0,0,167.659,132.335Zm2.305.985a.627.627,0,1,1-.329-.822A.628.628,0,0,1,169.964,133.321Z" transform="translate(-160.854 -105.1)" fill="#01763c"/>
          </g>
        </g>
        <g id="Group_428" data-name="Group 428" transform="translate(31.096 10.441)">
          <g id="Group_426" data-name="Group 426">
            <g id="Group_423" data-name="Group 423" transform="translate(0.014 0.017)">
              <path id="Rectangle_1" data-name="Rectangle 1" d="M.2,0H34.964a.2.2,0,0,1,.2.2V18.486a.194.194,0,0,1-.194.194H.2a.2.2,0,0,1-.2-.2V.2A.2.2,0,0,1,.2,0Z" transform="matrix(0.782, -0.623, 0.623, 0.782, 0, 21.919)" fill="#009f52"/>
            </g>
            <g id="Group_425" data-name="Group 425">
              <g id="Group_424" data-name="Group 424">
                <path id="Path_1714" data-name="Path 1714" d="M180.625,160.368a.772.772,0,0,1-.583-.3l-10.96-13.744a.792.792,0,0,1,.124-1.1l26.635-21.239a.789.789,0,0,1,1.106.129l10.96,13.744a.78.78,0,0,1,.169.58.8.8,0,0,1-.3.532L181.151,160.2A.789.789,0,0,1,180.625,160.368Zm15.511-36.013L169.5,145.591a.309.309,0,0,0-.048.436l10.96,13.744a.308.308,0,0,0,.439.051l26.626-21.231a.311.311,0,0,0,.118-.211.3.3,0,0,0-.065-.228l-10.963-13.747a.31.31,0,0,0-.436-.051Z" transform="translate(-168.913 -123.811)" fill="#01763c"/>
              </g>
            </g>
          </g>
          <g id="Group_427" data-name="Group 427" transform="translate(5.125 5.041)">
            <path id="Path_1715" data-name="Path 1715" d="M193.277,126.07a1.653,1.653,0,0,1-2.316-.262.55.55,0,0,0-.771-.087l-18.9,15.07a.55.55,0,0,0-.087.771,1.65,1.65,0,0,1-.262,2.316.55.55,0,0,0-.087.771l5.48,6.873a.547.547,0,0,0,.771.087,1.652,1.652,0,0,1,2.316.262.553.553,0,0,0,.774.087l18.9-15.07a.55.55,0,0,0,.087-.771,1.649,1.649,0,0,1,.259-2.316.548.548,0,0,0,.087-.774l-5.48-6.871A.547.547,0,0,0,193.277,126.07Zm-4.65,10.031c2.077,2.6,2.226,5.953.332,7.464s-5.128.619-7.205-1.987-2.224-5.953-.329-7.464S186.55,133.495,188.627,136.1Zm-8.734,14.69a2.753,2.753,0,0,0-3.009-.338l-4.864-6.1a2.747,2.747,0,0,0,.338-3.009l6.786-5.41a8.367,8.367,0,0,0,7.535,9.449Zm18.47-17.462a2.753,2.753,0,0,0-.341,3.009l-6.786,5.41A8.367,8.367,0,0,0,183.7,132.3l6.786-5.41a2.758,2.758,0,0,0,3.012.338Z" transform="translate(-170.734 -125.602)" fill="#01763c"/>
            <path id="Path_1716" data-name="Path 1716" d="M178.651,127.888a1.648,1.648,0,1,0,2.316.262A1.652,1.652,0,0,0,178.651,127.888Zm1.371,1.717a.549.549,0,1,1,.087-.771A.545.545,0,0,1,180.022,129.605Z" transform="translate(-157.49 -122.103)" fill="#01763c"/>
            <path id="Path_1717" data-name="Path 1717" d="M173.157,132.268a1.648,1.648,0,1,0,2.316.262A1.653,1.653,0,0,0,173.157,132.268Zm1.371,1.72a.55.55,0,1,1,.087-.771A.55.55,0,0,1,174.528,133.987Z" transform="translate(-167.46 -114.154)" fill="#01763c"/>
          </g>
        </g>
        <g id="Group_434" data-name="Group 434" transform="translate(0 8.521)">
          <g id="Group_432" data-name="Group 432">
            <g id="Group_429" data-name="Group 429" transform="translate(0.159 0.159)">
              <path id="Rectangle_2" data-name="Rectangle 2" d="M.2,0H18.485a.2.2,0,0,1,.2.2V34.964a.2.2,0,0,1-.2.2H.194A.194.194,0,0,1,0,34.965V.2A.2.2,0,0,1,.2,0Z" transform="translate(0 2.972) rotate(-9.156)" fill="#009f52"/>
            </g>
            <g id="Group_431" data-name="Group 431">
              <g id="Group_430" data-name="Group 430">
                <path id="Path_1718" data-name="Path 1718" d="M182.1,157.961a.781.781,0,0,1-.549.36l-17.358,2.8a.793.793,0,0,1-.9-.65l-5.421-33.632a.795.795,0,0,1,.656-.9l17.355-2.8a.782.782,0,0,1,.588.138.792.792,0,0,1,.318.518l5.418,33.621A.8.8,0,0,1,182.1,157.961Zm-23.756-31.2,5.421,33.629a.309.309,0,0,0,.355.259l17.355-2.8a.309.309,0,0,0,.259-.36l-5.418-33.621a.311.311,0,0,0-.357-.262l-17.358,2.8a.306.306,0,0,0-.2.121.292.292,0,0,0-.056.234Z" transform="translate(-157.865 -123.128)" fill="#01763c"/>
              </g>
            </g>
          </g>
          <g id="Group_433" data-name="Group 433" transform="translate(3.196 3.651)">
            <path id="Path_1719" data-name="Path 1719" d="M160.829,126.46a1.653,1.653,0,0,1-1.365,1.891.547.547,0,0,0-.456.628l3.845,23.865a.552.552,0,0,0,.63.456,1.647,1.647,0,0,1,1.889,1.365.552.552,0,0,0,.63.453l8.677-1.4a.552.552,0,0,0,.456-.631A1.649,1.649,0,0,1,176.5,151.2a.552.552,0,0,0,.456-.63l-3.848-23.865a.548.548,0,0,0-.628-.456,1.651,1.651,0,0,1-1.891-1.365.546.546,0,0,0-.628-.453l-8.68,1.4A.552.552,0,0,0,160.829,126.46Zm6.454,8.976c3.29-.529,6.279.985,6.665,3.378s-1.976,4.771-5.266,5.3-6.279-.985-6.665-3.378S163.992,135.967,167.283,135.435Zm8.509,14.822a2.761,2.761,0,0,0-1.773,2.457l-7.7,1.241a2.749,2.749,0,0,0-2.454-1.773l-1.382-8.568a8.372,8.372,0,0,0,11.934-1.922ZM169.647,125.6a2.756,2.756,0,0,0,2.457,1.773l1.379,8.568a8.369,8.369,0,0,0-11.931,1.922l-1.382-8.565a2.759,2.759,0,0,0,1.776-2.457Z" transform="translate(-159.001 -124.425)" fill="#01763c"/>
            <path id="Path_1720" data-name="Path 1720" d="M161.068,127.737a1.649,1.649,0,1,0,1.365-1.891A1.651,1.651,0,0,0,161.068,127.737Zm2.17-.352a.549.549,0,1,1-.63-.453A.549.549,0,0,1,163.238,127.385Z" transform="translate(-155.288 -121.886)" fill="#01763c"/>
            <path id="Path_1721" data-name="Path 1721" d="M162.186,134.673a1.648,1.648,0,1,0,1.365-1.889A1.653,1.653,0,0,0,162.186,134.673Zm2.17-.349a.549.549,0,1,1-.63-.456A.547.547,0,0,1,164.356,134.324Z" transform="translate(-153.259 -109.297)" fill="#01763c"/>
          </g>
        </g>
        <g id="Group_443" data-name="Group 443" transform="translate(0.959 34.524)">
          <rect id="Rectangle_3" data-name="Rectangle 3" width="60.933" height="49.597" fill="#f09e20"/>
          <rect id="Rectangle_4" data-name="Rectangle 4" width="32.592" height="49.597" transform="translate(28.341)" fill="#f58a27"/>
          <g id="Group_442" data-name="Group 442" transform="translate(3.189 4.25)">
            <g id="Group_435" data-name="Group 435" transform="translate(0 0.001)">
              <rect id="Rectangle_5" data-name="Rectangle 5" width="2.834" height="1.417" fill="#fff"/>
            </g>
            <g id="Group_436" data-name="Group 436" transform="translate(8.029)">
              <path id="Path_1722" data-name="Path 1722" d="M198.562,135.3h-5.2v-1.419h5.2Zm-10.392,0h-5.2v-1.419h5.2Zm-10.392,0h-5.2v-1.419h5.2Zm-10.392,0h-5.2v-1.419h5.2Z" transform="translate(-162.191 -133.877)" fill="#fff"/>
            </g>
            <g id="Group_437" data-name="Group 437" transform="translate(49.596)">
              <path id="Path_1723" data-name="Path 1723" d="M180.5,137.421h-1.419V135.3h-2.125v-1.419h2.834a.71.71,0,0,1,.709.709Z" transform="translate(-176.959 -133.877)" fill="#fff"/>
            </g>
            <g id="Group_438" data-name="Group 438" transform="translate(51.721 8.402)">
              <path id="Path_1724" data-name="Path 1724" d="M179.133,161.155h-1.419V156.3h1.419Zm0-9.719h-1.419v-4.858h1.419Zm0-9.716h-1.419v-4.858h1.419Z" transform="translate(-177.714 -136.862)" fill="#fff"/>
            </g>
            <g id="Group_439" data-name="Group 439" transform="translate(49.596 37.553)">
              <path id="Path_1725" data-name="Path 1725" d="M179.793,150.763h-2.834v-1.419h2.125v-2.125H180.5v2.834A.71.71,0,0,1,179.793,150.763Z" transform="translate(-176.959 -147.219)" fill="#fff"/>
            </g>
            <g id="Group_440" data-name="Group 440" transform="translate(8.029 39.678)">
              <path id="Path_1726" data-name="Path 1726" d="M198.562,149.393h-5.2v-1.419h5.2Zm-10.392,0h-5.2v-1.419h5.2Zm-10.392,0h-5.2v-1.419h5.2Zm-10.392,0h-5.2v-1.419h5.2Z" transform="translate(-162.191 -147.974)" fill="#fff"/>
            </g>
            <g id="Group_441" data-name="Group 441" transform="translate(0 39.678)">
              <rect id="Rectangle_6" data-name="Rectangle 6" width="2.834" height="1.417" fill="#fff"/>
            </g>
          </g>
          <rect id="Rectangle_7" data-name="Rectangle 7" width="18.542" height="15.587" transform="translate(42.391 18.247)" fill="#e57d28"/>
          <path id="Path_1727" data-name="Path 1727" d="M192.4,154H173.266V138.408H192.4a7.8,7.8,0,0,1,7.794,7.794h0A7.793,7.793,0,0,1,192.4,154Z" transform="translate(-130.876 -121.405)" fill="#ef5a29"/>
          <circle id="Ellipse_2" data-name="Ellipse 2" cx="3.897" cy="3.897" r="3.897" transform="translate(46.763 20.901)" fill="#fff"/>
        </g>
      </g>
      <g id="Group_450" data-name="Group 450" transform="translate(437.072 189.895)">
        <rect id="Rectangle_8" data-name="Rectangle 8" width="64.507" height="62.941" rx="1.877" transform="translate(3.513 11.02)" fill="#b3b3bf"/>
        <rect id="Rectangle_9" data-name="Rectangle 9" width="64.508" height="62.941" rx="1.877" transform="translate(0 11.02)" fill="#fff"/>
        <path id="Rectangle_10" data-name="Rectangle 10" d="M1.877,0H62.631a1.877,1.877,0,0,1,1.877,1.877V19.3a0,0,0,0,1,0,0H0a0,0,0,0,1,0,0V1.877A1.877,1.877,0,0,1,1.877,0Z" transform="translate(3.513 11.02)" fill="#3c447d"/>
        <path id="Rectangle_11" data-name="Rectangle 11" d="M1.877,0H62.631a1.877,1.877,0,0,1,1.877,1.877V19.3a0,0,0,0,1,0,0H0a0,0,0,0,1,0,0V1.877A1.877,1.877,0,0,1,1.877,0Z" transform="translate(0 11.02)" fill="#5465bb"/>
        <g id="Group_446" data-name="Group 446" transform="translate(9.876)">
          <g id="Group_445" data-name="Group 445">
            <path id="Path_1728" data-name="Path 1728" d="M169.707,93.459h-3.116V83.076a7.761,7.761,0,0,1,15.523,0v3.257H179V83.076a4.646,4.646,0,0,0-9.291,0Z" transform="translate(-166.591 -75.316)" fill="#251f2c"/>
          </g>
        </g>
        <g id="Group_448" data-name="Group 448" transform="translate(39.48 0.011)">
          <g id="Group_447" data-name="Group 447">
            <path id="Path_1729" data-name="Path 1729" d="M180.225,93.466h-3.116V83.083a7.764,7.764,0,0,1,15.528,0v3.254h-3.116V83.083a4.648,4.648,0,0,0-9.3,0Z" transform="translate(-177.109 -75.32)" fill="#251f2c"/>
          </g>
        </g>
        <g id="Group_449" data-name="Group 449" transform="translate(12.414 36.86)">
          <rect id="Rectangle_12" data-name="Rectangle 12" width="6.369" height="6.369" transform="translate(11.546)" fill="#b3b3bf"/>
          <rect id="Rectangle_13" data-name="Rectangle 13" width="6.369" height="6.369" transform="translate(22.428)" fill="#b3b3bf"/>
          <rect id="Rectangle_14" data-name="Rectangle 14" width="6.369" height="6.369" transform="translate(33.311)" fill="#b3b3bf"/>
          <rect id="Rectangle_15" data-name="Rectangle 15" width="6.369" height="6.369" transform="translate(11.546 9.373)" fill="#b3b3bf"/>
          <rect id="Rectangle_16" data-name="Rectangle 16" width="6.369" height="6.369" transform="translate(22.428 9.373)" fill="#b3b3bf"/>
          <rect id="Rectangle_17" data-name="Rectangle 17" width="6.369" height="6.369" transform="translate(33.311 9.373)" fill="#b3b3bf"/>
          <rect id="Rectangle_18" data-name="Rectangle 18" width="6.369" height="6.369" transform="translate(11.546 18.745)" fill="#b3b3bf"/>
          <rect id="Rectangle_19" data-name="Rectangle 19" width="6.369" height="6.369" fill="#b3b3bf"/>
          <rect id="Rectangle_20" data-name="Rectangle 20" width="6.369" height="6.369" transform="translate(0 9.373)" fill="#b3b3bf"/>
          <rect id="Rectangle_21" data-name="Rectangle 21" width="6.369" height="6.369" transform="translate(0 18.745)" fill="#b3b3bf"/>
          <rect id="Rectangle_22" data-name="Rectangle 22" width="6.369" height="6.369" transform="translate(22.428 18.745)" fill="#b3b3bf"/>
          <rect id="Rectangle_23" data-name="Rectangle 23" width="6.369" height="6.369" transform="translate(33.311 18.745)" fill="#b3b3bf"/>
        </g>
        <path id="Path_1730" data-name="Path 1730" d="M184.274,84.574a4.038,4.038,0,1,1-4.039-4.039A4.037,4.037,0,0,1,184.274,84.574Z" transform="translate(-139.28 -65.845)" fill="#251f2c"/>
        <path id="Path_1731" data-name="Path 1731" d="M173.735,84.373a4.038,4.038,0,1,1-4.039-4.036A4.037,4.037,0,0,1,173.735,84.373Z" transform="translate(-158.405 -66.205)" fill="#251f2c"/>
      </g>
      <g id="Group_458" data-name="Group 458" transform="translate(82.168 77.833)">
        <g id="Group_452" data-name="Group 452" transform="translate(1.634 1.633)">
          <g id="Group_451" data-name="Group 451">
            <circle id="Ellipse_3" data-name="Ellipse 3" cx="35.396" cy="35.396" r="35.396" fill="#fff"/>
          </g>
        </g>
        <g id="Group_454" data-name="Group 454" transform="translate(37.029 1.632)">
          <g id="Group_453" data-name="Group 453">
            <path id="Path_1732" data-name="Path 1732" d="M50.146,36.082a35.4,35.4,0,1,1,0,70.791Z" transform="translate(-50.146 -36.082)" fill="#eaeaea"/>
          </g>
        </g>
        <g id="Group_456" data-name="Group 456" transform="translate(0 0)">
          <g id="Group_455" data-name="Group 455">
            <path id="Path_1733" data-name="Path 1733" d="M74.019,109.561a37.029,37.029,0,1,1,37.032-37.029A37.072,37.072,0,0,1,74.019,109.561Zm0-70.791a33.762,33.762,0,1,0,33.762,33.762A33.8,33.8,0,0,0,74.019,38.77Z" transform="translate(-36.99 -35.502)"/>
          </g>
        </g>
        <path id="Path_1734" data-name="Path 1734" d="M83.636,50.91H67.2a4.979,4.979,0,1,0-9.038,3.6L43.682,69.358a.816.816,0,0,0,.585,1.388.8.8,0,0,0,.583-.248L59.3,55.687a4.947,4.947,0,0,0,7.9-3.141H83.636a.818.818,0,0,0,0-1.635Z" transform="translate(-25.269 -15.106)"/>
        <g id="Group_457" data-name="Group 457" transform="translate(35.767 6.408)">
          <path id="Path_1735" data-name="Path 1735" d="M51.286,38.083c.267,3.766.459,7.535.6,11.3s.222,7.532.281,11.3c.073,7.535.228,15.067-.788,22.6a.425.425,0,0,1-.842,0c-1.013-7.535-.858-15.067-.785-22.6.059-3.766.144-7.532.279-11.3s.335-7.535.6-11.3a.327.327,0,0,1,.653,0Z" transform="translate(-49.698 -37.779)" fill="#ff5252"/>
        </g>
      </g>
      <g id="Group_474" data-name="Group 474" transform="translate(12.601 314.244)">
        <g id="Group_460" data-name="Group 460" transform="translate(0 0)">
          <g id="Group_459" data-name="Group 459">
            <circle id="Ellipse_4" data-name="Ellipse 4" cx="36.864" cy="36.864" r="36.864" transform="translate(0 52.134) rotate(-45)" fill="#faca21"/>
          </g>
        </g>
        <g id="Group_462" data-name="Group 462" transform="translate(11.47 11.47)">
          <g id="Group_461" data-name="Group 461" transform="translate(0 0)">
            <circle id="Ellipse_5" data-name="Ellipse 5" cx="28.754" cy="28.754" r="28.754" transform="translate(0 40.664) rotate(-45)" fill="#ef942b"/>
          </g>
        </g>
        <g id="Group_464" data-name="Group 464" transform="translate(23.061 23.062)">
          <g id="Group_463" data-name="Group 463">
            <path id="Path_1736" data-name="Path 1736" d="M49.539,185.834a29.072,29.072,0,1,1,29.072-29.072A29.107,29.107,0,0,1,49.539,185.834Zm0-56.11a27.037,27.037,0,1,0,27.037,27.037A27.067,27.067,0,0,0,49.539,129.724Z" transform="translate(-20.467 -127.689)" fill="#ae7331"/>
          </g>
        </g>
        <g id="Group_471" data-name="Group 471" transform="translate(52.144 15.268)">
          <g id="Group_466" data-name="Group 466">
            <g id="Group_465" data-name="Group 465">
              <path id="Path_1737" data-name="Path 1737" d="M67.646,161.795A36.829,36.829,0,0,1,30.8,198.638V124.92A36.854,36.854,0,0,1,67.646,161.795Z" transform="translate(-30.8 -124.92)" fill="#ddad28"/>
            </g>
          </g>
          <g id="Group_468" data-name="Group 468" transform="translate(0 8.117)">
            <g id="Group_467" data-name="Group 467">
              <path id="Path_1738" data-name="Path 1738" d="M59.554,156.561A28.758,28.758,0,0,1,30.8,185.315V127.8A28.761,28.761,0,0,1,59.554,156.561Z" transform="translate(-30.8 -127.804)" fill="#d37b2d"/>
            </g>
          </g>
          <g id="Group_470" data-name="Group 470" transform="translate(0 7.788)">
            <g id="Group_469" data-name="Group 469">
              <path id="Path_1739" data-name="Path 1739" d="M30.8,127.687v2.035a27.036,27.036,0,0,1,0,54.072v2.038a29.072,29.072,0,0,0,0-58.145Z" transform="translate(-30.8 -127.687)" fill="#996433"/>
            </g>
          </g>
        </g>
        <g id="Group_473" data-name="Group 473" transform="translate(41.224 31.708)">
          <g id="Group_472" data-name="Group 472">
            <path id="Path_1740" data-name="Path 1740" d="M48.742,157.728c0-4.8-2.488-7.538-9.069-10.1l-.22-.087v-9.848a11.923,11.923,0,0,1,1.419.141l.4,2.336c.543,3.29,2.156,3.963,3.8,3.963a2.6,2.6,0,0,0,2.663-2.353c-.073-3.729-3.442-6.223-8.283-6.6v-4.411H36.462V135.2c-5.967.569-9.378,4.163-9.378,8.68,0,4.971,3.043,7.6,8.5,9.789l.588.234v10.361a13.71,13.71,0,0,1-2.778-.326l-.352-2.758c-.332-2.508-1.388-3.372-3.2-3.372a3.049,3.049,0,0,0-2.922,2.212c.051,4.143,3.378,6.628,9.249,6.783v4.807h2.995v-4.945C45.176,165.913,48.742,162.313,48.742,157.728Zm-15.39-15.511a4.055,4.055,0,0,1,3.11-4.247v8.368C34.393,145.366,33.351,144.263,33.351,142.217Zm5.812,21.7v-8.739c2.159,1.092,3.065,2.255,3.065,4.636A4.151,4.151,0,0,1,39.164,163.92Z" transform="translate(-26.92 -130.761)" fill="#faca21"/>
          </g>
        </g>
      </g>
      <g id="Group_478" data-name="Group 478" transform="translate(361.405 87.65)">
        <path id="Path_1741" data-name="Path 1741" d="M141.868,44.629H143V58.235h-1.134a5.675,5.675,0,0,1-5.669-5.669V50.3A5.678,5.678,0,0,1,141.868,44.629Z" transform="translate(-136.199 -28.757)" fill="#fff"/>
        <rect id="Rectangle_24" data-name="Rectangle 24" width="9.071" height="24.945" rx="0.403" transform="translate(10.205 29.479)" fill="#fff"/>
        <rect id="Rectangle_25" data-name="Rectangle 25" width="22.677" height="18.141" rx="0.403" transform="translate(4.535 13.605)" fill="#e7302a"/>
        <path id="Path_1742" data-name="Path 1742" d="M145.825,51.927l36.283-12.474a1.149,1.149,0,0,1,1.027.149,1.136,1.136,0,0,1,.476.923V81.345a1.129,1.129,0,0,1-1.134,1.131,1.189,1.189,0,0,1-.369-.059L145.825,69.943a1.135,1.135,0,0,1-.763-1.072V53A1.135,1.135,0,0,1,145.825,51.927Z" transform="translate(-120.116 -38.259)" fill="#fff"/>
        <g id="Group_475" data-name="Group 475" transform="translate(6.803 15.873)">
          <rect id="Rectangle_26" data-name="Rectangle 26" width="7.937" height="2.268" fill="#fff"/>
        </g>
        <g id="Group_476" data-name="Group 476" transform="translate(6.803 21.542)">
          <rect id="Rectangle_27" data-name="Rectangle 27" width="7.937" height="2.268" fill="#fff"/>
        </g>
        <g id="Group_477" data-name="Group 477" transform="translate(6.803 27.212)">
          <rect id="Rectangle_28" data-name="Rectangle 28" width="7.937" height="2.267" fill="#fff"/>
        </g>
        <path id="Path_1743" data-name="Path 1743" d="M183.611,47.047v20.4a1.119,1.119,0,0,1-.473.918,1.057,1.057,0,0,1-.664.217,1.1,1.1,0,0,1-.363-.068L145.833,56.051a1.147,1.147,0,0,1-.771-1.07V47.047Z" transform="translate(-120.116 -24.369)" fill="#eaeaea"/>
        <path id="Path_1744" data-name="Path 1744" d="M161.355,38.99a3.407,3.407,0,0,1,3.4,3.4V80.942a3.4,3.4,0,0,1-6.806,0V42.39A3.407,3.407,0,0,1,161.355,38.99Z" transform="translate(-96.725 -38.99)" fill="#e7302a"/>
      </g>
      <g id="Group_500" data-name="Group 500" transform="translate(82.714 278.7)">
        <path id="Path_1745" data-name="Path 1745" d="M390.792,187.249c0,10.589-79.159,19.173-176.8,19.173s-176.8-8.585-176.8-19.173,79.159-19.173,176.8-19.173S390.792,176.661,390.792,187.249Z" transform="translate(-37.184 4.204)" fill="#419ab1"/>
        <g id="Group_499" data-name="Group 499" transform="translate(17.763)">
          <g id="Group_479" data-name="Group 479">
            <path id="Rectangle_29" data-name="Rectangle 29" d="M1.608,0H279.345a1.608,1.608,0,0,1,1.608,1.608V179.922a0,0,0,0,1,0,0H0a0,0,0,0,1,0,0V1.608A1.608,1.608,0,0,1,1.608,0Z" transform="translate(18.896)" fill="#212121"/>
            <rect id="Rectangle_30" data-name="Rectangle 30" width="267.586" height="164.572" transform="translate(25.58 7.675)" fill="#fff"/>
            <path id="Rectangle_31" data-name="Rectangle 31" d="M.8,0H317.277a.8.8,0,0,1,.8.8V16.52a1.608,1.608,0,0,1-1.608,1.608H1.608A1.608,1.608,0,0,1,0,16.52V.8A.8.8,0,0,1,.8,0Z" transform="translate(0 179.431)" fill="#c9cbca"/>
            <path id="Path_1746" data-name="Path 1746" d="M87.088,170.617v3.772a2.263,2.263,0,0,0,2.263,2.263h69.921a2.263,2.263,0,0,0,2.263-2.263v-3.772" transform="translate(35.61 8.815)" fill="#949595"/>
            <path id="Rectangle_32" data-name="Rectangle 32" d="M0,0H318.081a0,0,0,0,1,0,0V4.5a1.608,1.608,0,0,1-1.608,1.608H1.608A1.608,1.608,0,0,1,0,4.5V0A0,0,0,0,1,0,0Z" transform="translate(0 191.453)" fill="#818181"/>
            <path id="Path_1747" data-name="Path 1747" d="M55.512,174.082a2.049,2.049,0,1,1-2.049-2.049A2.047,2.047,0,0,1,55.512,174.082Z" transform="translate(-29.125 11.384)" fill="#818181"/>
            <path id="Path_1748" data-name="Path 1748" d="M60.664,174.082a2.049,2.049,0,1,1-2.049-2.049A2.047,2.047,0,0,1,60.664,174.082Z" transform="translate(-19.776 11.384)" fill="#818181"/>
            <path id="Path_1749" data-name="Path 1749" d="M65.815,174.082a2.049,2.049,0,1,1-2.049-2.049A2.047,2.047,0,0,1,65.815,174.082Z" transform="translate(-10.429 11.384)" fill="#818181"/>
            <path id="Path_1750" data-name="Path 1750" d="M134.548,174.764h37.815a1.144,1.144,0,0,0,1.146-1.143h0a1.145,1.145,0,0,0-1.146-1.146H134.548a1.144,1.144,0,0,0-1.143,1.146h0A1.144,1.144,0,0,0,134.548,174.764Z" transform="translate(119.658 12.188)" fill="#949595"/>
          </g>
          <g id="Group_497" data-name="Group 497" transform="translate(35.079 20.622)">
            <g id="Group_483" data-name="Group 483" transform="translate(0.509)">
              <g id="Group_480" data-name="Group 480">
                <path id="Path_1751" data-name="Path 1751" d="M118.527,124.759v60.472a4.179,4.179,0,0,1-4.177,4.177H61.12a4.175,4.175,0,0,1-4.177-4.177V119.175A4.175,4.175,0,0,1,61.12,115h53.23a4.179,4.179,0,0,1,4.177,4.177Z" transform="translate(-54.68 -112.735)" fill="#c7c7d1"/>
                <path id="Path_1752" data-name="Path 1752" d="M117.723,123.952v60.475a4.178,4.178,0,0,1-4.177,4.174H60.316a4.175,4.175,0,0,1-4.177-4.174V118.371a4.175,4.175,0,0,1,4.177-4.177h53.23a4.179,4.179,0,0,1,4.177,4.177Z" transform="translate(-56.139 -114.194)" fill="#fff"/>
                <path id="Path_1753" data-name="Path 1753" d="M117.723,118.371v5.581H56.139v-5.581a4.175,4.175,0,0,1,4.177-4.177h53.23A4.179,4.179,0,0,1,117.723,118.371Z" transform="translate(-56.139 -114.194)" fill="#737fff"/>
              </g>
              <g id="Group_481" data-name="Group 481" transform="translate(5.165 18.284)">
                <path id="Path_1754" data-name="Path 1754" d="M100.959,121.684H58.469a.5.5,0,0,1-.5-.5h0a.5.5,0,0,1,.5-.5h42.49a.5.5,0,0,1,.5.5h0A.5.5,0,0,1,100.959,121.684Z" transform="translate(-57.974 -120.69)" fill="#737fff"/>
                <path id="Path_1755" data-name="Path 1755" d="M93.3,123.814H58.469a.5.5,0,0,1-.5-.5h0a.5.5,0,0,1,.5-.5H93.3a.5.5,0,0,1,.5.5h0A.5.5,0,0,1,93.3,123.814Z" transform="translate(-57.974 -116.825)" fill="#737fff"/>
                <path id="Path_1756" data-name="Path 1756" d="M87.049,122.749H58.469a.5.5,0,0,1-.5-.5h0a.5.5,0,0,1,.5-.5h28.58a.5.5,0,0,1,.5.5h0A.5.5,0,0,1,87.049,122.749Z" transform="translate(-57.974 -118.757)" fill="#737fff"/>
              </g>
              <g id="Group_482" data-name="Group 482" transform="translate(15.44 29.757)">
                <path id="Path_1757" data-name="Path 1757" d="M91.728,160.469h-30.1v-35.7h.625v35.078H91.728Z" transform="translate(-61.625 -124.766)" fill="#d9e0eb"/>
              </g>
              <rect id="Rectangle_33" data-name="Rectangle 33" width="5.239" height="22.983" transform="translate(20.702 39.012)" fill="#737fff"/>
              <rect id="Rectangle_34" data-name="Rectangle 34" width="5.239" height="27.36" transform="translate(30.648 34.636)" fill="#737fff"/>
              <rect id="Rectangle_35" data-name="Rectangle 35" width="5.239" height="32.362" transform="translate(40.593 29.634)" fill="#737fff"/>
              <path id="Path_1758" data-name="Path 1758" d="M63.676,120.84H58.968a.991.991,0,0,1-.994-.991h0a.991.991,0,0,1,.994-.991h4.709a.991.991,0,0,1,.994.991h0A.991.991,0,0,1,63.676,120.84Z" transform="translate(-52.809 -105.731)" fill="#737fff"/>
            </g>
            <g id="Group_495" data-name="Group 495" transform="translate(0 84.02)">
              <g id="Group_484" data-name="Group 484">
                <path id="Path_1759" data-name="Path 1759" d="M118.856,154.942v32.1a4.061,4.061,0,0,1-4.062,4.059H60.824a4.061,4.061,0,0,1-4.062-4.059V148.911a4.061,4.061,0,0,1,4.062-4.062h53.971a4.061,4.061,0,0,1,4.062,4.062Z" transform="translate(-54.499 -142.586)" fill="#c7c7d1"/>
                <path id="Path_1760" data-name="Path 1760" d="M118.052,154.138v32.1a4.061,4.061,0,0,1-4.062,4.061H60.02a4.061,4.061,0,0,1-4.062-4.061v-38.13a4.061,4.061,0,0,1,4.062-4.062H113.99a4.061,4.061,0,0,1,4.062,4.062Z" transform="translate(-55.958 -144.045)" fill="#fff"/>
                <path id="Path_1761" data-name="Path 1761" d="M118.052,148.107v6.032H55.958v-6.032a4.061,4.061,0,0,1,4.062-4.062H113.99A4.061,4.061,0,0,1,118.052,148.107Z" transform="translate(-55.958 -144.045)" fill="#737fff"/>
              </g>
              <g id="Group_490" data-name="Group 490" transform="translate(43.334 15.993)">
                <g id="Group_485" data-name="Group 485">
                  <path id="Path_1762" data-name="Path 1762" d="M80.884,158.956H72.516a1.164,1.164,0,0,1-1.162-1.16v-6.907a1.165,1.165,0,0,1,1.162-1.162h8.368a1.162,1.162,0,0,1,1.16,1.162V157.8A1.162,1.162,0,0,1,80.884,158.956Zm-8.368-8.911a.847.847,0,0,0-.844.844V157.8a.847.847,0,0,0,.844.844h8.368a.847.847,0,0,0,.844-.844v-6.907a.847.847,0,0,0-.844-.844Z" transform="translate(-71.354 -149.727)" fill="#d9e0eb"/>
                </g>
                <g id="Group_489" data-name="Group 489" transform="translate(1.984 1.255)">
                  <g id="Group_486" data-name="Group 486">
                    <path id="Path_1763" data-name="Path 1763" d="M76.56,156.241a3.178,3.178,0,1,1-1.323-6.068c.1,0,.2,0,.3.011l-.56,3.166Z" transform="translate(-72.059 -150.173)" fill="#737fff"/>
                  </g>
                  <g id="Group_487" data-name="Group 487" transform="translate(3.743 0.084)">
                    <path id="Path_1764" data-name="Path 1764" d="M75.832,152.224A3.188,3.188,0,0,0,73.6,150.2l-.211,2.384Z" transform="translate(-73.389 -150.203)" fill="#5b4cc7"/>
                  </g>
                  <g id="Group_488" data-name="Group 488" transform="translate(3.743 2.899)">
                    <path id="Path_1765" data-name="Path 1765" d="M74.695,154.066a3.183,3.183,0,0,0,1.323-2.584c0-.1-.006-.189-.014-.279l-2.615.191Z" transform="translate(-73.389 -151.203)" fill="#77f38a"/>
                  </g>
                </g>
              </g>
              <g id="Group_491" data-name="Group 491" transform="translate(8.396 15.993)">
                <path id="Path_1766" data-name="Path 1766" d="M82.362,174.333H60.534a1.6,1.6,0,0,1-1.593-1.593V151.32a1.6,1.6,0,0,1,1.593-1.593H82.362a1.6,1.6,0,0,1,1.593,1.593v21.419A1.6,1.6,0,0,1,82.362,174.333ZM60.534,150.045a1.276,1.276,0,0,0-1.275,1.275v21.419a1.276,1.276,0,0,0,1.275,1.275H82.362a1.276,1.276,0,0,0,1.275-1.275V151.32a1.276,1.276,0,0,0-1.275-1.275Z" transform="translate(-58.941 -149.727)" fill="#d9e0eb"/>
              </g>
              <g id="Group_492" data-name="Group 492" transform="translate(9.781 18.909)">
                <path id="Path_1767" data-name="Path 1767" d="M65.211,152.773H60.438a1,1,0,0,1-1-1h0a1,1,0,0,1,1-1h4.774a1,1,0,0,1,1,1h0A1,1,0,0,1,65.211,152.773Z" transform="translate(-59.433 -150.763)" fill="#7fb3f1"/>
              </g>
              <g id="Group_493" data-name="Group 493" transform="translate(22.213 22.804)">
                <path id="Path_1768" data-name="Path 1768" d="M72.316,152.735H64.143a.293.293,0,0,1-.293-.293h0a.293.293,0,0,1,.293-.3h8.174a.3.3,0,0,1,.293.3h0A.294.294,0,0,1,72.316,152.735Z" transform="translate(-63.85 -152.147)" fill="#7fb3f1"/>
              </g>
              <g id="Group_494" data-name="Group 494" transform="translate(22.213 21.532)">
                <path id="Path_1769" data-name="Path 1769" d="M68.615,152.283H64.143a.293.293,0,0,1-.293-.3h0a.292.292,0,0,1,.293-.293h4.472a.3.3,0,0,1,.3.293h0A.3.3,0,0,1,68.615,152.283Z" transform="translate(-63.85 -151.695)" fill="#7fb3f1"/>
              </g>
              <path id="Path_1770" data-name="Path 1770" d="M59.526,161.718a9.889,9.889,0,0,1,2.761-3.172c1.717-1.174,3.561.251,7.2-2.164s5.193-.892,6.451-.684,4.27-2.719,4.27-2.719v8.739Z" transform="translate(-49.483 -127.833)" fill="url(#linear-gradient-2)"/>
            </g>
            <g id="Group_496" data-name="Group 496" transform="translate(70.85 0.014)">
              <path id="Path_1771" data-name="Path 1771" d="M119.791,115.807H249.346a7.679,7.679,0,0,1,7.675,7.673V238.4a7.679,7.679,0,0,1-7.675,7.673H90.412a7.676,7.676,0,0,1-7.673-7.673V123.48a7.676,7.676,0,0,1,7.673-7.673Z" transform="translate(-78.21 -111.281)" fill="#c7c7d1"/>
              <path id="Path_1772" data-name="Path 1772" d="M118.185,114.2H247.739a7.675,7.675,0,0,1,7.673,7.673V236.785a7.675,7.675,0,0,1-7.673,7.673H88.806a7.677,7.677,0,0,1-7.676-7.673V121.872a7.677,7.677,0,0,1,7.676-7.673Z" transform="translate(-81.13 -114.199)" fill="#fafafa"/>
              <path id="Path_1773" data-name="Path 1773" d="M118.185,117.009v122.5H88.806a7.677,7.677,0,0,1-7.676-7.673V116.925Z" transform="translate(-81.13 -109.252)" fill="#f0edff"/>
              <rect id="Rectangle_36" data-name="Rectangle 36" width="46.6" height="46.6" transform="translate(42.767 18.892)" fill="#d6e3ff"/>
              <rect id="Rectangle_37" data-name="Rectangle 37" width="12.123" height="12.123" transform="translate(5.373 15.01)" fill="#aec4ff"/>
              <rect id="Rectangle_38" data-name="Rectangle 38" width="14.031" height="3.881" transform="translate(19.765 15.01)" fill="#dde3f7"/>
              <rect id="Rectangle_39" data-name="Rectangle 39" width="14.031" height="3.881" transform="translate(19.765 20.726)" fill="#dde3f7"/>
              <rect id="Rectangle_40" data-name="Rectangle 40" width="12.123" height="12.123" transform="translate(5.373 33.755)" fill="#aec4ff"/>
              <rect id="Rectangle_41" data-name="Rectangle 41" width="14.031" height="3.881" transform="translate(19.765 33.755)" fill="#dde3f7"/>
              <rect id="Rectangle_42" data-name="Rectangle 42" width="14.031" height="3.881" transform="translate(19.765 39.471)" fill="#dde3f7"/>
              <rect id="Rectangle_43" data-name="Rectangle 43" width="12.123" height="12.123" transform="translate(5.373 52.499)" fill="#aec4ff"/>
              <rect id="Rectangle_44" data-name="Rectangle 44" width="14.031" height="3.881" transform="translate(19.765 52.499)" fill="#dde3f7"/>
              <rect id="Rectangle_45" data-name="Rectangle 45" width="14.031" height="3.881" transform="translate(19.765 58.215)" fill="#dde3f7"/>
              <rect id="Rectangle_46" data-name="Rectangle 46" width="12.123" height="12.123" transform="translate(5.373 71.243)" fill="#aec4ff"/>
              <rect id="Rectangle_47" data-name="Rectangle 47" width="14.031" height="3.881" transform="translate(19.765 71.243)" fill="#dde3f7"/>
              <rect id="Rectangle_48" data-name="Rectangle 48" width="14.031" height="3.881" transform="translate(19.765 76.959)" fill="#dde3f7"/>
              <path id="Path_1774" data-name="Path 1774" d="M120.538,152.5a14.865,14.865,0,1,1-6.184-28.383c.467,0,.929.02,1.382.062l-2.626,14.8Z" transform="translate(-47.813 -96.196)" fill="#737fff"/>
              <path id="Path_1775" data-name="Path 1775" d="M117.14,133.718a14.939,14.939,0,0,0-10.434-9.457l-1,11.152Z" transform="translate(-36.526 -95.94)" fill="#5b4cc7"/>
              <path id="Path_1776" data-name="Path 1776" d="M111.815,142.332A14.885,14.885,0,0,0,118,130.24c0-.439-.02-.873-.056-1.3l-12.235.9Z" transform="translate(-36.526 -87.455)" fill="#77f38a"/>
              <rect id="Rectangle_49" data-name="Rectangle 49" width="11.074" height="38.46" transform="translate(100.082 23.44)" fill="#6e83ff"/>
              <rect id="Rectangle_50" data-name="Rectangle 50" width="11.074" height="21.4" transform="translate(115.646 40.5)" fill="#aec4ff"/>
              <rect id="Rectangle_51" data-name="Rectangle 51" width="11.074" height="28.733" transform="translate(130.611 33.167)" fill="#86ee8d"/>
              <rect id="Rectangle_52" data-name="Rectangle 52" width="16.436" height="16.436" transform="translate(42.207 75.125)" fill="#dde3f7"/>
              <rect id="Rectangle_53" data-name="Rectangle 53" width="16.436" height="16.436" transform="translate(42.207 101.194)" fill="#dde3f7"/>
              <rect id="Rectangle_54" data-name="Rectangle 54" width="46.106" height="6.505" transform="translate(63.049 75.125)" fill="#b1c3fa"/>
              <rect id="Rectangle_55" data-name="Rectangle 55" width="76.882" height="5.624" transform="translate(63.049 85.936)" fill="#dbe1f5"/>
              <rect id="Rectangle_56" data-name="Rectangle 56" width="16.436" height="16.436" transform="translate(42.207 101.194)" fill="#dde3f7"/>
              <rect id="Rectangle_57" data-name="Rectangle 57" width="46.106" height="6.505" transform="translate(63.049 101.194)" fill="#b1c3fa"/>
              <rect id="Rectangle_58" data-name="Rectangle 58" width="76.882" height="5.625" transform="translate(63.049 112.005)" fill="#dbe1f5"/>
              <path id="Path_1777" data-name="Path 1777" d="M255.412,121.872v1.647H81.13v-1.647a7.677,7.677,0,0,1,7.676-7.673H247.739A7.675,7.675,0,0,1,255.412,121.872Z" transform="translate(-81.13 -114.199)" fill="#6e83ff"/>
            </g>
          </g>
          <g id="Group_498" data-name="Group 498" transform="translate(18.868)">
            <path id="Path_1778" data-name="Path 1778" d="M250.344,106.867,93.9,286.3H71.529L226.41,106.867Z" transform="translate(-11.491 -106.867)" fill="#fff" opacity="0.3"/>
            <path id="Path_1779" data-name="Path 1779" d="M227.262,106.867,70.823,286.3H64.291l154.88-179.431Z" transform="translate(-24.625 -106.867)" fill="#fff" opacity="0.3"/>
            <path id="Path_1780" data-name="Path 1780" d="M133.436,106.867,50.2,194.4V180.414l70.745-73.546Z" transform="translate(-50.198 -106.867)" fill="#fff" opacity="0.3"/>
            <path id="Path_1781" data-name="Path 1781" d="M106.451,106.867,50.2,164.811V146.991l39.113-40.123Z" transform="translate(-50.198 -106.867)" fill="#fff" opacity="0.3"/>
          </g>
        </g>
      </g>
      <g id="Group_509" data-name="Group 509" transform="translate(209.288 12.175)">
        <g id="Group_505" data-name="Group 505" transform="translate(0 1.215)">
          <g id="Group_501" data-name="Group 501">
            <circle id="Ellipse_6" data-name="Ellipse 6" cx="36.895" cy="36.895" r="36.895" transform="matrix(0.846, -0.534, 0.534, 0.846, 0, 39.371)" fill="#fbc02d"/>
          </g>
          <g id="Group_502" data-name="Group 502" transform="translate(50.889 13.994)">
            <path id="Path_1782" data-name="Path 1782" d="M100.234,17.578a36.9,36.9,0,1,1,0,73.791Z" transform="translate(-100.234 -17.578)" fill="#e2a827"/>
          </g>
          <g id="Group_503" data-name="Group 503" transform="translate(24.434 24.431)">
            <path id="Path_1783" data-name="Path 1783" d="M143.264,54.009l-3.994-3.386a22.1,22.1,0,0,0-.025-6.17l3.91-3.442a1.357,1.357,0,0,0,.357-1.571l-2.038-4.791a1.394,1.394,0,0,0-1.376-.828l-5.207.414a21.812,21.812,0,0,0-4.4-4.323l.329-5.179a1.327,1.327,0,0,0-.853-1.376L125.143,21.4a1.389,1.389,0,0,0-1.6.357l-3.361,4.022a20.049,20.049,0,0,0-6.167.028L110.574,21.9a1.419,1.419,0,0,0-1.6-.386l-4.765,2.038a1.43,1.43,0,0,0-.853,1.4l.414,5.207a20.387,20.387,0,0,0-4.3,4.4l-5.232-.357a1.339,1.339,0,0,0-1.348.881L90.937,39.91a1.363,1.363,0,0,0,.386,1.568l3.994,3.389a21.978,21.978,0,0,0,.028,6.167l-3.912,3.445a1.407,1.407,0,0,0-.357,1.568l2.038,4.793a1.372,1.372,0,0,0,1.376.825l5.207-.411a21.811,21.811,0,0,0,4.4,4.323l-.329,5.176a1.333,1.333,0,0,0,.853,1.379l4.819,1.953a1.394,1.394,0,0,0,1.6-.357l3.333-3.994a21.246,21.246,0,0,0,6.195-.053l3.47,3.938a1.4,1.4,0,0,0,1.571.357l4.765-2.038a1.411,1.411,0,0,0,.853-1.376l-.414-5.232a20.463,20.463,0,0,0,4.3-4.408l5.232.357a1.3,1.3,0,0,0,1.348-.881l1.956-4.819A1.366,1.366,0,0,0,143.264,54.009Zm-25.971,9.283a15.547,15.547,0,1,1,15.559-15.534A15.556,15.556,0,0,1,117.293,63.292Z" transform="translate(-90.835 -21.286)" fill="#fafffb"/>
            <path id="Path_1784" data-name="Path 1784" d="M106.878,40.738a6.417,6.417,0,1,1,3.417-8.4A6.382,6.382,0,0,1,106.878,40.738Z" transform="translate(-77.915 -8.373)" fill="#fbc02d"/>
          </g>
          <g id="Group_504" data-name="Group 504" transform="translate(44.474 24.431)">
            <path id="Path_1785" data-name="Path 1785" d="M126.206,54.009l-3.994-3.386a22.1,22.1,0,0,0-.025-6.17l3.91-3.442a1.357,1.357,0,0,0,.357-1.571l-2.038-4.791a1.394,1.394,0,0,0-1.376-.828l-5.207.414a21.812,21.812,0,0,0-4.4-4.323l.329-5.179a1.327,1.327,0,0,0-.853-1.376L108.085,21.4a1.389,1.389,0,0,0-1.6.357l-3.361,4.022a20.4,20.4,0,0,0-2.891-.22V32.2a15.547,15.547,0,1,1,0,31.093v6.637a22.135,22.135,0,0,0,3.276-.248l3.47,3.938a1.4,1.4,0,0,0,1.571.357l4.765-2.038a1.411,1.411,0,0,0,.853-1.376l-.414-5.232a20.463,20.463,0,0,0,4.3-4.408l5.232.357a1.3,1.3,0,0,0,1.348-.881l1.956-4.819A1.366,1.366,0,0,0,126.206,54.009Z" transform="translate(-93.817 -21.286)" fill="#dfdfdf"/>
            <path id="Path_1786" data-name="Path 1786" d="M106.878,40.738a6.417,6.417,0,1,1,3.417-8.4A6.382,6.382,0,0,1,106.878,40.738Z" transform="translate(-97.955 -8.373)" fill="#fafffb"/>
            <path id="Path_1787" data-name="Path 1787" d="M102.721,40.736a6.184,6.184,0,0,1-2.48.524V28.4a6.425,6.425,0,0,1,2.48,12.339Z" transform="translate(-93.806 -8.382)" fill="#dfdfdf"/>
          </g>
        </g>
        <g id="Group_508" data-name="Group 508" transform="translate(63.817)" opacity="0.5">
          <g id="Group_506" data-name="Group 506">
            <path id="Path_1788" data-name="Path 1788" d="M104.827,30.3l.1,3.693a.926.926,0,0,0,.678.923l3.569,1.064a14.538,14.538,0,0,0,1.762,4l-1.579,3.378a1.011,1.011,0,0,0,.225,1.129l2.663,2.542a.993.993,0,0,0,1.134.152l3.287-1.756a15.068,15.068,0,0,0,4.109,1.579L122,50.494a.994.994,0,0,0,.974.636l3.693-.1a.944.944,0,0,0,.912-.7l1.07-3.527a15.493,15.493,0,0,0,4.008-1.779l3.358,1.571a.981.981,0,0,0,1.123-.205l2.547-2.682a.994.994,0,0,0,.155-1.131l-1.745-3.265a15.684,15.684,0,0,0,1.554-4.1l3.5-1.261a.966.966,0,0,0,.645-.949l-.1-3.693a.95.95,0,0,0-.678-.92l-3.572-1.067a14.478,14.478,0,0,0-1.759-4l1.571-3.361a1.011,1.011,0,0,0-.22-1.146l-2.663-2.542a1,1,0,0,0-1.157-.144l-3.265,1.745a14.275,14.275,0,0,0-4.1-1.554l-1.236-3.513a.979.979,0,0,0-.974-.633l-3.693.1a.95.95,0,0,0-.909.7l-1.07,3.527a15.642,15.642,0,0,0-4.008,1.779l-3.361-1.571a.988.988,0,0,0-1.12.208l-2.55,2.68a.964.964,0,0,0-.152,1.134L110.53,24a15.712,15.712,0,0,0-1.556,4.1l-3.5,1.258A.971.971,0,0,0,104.827,30.3Zm9.128-2.516a11.053,11.053,0,1,1,6.485,14.208A11.057,11.057,0,0,1,113.955,27.786Z" transform="translate(-104.827 -12.175)" fill="#fafffb"/>
            <path id="Path_1789" data-name="Path 1789" d="M111.554,25.342a4.558,4.558,0,1,0-.18-6.437A4.533,4.533,0,0,0,111.554,25.342Z" transform="translate(-95.209 -2.559)" fill="#fafffb"/>
          </g>
          <g id="Group_507" data-name="Group 507" transform="translate(18.941 36.755)">
            <path id="Path_1790" data-name="Path 1790" d="M113.405,33.809a7.141,7.141,0,1,0,7.532-6.724A7.139,7.139,0,0,0,113.405,33.809Z" transform="translate(-108.222 -21.894)" fill="none"/>
            <path id="Path_1791" data-name="Path 1791" d="M111.589,40.452l.771,2.26a.6.6,0,0,0,.6.439l2.407-.031a9.322,9.322,0,0,0,1.855,2.131l-.326,2.387a.652.652,0,0,0,.357.653l2.128,1.058a.641.641,0,0,0,.729-.124l1.692-1.714a9.8,9.8,0,0,0,2.84.186l1.421,1.917a.638.638,0,0,0,.723.2l2.26-.768a.614.614,0,0,0,.425-.611l-.017-2.381a9.991,9.991,0,0,0,2.131-1.866l2.376.324a.626.626,0,0,0,.65-.341l1.058-2.145a.641.641,0,0,0-.124-.729l-1.7-1.678a10.167,10.167,0,0,0,.172-2.826l1.917-1.45a.622.622,0,0,0,.217-.709l-.771-2.257a.615.615,0,0,0-.594-.439l-2.407.028a9.39,9.39,0,0,0-1.855-2.131l.324-2.373a.654.654,0,0,0-.355-.667l-2.131-1.055a.643.643,0,0,0-.74.135l-1.68,1.7a9.256,9.256,0,0,0-2.826-.175l-1.435-1.928a.633.633,0,0,0-.721-.205l-2.26.771a.61.61,0,0,0-.428.608l.02,2.381a10.075,10.075,0,0,0-2.133,1.866l-2.373-.324a.642.642,0,0,0-.653.343l-1.058,2.142a.624.624,0,0,0,.124.729l1.7,1.678a10.167,10.167,0,0,0-.172,2.826l-1.917,1.45A.629.629,0,0,0,111.589,40.452Zm5.151-3.3a7.141,7.141,0,1,1,6.727,7.521A7.138,7.138,0,0,1,116.74,37.147Z" transform="translate(-111.556 -25.233)" fill="#fafffb"/>
          </g>
        </g>
      </g>
      <g id="Group_521" data-name="Group 521" transform="translate(154.693 150.488)">
        <g id="Group_519" data-name="Group 519" transform="translate(98.699 0)">
          <g id="Group_510" data-name="Group 510" transform="translate(0)">
            <circle id="Ellipse_7" data-name="Ellipse 7" cx="39.772" cy="39.772" r="39.772" transform="translate(0 56.246) rotate(-45)" fill="#d32f2f"/>
          </g>
          <g id="Group_511" data-name="Group 511" transform="translate(56.246 16.473)">
            <path id="Path_1792" data-name="Path 1792" d="M117.807,67.168a39.772,39.772,0,0,1,0,79.544Z" transform="translate(-117.807 -67.168)" fill="#ba2525"/>
          </g>
          <g id="Group_512" data-name="Group 512" transform="translate(35.396 35.395)">
            <path id="Path_1793" data-name="Path 1793" d="M131.25,115.593A20.851,20.851,0,1,1,152.1,94.742,20.874,20.874,0,0,1,131.25,115.593Zm0-37.15a16.3,16.3,0,1,0,16.3,16.3A16.319,16.319,0,0,0,131.25,78.442Z" transform="translate(-110.399 -73.891)" fill="#fff"/>
          </g>
          <g id="Group_513" data-name="Group 513" transform="translate(23.478 23.481)">
            <path id="Path_1794" data-name="Path 1794" d="M138.933,135.188A32.765,32.765,0,1,1,171.7,102.423,32.8,32.8,0,0,1,138.933,135.188Zm0-60.979a28.214,28.214,0,1,0,28.214,28.214A28.246,28.246,0,0,0,138.933,74.209Z" transform="translate(-106.165 -69.658)" fill="#fff"/>
          </g>
          <g id="Group_514" data-name="Group 514" transform="translate(50.243 50.243)">
            <path id="Path_1795" data-name="Path 1795" d="M127.678,85.17a6,6,0,1,1-6-6A6,6,0,0,1,127.678,85.17Z" transform="translate(-115.674 -79.166)" fill="#fff"/>
          </g>
          <g id="Group_518" data-name="Group 518" transform="translate(56.124 19.191)">
            <g id="Group_515" data-name="Group 515" transform="translate(45.749)">
              <path id="Path_1796" data-name="Path 1796" d="M154.356,78.868l-14.962,7.493-4.723-4.348-.653-6.386,14.962-7.493.653,6.386Z" transform="translate(-134.018 -68.134)" fill="#ba2525"/>
            </g>
            <g id="Group_516" data-name="Group 516" transform="translate(45.748 0.001)">
              <path id="Path_1797" data-name="Path 1797" d="M134.67,82.014l-.653-6.386,14.962-7.493.653,6.386Z" transform="translate(-134.017 -68.134)" fill="#d32f2f"/>
            </g>
            <g id="Group_517" data-name="Group 517" transform="translate(0 4.678)">
              <path id="Path_1798" data-name="Path 1798" d="M117.936,101.064a1.138,1.138,0,0,0,1.475,1.618l61.365-30.733a1.137,1.137,0,1,0-1.019-2.032l-61.365,30.73A1.129,1.129,0,0,0,117.936,101.064Z" transform="translate(-117.764 -69.796)" fill="#001f32"/>
            </g>
          </g>
        </g>
        <g id="Group_520" data-name="Group 520" transform="translate(0 14.494)">
          <path id="Path_1799" data-name="Path 1799" d="M114.467,123.315a24.459,24.459,0,0,1-2.328,10.955,22.726,22.726,0,0,1-6.3,7.864,27.467,27.467,0,0,1-9.3,4.74,39.549,39.549,0,0,1-11.382,1.593,40.4,40.4,0,0,1-7.616-.676,42.882,42.882,0,0,1-6.212-1.621,27.1,27.1,0,0,1-4.5-1.987,12.86,12.86,0,0,1-2.6-1.838,4.577,4.577,0,0,1-1.134-2.294,21.134,21.134,0,0,1-.335-4.315q0-1.9.121-3.181a9.052,9.052,0,0,1,.4-2.08,2.286,2.286,0,0,1,.732-1.134,1.78,1.78,0,0,1,1.072-.335,5.081,5.081,0,0,1,2.418,1.008,41.857,41.857,0,0,0,4.008,2.235,36.12,36.12,0,0,0,5.843,2.235,27.685,27.685,0,0,0,7.864,1.008,18.133,18.133,0,0,0,5.263-.7,11.766,11.766,0,0,0,3.946-1.987,8.409,8.409,0,0,0,2.477-3.183,10.09,10.09,0,0,0,.858-4.222,7.391,7.391,0,0,0-1.469-4.619,14.553,14.553,0,0,0-3.825-3.428,39.818,39.818,0,0,0-5.353-2.815q-3-1.317-6.181-2.784a56.436,56.436,0,0,1-6.181-3.335,25.131,25.131,0,0,1-5.356-4.467,21.081,21.081,0,0,1-3.822-6.15A22.214,22.214,0,0,1,64.1,89.289a22.5,22.5,0,0,1,2.111-10,20.518,20.518,0,0,1,5.691-7.16,24.194,24.194,0,0,1,8.447-4.253,36.852,36.852,0,0,1,10.31-1.407,37.533,37.533,0,0,1,5.629.428,38.236,38.236,0,0,1,5.263,1.162,29.418,29.418,0,0,1,4.346,1.652,10.121,10.121,0,0,1,2.508,1.531,4.534,4.534,0,0,1,.828,1.039,5.04,5.04,0,0,1,.366,1.131,11.7,11.7,0,0,1,.214,1.776c.039.712.062,1.6.062,2.663q0,1.773-.093,3a11.231,11.231,0,0,1-.3,2.021,2.443,2.443,0,0,1-.614,1.162,1.513,1.513,0,0,1-1.07.366,5.083,5.083,0,0,1-2.142-.856q-1.469-.857-3.611-1.866a34.364,34.364,0,0,0-4.957-1.838,21.964,21.964,0,0,0-6.181-.825,14.769,14.769,0,0,0-4.591.642,9.533,9.533,0,0,0-3.273,1.773,7.042,7.042,0,0,0-1.959,2.725,8.91,8.91,0,0,0-.642,3.366,7.41,7.41,0,0,0,1.438,4.56A13.778,13.778,0,0,0,85.736,95.5a41.3,41.3,0,0,0,5.474,2.815q3.061,1.317,6.243,2.784a61.516,61.516,0,0,1,6.243,3.338,25.092,25.092,0,0,1,5.446,4.464A20.865,20.865,0,0,1,113,115.023,21.417,21.417,0,0,1,114.467,123.315Z" transform="translate(-62.757 -66.465)" fill="#fff"/>
          <path id="Path_1800" data-name="Path 1800" d="M132.435,139.847a23.534,23.534,0,0,1-.155,2.969,7.472,7.472,0,0,1-.456,1.928,2.442,2.442,0,0,1-.766,1.07,1.666,1.666,0,0,1-1.01.338H90.272a4.994,4.994,0,0,1-3.394-1.193,4.888,4.888,0,0,1-1.379-3.887V72.043a4.881,4.881,0,0,1,1.379-3.884,5,5,0,0,1,3.394-1.193H129.8a1.659,1.659,0,0,1,.982.3,2.366,2.366,0,0,1,.732,1.072,8.311,8.311,0,0,1,.462,1.956,25.37,25.37,0,0,1,.152,3.031,24.1,24.1,0,0,1-.152,2.908,7.756,7.756,0,0,1-.462,1.925,2.59,2.59,0,0,1-.732,1.072,1.544,1.544,0,0,1-.982.335h-28.27V98.908H125.46a1.658,1.658,0,0,1,1.008.338,2.45,2.45,0,0,1,.766,1.039,7.077,7.077,0,0,1,.459,1.9,27.649,27.649,0,0,1,0,5.843,7.035,7.035,0,0,1-.459,1.869,2.226,2.226,0,0,1-.766,1.008,1.763,1.763,0,0,1-1.008.307H101.533v22.337h28.515a1.682,1.682,0,0,1,1.01.335,2.453,2.453,0,0,1,.766,1.072,7.443,7.443,0,0,1,.456,1.928A23.486,23.486,0,0,1,132.435,139.847Z" transform="translate(-21.49 -65.558)" fill="#fff"/>
        </g>
      </g>
    </g>
  </g>
</svg>
