<svg xmlns="http://www.w3.org/2000/svg" width="31.742" height="25.524" viewBox="0 0 31.742 25.524">
  <g id="Group_561" data-name="Group 561" transform="translate(4358.138 4353.339)">
    <path id="Path_1588" data-name="Path 1588" d="M221.932,150.857l7.621,12.678-1.412-.008,1.628,2.728,4.952-.012-12.592-20.984c-.248.4-17.149,25.5-17.149,25.5l27.491.028-11.255-18.86C221.524,151.451,221.965,150.776,221.932,150.857ZM210.685,167.6s5.421-8.042,8.728-12.992l7.755,12.924Z" transform="translate(-4561.115 -4498.598)" fill="#fff"/>
    <path id="Path_1590" data-name="Path 1590" d="M203.945,163.78l-16.406.036,8.681-12.909.68,1.131,1.755-2.609-2.276-3.914-14.234,21.038,23.431-.056Z" transform="translate(-4540.283 -4498.833)" fill="#fff"/>
  </g>
</svg>
