<svg xmlns="http://www.w3.org/2000/svg" width="36" height="32.729" viewBox="0 0 36 32.729">
  <g id="hashtag" transform="translate(0 -0.165)">
    <path id="Path_7555" data-name="Path 7555" d="M268.119,32.894a1.679,1.679,0,0,1-.38-.043,1.219,1.219,0,0,1-1.024-1.5l9.7-30.273A1.491,1.491,0,0,1,278.2.21a1.219,1.219,0,0,1,1.024,1.5l-9.7,30.273a1.439,1.439,0,0,1-1.4.907Zm0,0" transform="translate(-249.09 0)" fill="#dd3468"/>
    <path id="Path_7556" data-name="Path 7556" d="M65.451,32.894a1.676,1.676,0,0,1-.38-.043,1.219,1.219,0,0,1-1.024-1.5l9.7-30.273A1.491,1.491,0,0,1,75.529.21a1.219,1.219,0,0,1,1.024,1.5l-9.7,30.273a1.438,1.438,0,0,1-1.4.907Zm0,0" transform="translate(-58.178 0)" fill="#dd3468"/>
    <path id="Path_7557" data-name="Path 7557" d="M30.917,291.1H1.2a1.481,1.481,0,0,1,0-2.909H30.917a1.481,1.481,0,0,1,0,2.909Zm0,0" transform="translate(0 -266.262)" fill="#dd3468"/>
    <path id="Path_7558" data-name="Path 7558" d="M73.584,109.764H43.873a1.481,1.481,0,0,1,0-2.909H73.584a1.481,1.481,0,0,1,0,2.909Zm0,0" transform="translate(-38.789 -98.63)" fill="#dd3468"/>
  </g>
</svg>
