<svg xmlns="http://www.w3.org/2000/svg" width="13.071" height="9.928" viewBox="0 0 13.071 9.928">
  <defs>
    <style>
      .cls-1 {
        fill: #707070;
      }
    </style>
  </defs>
  <g id="logout" transform="translate(0 -58.95)">
    <g id="Group_699" data-name="Group 699" transform="translate(0 58.95)">
      <path id="Path_1995" data-name="Path 1995" class="cls-1" d="M0,60.606v6.617a1.659,1.659,0,0,0,1.656,1.656H7a1.659,1.659,0,0,0,1.656-1.656V66.151a.328.328,0,0,0-.656,0v1.072a1,1,0,0,1-1,1H1.656a1,1,0,0,1-1-1V60.606a1,1,0,0,1,1-1H7a1,1,0,0,1,1,1v1.072a.328.328,0,1,0,.656,0V60.606A1.659,1.659,0,0,0,7.006,58.95H1.656A1.657,1.657,0,0,0,0,60.606Z" transform="translate(0 -58.95)"/>
      <path id="Path_1996" data-name="Path 1996" class="cls-1" d="M211.075,153.981a.328.328,0,0,0,.464,0l2.237-2.237a.325.325,0,0,0,0-.461l-2.237-2.237a.326.326,0,0,0-.461.461l1.68,1.68h-6.129a.328.328,0,0,0,0,.656h6.126l-1.68,1.68A.322.322,0,0,0,211.075,153.981Z" transform="translate(-200.8 -146.551)"/>
    </g>
  </g>
</svg>
