<svg xmlns="http://www.w3.org/2000/svg" width="25" height="25" viewBox="0 0 25 25">
  <g id="message-circle" transform="translate(-138.5 -756)">
    <path id="message-circle-2" data-name="message-circle" d="M27,14.333A11.173,11.173,0,0,1,25.8,19.4a11.333,11.333,0,0,1-10.133,6.267,11.173,11.173,0,0,1-5.067-1.2L3,27l2.533-7.6a11.173,11.173,0,0,1-1.2-5.067A11.333,11.333,0,0,1,10.6,4.2,11.173,11.173,0,0,1,15.667,3h.667A11.307,11.307,0,0,1,27,13.667Z" transform="translate(136 753.5)" fill="none" stroke="#fff" stroke-linecap="round" stroke-linejoin="round" stroke-width="1"/>
  </g>
</svg>
