<svg id="baseline-remove_red_eye-24px" xmlns="http://www.w3.org/2000/svg" width="20" height="20" viewBox="0 0 20 20">
  <defs>
    <style>
      .cls-1 {
        fill: none;
      }

      .cls-2 {
        fill: #fff;
      }
    </style>
  </defs>
  <path id="Path_1081" data-name="Path 1081" class="cls-1" d="M0,0H20V20H0Z"/>
  <path id="Path_1082" data-name="Path 1082" class="cls-2" d="M10.165,4.5A9.854,9.854,0,0,0,1,10.745a9.849,9.849,0,0,0,18.331,0A9.854,9.854,0,0,0,10.165,4.5Zm0,10.408a4.163,4.163,0,1,1,4.166-4.163A4.166,4.166,0,0,1,10.165,14.908Zm0-6.661a2.5,2.5,0,1,0,2.5,2.5A2.5,2.5,0,0,0,10.165,8.247Z" transform="translate(-0.165 -0.745)"/>
</svg>
