<svg xmlns="http://www.w3.org/2000/svg" width="21" height="21" viewBox="0 0 21 21">
  <path id="Path_953" data-name="Path 953" d="M26,19.5V4.5A2.507,2.507,0,0,0,23.5,2H8.5A2.507,2.507,0,0,0,6,4.5v15A2.507,2.507,0,0,0,8.5,22h15A2.507,2.507,0,0,0,26,19.5ZM12.75,15.162l2.038,2.725,3.225-4.025a.624.624,0,0,1,.975,0l3.7,4.625A.623.623,0,0,1,22.2,19.5H9.75a.625.625,0,0,1-.5-1l2.5-3.338A.635.635,0,0,1,12.75,15.162Z" transform="translate(-5.5 -1.5)" fill="none" stroke="#676f75" stroke-width="1"/>
</svg>
