<svg xmlns="http://www.w3.org/2000/svg" width="12.8" height="12.8" viewBox="0 0 12.8 12.8">
  <path id="Path_1993" data-name="Path 1993" d="M1.33,12.053A4.93,4.93,0,0,0,1.771,13.1l-.532.671a.551.551,0,0,0,.041.73l.917.917a.548.548,0,0,0,.73.041l.667-.528a4.844,4.844,0,0,0,1.088.461l.1.858a.549.549,0,0,0,.545.487h1.3a.549.549,0,0,0,.545-.487l.1-.828a4.9,4.9,0,0,0,1.166-.471l.645.51a.551.551,0,0,0,.73-.041l.917-.917a.549.549,0,0,0,.041-.73l-.5-.636a4.788,4.788,0,0,0,.48-1.147l.773-.089A.549.549,0,0,0,12,11.356v-1.3a.549.549,0,0,0-.487-.545l-.762-.089a4.819,4.819,0,0,0-.46-1.134l.469-.593a.551.551,0,0,0-.041-.73l-.914-.915a.548.548,0,0,0-.73-.041L8.5,6.468a4.833,4.833,0,0,0-1.192-.5l-.087-.745a.549.549,0,0,0-.545-.487h-1.3a.549.549,0,0,0-.545.487l-.087.745a4.813,4.813,0,0,0-1.223.517l-.6-.474a.551.551,0,0,0-.73.041L1.28,6.97a.549.549,0,0,0-.041.73l.5.632a4.726,4.726,0,0,0-.452,1.145l-.8.091A.549.549,0,0,0,0,10.113v1.3a.549.549,0,0,0,.487.545Zm4.7-3.508a2.144,2.144,0,1,1-2.144,2.144A2.147,2.147,0,0,1,6.028,8.545Z" transform="translate(0.399 -4.337)" fill="none" stroke="#dd3468" stroke-width="0.8"/>
</svg>
