<svg id="Rounded" xmlns="http://www.w3.org/2000/svg" width="36" height="36" viewBox="0 0 36 36">
  <path id="Path_953" data-name="Path 953" d="M38,27.2V5.6A3.611,3.611,0,0,0,34.4,2H12.8A3.611,3.611,0,0,0,9.2,5.6V27.2a3.611,3.611,0,0,0,3.6,3.6H34.4A3.611,3.611,0,0,0,38,27.2ZM18.92,20.954l2.934,3.924,4.644-5.8a.9.9,0,0,1,1.4,0l5.328,6.66a.9.9,0,0,1-.7,1.458H14.6a.9.9,0,0,1-.72-1.44l3.6-4.806A.914.914,0,0,1,18.92,20.954ZM2,11V34.4A3.611,3.611,0,0,0,5.6,38H29a1.805,1.805,0,0,0,1.8-1.8h0A1.805,1.805,0,0,0,29,34.4H7.4a1.805,1.805,0,0,1-1.8-1.8V11A1.805,1.805,0,0,0,3.8,9.2h0A1.805,1.805,0,0,0,2,11Z" transform="translate(-2 -2)" fill="#dd3468"/>
</svg>
