<svg xmlns="http://www.w3.org/2000/svg" width="16" height="16" viewBox="0 0 16 16">
  <g id="trash" transform="translate(-18.269)">
    <g id="Group_7444" data-name="Group 7444" transform="translate(18.269)">
      <path id="Path_7636" data-name="Path 7636" d="M34.167,2.76a.372.372,0,0,0-.261-.094H30.394L29.6.927a1.485,1.485,0,0,0-.613-.656,1.706,1.706,0,0,0-.9-.271H24.451a1.705,1.705,0,0,0-.9.271,1.485,1.485,0,0,0-.614.656l-.8,1.739H18.633a.372.372,0,0,0-.261.094.311.311,0,0,0-.1.24v.667a.31.31,0,0,0,.1.239A.372.372,0,0,0,18.633,4h1.091v9.917a2.159,2.159,0,0,0,.534,1.474A1.65,1.65,0,0,0,21.542,16H31a1.63,1.63,0,0,0,1.284-.63,2.238,2.238,0,0,0,.534-1.495V4h1.091a.372.372,0,0,0,.261-.094.311.311,0,0,0,.1-.239V3A.311.311,0,0,0,34.167,2.76ZM24.28,1.448a.324.324,0,0,1,.193-.115h3.6a.325.325,0,0,1,.193.115l.546,1.219H23.724Zm7.08,12.428a1.093,1.093,0,0,1-.08.422.919.919,0,0,1-.165.281c-.057.059-.1.089-.119.089H21.542c-.023,0-.062-.029-.119-.089a.914.914,0,0,1-.165-.281,1.1,1.1,0,0,1-.079-.422V4H31.36v9.875Z" transform="translate(-18.269)" fill="#dd3468"/>
      <path id="Path_7637" data-name="Path 7637" d="M128.271,171.764H129a.352.352,0,0,0,.366-.366v-6.583a.352.352,0,0,0-.366-.366h-.731a.352.352,0,0,0-.366.366V171.4a.352.352,0,0,0,.366.366Z" transform="translate(-123.544 -158.865)" fill="#dd3468"/>
      <path id="Path_7638" data-name="Path 7638" d="M201.36,171.764h.731a.352.352,0,0,0,.366-.366v-6.583a.352.352,0,0,0-.366-.366h-.731a.352.352,0,0,0-.366.366V171.4a.352.352,0,0,0,.366.366Z" transform="translate(-193.725 -158.865)" fill="#dd3468"/>
      <path id="Path_7639" data-name="Path 7639" d="M274.449,171.764h.731a.351.351,0,0,0,.366-.366v-6.583a.351.351,0,0,0-.366-.366h-.731a.352.352,0,0,0-.366.366V171.4a.352.352,0,0,0,.366.366Z" transform="translate(-263.907 -158.865)" fill="#dd3468"/>
    </g>
  </g>
</svg>
